<svg width="16" height="16" viewBox="0 0 16 16" fill="none" xmlns="http://www.w3.org/2000/svg">
<path fill-rule="evenodd" clip-rule="evenodd" d="M14 12.25C14 12.4489 13.921 12.6397 13.7803 12.7803C13.6397 12.921 13.4489 13 13.25 13L2.75 13C2.55109 13 2.36032 12.921 2.21967 12.7803C2.07902 12.6397 2 12.4489 2 12.25C2 12.0511 2.07902 11.8603 2.21967 11.7197C2.36032 11.579 2.55109 11.5 2.75 11.5L13.25 11.5C13.4489 11.5 13.6397 11.579 13.7803 11.7197C13.921 11.8603 14 12.0511 14 12.25ZM11 8C11 8.19891 10.921 8.38968 10.7803 8.53033C10.6397 8.67098 10.4489 8.75 10.25 8.75L5.75 8.75C5.55109 8.75 5.36032 8.67098 5.21967 8.53033C5.07902 8.38968 5 8.19891 5 8C5 7.80109 5.07902 7.61032 5.21967 7.46967C5.36032 7.32902 5.55109 7.25 5.75 7.25L10.25 7.25C10.4489 7.25 10.6397 7.32902 10.7803 7.46967C10.921 7.61032 11 7.80109 11 8ZM14 3.75C14 3.94891 13.921 4.13968 13.7803 4.28033C13.6397 4.42098 13.4489 4.5 13.25 4.5L2.75 4.5C2.55109 4.5 2.36032 4.42098 2.21967 4.28033C2.07902 4.13968 2 3.94891 2 3.75C2 3.55109 2.07902 3.36032 2.21967 3.21967C2.36032 3.07902 2.55109 3 2.75 3L13.25 3C13.4489 3 13.6397 3.07902 13.7803 3.21967C13.921 3.36032 14 3.55109 14 3.75Z" fill="currentColor"/>
</svg>
