<svg width="16" height="16" viewBox="0 0 16 16" fill="none" xmlns="http://www.w3.org/2000/svg">
<path fill-rule="evenodd" clip-rule="evenodd" d="M9.78001 4.22007C9.92046 4.3607 9.99935 4.55132 9.99935 4.75007C9.99935 4.94882 9.92046 5.13945 9.78001 5.28007L7.06001 8.00007L9.78001 10.7201C9.8537 10.7887 9.9128 10.8715 9.95379 10.9635C9.99478 11.0555 10.0168 11.1548 10.0186 11.2556C10.0204 11.3563 10.0019 11.4563 9.96413 11.5497C9.92641 11.6431 9.87027 11.7279 9.79905 11.7991C9.72783 11.8703 9.643 11.9265 9.54961 11.9642C9.45622 12.0019 9.35619 12.0204 9.25549 12.0187C9.15479 12.0169 9.05547 11.9948 8.96347 11.9539C8.87147 11.9129 8.78867 11.8538 8.72001 11.7801L5.47001 8.53007C5.32956 8.38945 5.25067 8.19882 5.25067 8.00007C5.25067 7.80132 5.32956 7.6107 5.47001 7.47007L8.72001 4.22007C8.86064 4.07962 9.05126 4.00073 9.25001 4.00073C9.44876 4.00073 9.63939 4.07962 9.78001 4.22007Z" fill="currentColor"/>
</svg>
