<svg width="16" height="16" viewBox="0 0 16 16" fill="none" xmlns="http://www.w3.org/2000/svg">
<path fill-rule="evenodd" clip-rule="evenodd" d="M6.22001 4.22007C6.36064 4.07962 6.55126 4.00073 6.75001 4.00073C6.94876 4.00073 7.13939 4.07962 7.28001 4.22007L10.53 7.47007C10.6705 7.6107 10.7494 7.80132 10.7494 8.00007C10.7494 8.19882 10.6705 8.38945 10.53 8.53007L7.28001 11.7801C7.13784 11.9126 6.94979 11.9847 6.75549 11.9812C6.56119 11.9778 6.3758 11.8991 6.23839 11.7617C6.10098 11.6243 6.02226 11.4389 6.01884 11.2446C6.01541 11.0503 6.08753 10.8622 6.22001 10.7201L8.94001 8.00007L6.22001 5.28007C6.07956 5.13945 6.00067 4.94882 6.00067 4.75007C6.00067 4.55132 6.07956 4.3607 6.22001 4.22007Z" fill="currentColor"/>
</svg>
