<svg width="16" height="16" viewBox="0 0 16 16" fill="none" xmlns="http://www.w3.org/2000/svg">
<path fill-rule="evenodd" clip-rule="evenodd" d="M4.22001 6.21991C4.36064 6.07946 4.55126 6.00057 4.75001 6.00057C4.94876 6.00057 5.13939 6.07946 5.28001 6.21991L8.00001 8.93991L10.72 6.21991C10.7887 6.14622 10.8715 6.08712 10.9635 6.04613C11.0555 6.00514 11.1548 5.98309 11.2555 5.98132C11.3562 5.97954 11.4562 5.99807 11.5496 6.03579C11.643 6.07351 11.7278 6.12965 11.799 6.20087C11.8703 6.27209 11.9264 6.35692 11.9641 6.45031C12.0019 6.5437 12.0204 6.64373 12.0186 6.74443C12.0168 6.84513 11.9948 6.94445 11.9538 7.03645C11.9128 7.12845 11.8537 7.21125 11.78 7.27991L8.53001 10.5299C8.38939 10.6704 8.19876 10.7492 8.00001 10.7492C7.80126 10.7492 7.61064 10.6704 7.47001 10.5299L4.22001 7.27991C4.07956 7.13928 4.00067 6.94866 4.00067 6.74991C4.00067 6.55116 4.07956 6.36053 4.22001 6.21991Z" fill="black"/>
</svg>
