<svg width="21" height="21" viewBox="0 0 21 21" fill="none" xmlns="http://www.w3.org/2000/svg">
    <path d="M13.7001 2.52574C13.6331 2.59796 13.581 2.68267 13.5468 2.77503C13.5125 2.86739 13.4968 2.96559 13.5005 3.06402C13.5043 3.16246 13.5273 3.25919 13.5684 3.34871C13.6095 3.43823 13.6679 3.51877 13.7401 3.58574L15.8401 5.53574H7.2501C7.05119 5.53574 6.86042 5.61476 6.71977 5.75541C6.57912 5.89606 6.5001 6.08683 6.5001 6.28574C6.5001 6.48465 6.57912 6.67542 6.71977 6.81607C6.86042 6.95672 7.05119 7.03574 7.2501 7.03574H15.8401L13.7401 8.98574C13.6679 9.05271 13.6095 9.13326 13.5684 9.22277C13.5273 9.31229 13.5043 9.40902 13.5006 9.50745C13.4969 9.60589 13.5126 9.70408 13.5468 9.79644C13.581 9.8888 13.6331 9.97351 13.7001 10.0457C13.7671 10.118 13.8476 10.1763 13.9371 10.2174C14.0266 10.2585 14.1234 10.2816 14.2218 10.2853C14.3202 10.289 14.4184 10.2733 14.5108 10.239C14.6032 10.2048 14.6879 10.1527 14.7601 10.0857L18.2601 6.83574C18.3358 6.76553 18.3962 6.68044 18.4376 6.5858C18.4789 6.49116 18.5002 6.38901 18.5002 6.28574C18.5002 6.18247 18.4789 6.08032 18.4376 5.98568C18.3962 5.89104 18.3358 5.80595 18.2601 5.73574L14.7601 2.48574C14.6879 2.41876 14.6032 2.36666 14.5108 2.33242C14.4184 2.29818 14.3202 2.28246 14.2218 2.28618C14.1234 2.28989 14.0266 2.31296 13.9371 2.35406C13.8476 2.39517 13.7671 2.4535 13.7001 2.52574ZM7.3001 10.5257C7.23313 10.4535 7.15259 10.3952 7.06307 10.3541C6.97355 10.313 6.87682 10.2899 6.77838 10.2862C6.67995 10.2825 6.58175 10.2982 6.48939 10.3324C6.39703 10.3667 6.31232 10.4188 6.2401 10.4857L2.7401 13.7357C2.66437 13.8059 2.60396 13.891 2.56264 13.9857C2.52133 14.0803 2.5 14.1825 2.5 14.2857C2.5 14.389 2.52133 14.4912 2.56264 14.5858C2.60396 14.6804 2.66437 14.7655 2.7401 14.8357L6.2401 18.0857C6.31232 18.1527 6.39704 18.2048 6.4894 18.239C6.58175 18.2733 6.67995 18.289 6.77838 18.2853C6.87681 18.2816 6.97355 18.2585 7.06306 18.2174C7.15258 18.1763 7.23312 18.118 7.3001 18.0457C7.36707 17.9735 7.41916 17.8888 7.4534 17.7964C7.48764 17.7041 7.50335 17.6059 7.49963 17.5075C7.49592 17.409 7.47285 17.3123 7.43175 17.2228C7.39065 17.1333 7.33233 17.0527 7.2601 16.9857L5.1601 15.0357H13.7501C13.949 15.0357 14.1398 14.9567 14.2804 14.8161C14.4211 14.6754 14.5001 14.4847 14.5001 14.2857C14.5001 14.0868 14.4211 13.8961 14.2804 13.7554C14.1398 13.6148 13.949 13.5357 13.7501 13.5357H5.1601L7.2601 11.5857C7.33233 11.5188 7.39067 11.4382 7.43177 11.3487C7.47288 11.2592 7.49594 11.1625 7.49966 11.064C7.50337 10.9656 7.48766 10.8674 7.45342 10.775C7.41918 10.6827 7.36708 10.598 7.3001 10.5257Z"/>
</svg>
