<svg width="21" height="21" viewBox="0 0 21 21" fill="none" xmlns="http://www.w3.org/2000/svg">
    <path d="M3 4.14282C2.60218 4.14282 2.22064 4.30086 1.93934 4.58216C1.65804 4.86347 1.5 5.245 1.5 5.64282V6.14282H19.5V5.64282C19.5 5.245 19.342 4.86347 19.0607 4.58216C18.7794 4.30086 18.3978 4.14282 18 4.14282H3ZM19.5 8.64282H1.5V14.6428C1.5 15.0406 1.65804 15.4222 1.93934 15.7035C2.22064 15.9848 2.60218 16.1428 3 16.1428H18C18.3978 16.1428 18.7794 15.9848 19.0607 15.7035C19.342 15.4222 19.5 15.0406 19.5 14.6428V8.64282ZM3.5 13.3928C3.5 13.1939 3.57902 13.0031 3.71967 12.8625C3.86032 12.7218 4.05109 12.6428 4.25 12.6428H5.75C5.94891 12.6428 6.13968 12.7218 6.28033 12.8625C6.42098 13.0031 6.5 13.1939 6.5 13.3928C6.5 13.5917 6.42098 13.7825 6.28033 13.9232C6.13968 14.0638 5.94891 14.1428 5.75 14.1428H4.25C4.05109 14.1428 3.86032 14.0638 3.71967 13.9232C3.57902 13.7825 3.5 13.5917 3.5 13.3928ZM8.25 12.6428C8.05109 12.6428 7.86032 12.7218 7.71967 12.8625C7.57902 13.0031 7.5 13.1939 7.5 13.3928C7.5 13.5917 7.57902 13.7825 7.71967 13.9232C7.86032 14.0638 8.05109 14.1428 8.25 14.1428H11.75C11.9489 14.1428 12.1397 14.0638 12.2803 13.9232C12.421 13.7825 12.5 13.5917 12.5 13.3928C12.5 13.1939 12.421 13.0031 12.2803 12.8625C12.1397 12.7218 11.9489 12.6428 11.75 12.6428H8.25Z"/>
</svg>
