<svg width="16" height="16" viewBox="0 0 16 16" fill="none" xmlns="http://www.w3.org/2000/svg">
<path fill-rule="evenodd" clip-rule="evenodd" d="M3 3C3 2.73478 3.10536 2.48043 3.29289 2.29289C3.48043 2.10536 3.73478 2 4 2H9C9.64375 2.00005 10.275 2.17765 10.8244 2.51326C11.3737 2.84887 11.8199 3.32948 12.1137 3.90224C12.4076 4.475 12.5378 5.11772 12.4901 5.75969C12.4423 6.40167 12.2184 7.01804 11.843 7.541C12.3838 8.05868 12.7573 8.7264 12.9154 9.45818C13.0735 10.19 13.0089 10.9523 12.73 11.6471C12.4511 12.3418 11.9706 12.9372 11.3504 13.3566C10.7302 13.7759 9.99866 14 9.25 14H4C3.73478 14 3.48043 13.8946 3.29289 13.7071C3.10536 13.5196 3 13.2652 3 13V3ZM5.5 6.5V4.5H9C9.26522 4.5 9.51957 4.60536 9.70711 4.79289C9.89464 4.98043 10 5.23478 10 5.5C10 5.76522 9.89464 6.01957 9.70711 6.20711C9.51957 6.39464 9.26522 6.5 9 6.5H5.5ZM5.5 9V11.5H9.25C9.58152 11.5 9.89946 11.3683 10.1339 11.1339C10.3683 10.8995 10.5 10.5815 10.5 10.25C10.5 9.91848 10.3683 9.60054 10.1339 9.36612C9.89946 9.1317 9.58152 9 9.25 9H5.5Z" fill="black"/>
</svg>
