<svg width="21" height="21" viewBox="0 0 21 21" fill="none" xmlns="http://www.w3.org/2000/svg">
    <path d="M3.5 4.28564C2.96957 4.28564 2.46086 4.49636 2.08579 4.87143C1.71071 5.2465 1.5 5.75521 1.5 6.28564V7.44664L9.941 11.6676C10.1146 11.7544 10.306 11.7996 10.5 11.7996C10.694 11.7996 10.8854 11.7544 11.059 11.6676L19.5 7.44764V6.28564C19.5 5.75521 19.2893 5.2465 18.9142 4.87143C18.5391 4.49636 18.0304 4.28564 17.5 4.28564H3.5Z"/>
    <path d="M19.5 9.12476L11.73 13.0098C11.3481 13.2007 10.927 13.3002 10.5 13.3002C10.073 13.3002 9.6519 13.2007 9.27 13.0098L1.5 9.12476V14.2858C1.5 14.8162 1.71071 15.3249 2.08579 15.7C2.46086 16.075 2.96957 16.2858 3.5 16.2858H17.5C18.0304 16.2858 18.5391 16.075 18.9142 15.7C19.2893 15.3249 19.5 14.8162 19.5 14.2858V9.12476Z"/>
</svg>
