<svg width="16" height="17" viewBox="0 0 16 17" fill="none" xmlns="http://www.w3.org/2000/svg">
    <path d="M6.22007 4.72007C6.3607 4.57962 6.55132 4.50073 6.75007 4.50073C6.94882 4.50073 7.13945 4.57962 7.28007 4.72007L10.5301 7.97007C10.6705 8.1107 10.7494 8.30132 10.7494 8.50007C10.7494 8.69882 10.6705 8.88945 10.5301 9.03007L7.28007 12.2801C7.1379 12.4126 6.94985 12.4847 6.75555 12.4812C6.56125 12.4778 6.37586 12.3991 6.23845 12.2617C6.10104 12.1243 6.02233 11.9389 6.0189 11.7446C6.01547 11.5503 6.08759 11.3622 6.22007 11.2201L8.94007 8.50007L6.22007 5.78007C6.07962 5.63945 6.00073 5.44882 6.00073 5.25007C6.00073 5.05132 6.07962 4.8607 6.22007 4.72007Z"/>
</svg>
