<svg width="16" height="16" viewBox="0 0 16 16" fill="none" xmlns="http://www.w3.org/2000/svg">
<path fill-rule="evenodd" clip-rule="evenodd" d="M12.416 3.37576C12.5815 3.4861 12.6964 3.65765 12.7354 3.85269C12.7744 4.04772 12.7343 4.25026 12.624 4.41576L7.62403 11.9158C7.56245 12.008 7.48117 12.0854 7.38606 12.1425C7.29095 12.1995 7.18437 12.2348 7.07399 12.2457C6.96362 12.2566 6.8522 12.2429 6.74776 12.2055C6.64333 12.1682 6.54847 12.1082 6.47003 12.0298L3.47003 9.02976C3.33755 8.88758 3.26543 8.69954 3.26885 8.50524C3.27228 8.31094 3.35099 8.12555 3.48841 7.98814C3.62582 7.85073 3.81121 7.77201 4.00551 7.76859C4.19981 7.76516 4.38785 7.83728 4.53003 7.96976L6.88303 10.3228L11.376 3.58276C11.4865 3.41744 11.6581 3.30276 11.8532 3.26394C12.0482 3.22513 12.2507 3.26535 12.416 3.37576Z" fill="currentColor"/>
</svg>
