<svg width="16" height="16" viewBox="0 0 16 16" fill="none" xmlns="http://www.w3.org/2000/svg">
<path d="M5.27997 4.22009C5.1378 4.08761 4.94975 4.01549 4.75545 4.01892C4.56115 4.02234 4.37576 4.10106 4.23835 4.23847C4.10094 4.37588 4.02222 4.56127 4.0188 4.75557C4.01537 4.94987 4.08749 5.13792 4.21997 5.28009L6.93997 8.00009L4.21997 10.7201C4.14628 10.7888 4.08718 10.8716 4.04619 10.9636C4.0052 11.0556 3.98316 11.1549 3.98138 11.2556C3.9796 11.3563 3.99813 11.4563 4.03585 11.5497C4.07357 11.6431 4.12971 11.7279 4.20093 11.7991C4.27215 11.8703 4.35698 11.9265 4.45037 11.9642C4.54376 12.0019 4.64379 12.0205 4.74449 12.0187C4.8452 12.0169 4.94451 11.9949 5.03651 11.9539C5.12851 11.9129 5.21131 11.8538 5.27997 11.7801L7.99997 9.06009L10.72 11.7801C10.7886 11.8538 10.8714 11.9129 10.9634 11.9539C11.0554 11.9949 11.1547 12.0169 11.2554 12.0187C11.3562 12.0205 11.4562 12.0019 11.5496 11.9642C11.643 11.9265 11.7278 11.8703 11.799 11.7991C11.8702 11.7279 11.9264 11.6431 11.9641 11.5497C12.0018 11.4563 12.0203 11.3563 12.0186 11.2556C12.0168 11.1549 11.9947 11.0556 11.9538 10.9636C11.9128 10.8716 11.8537 10.7888 11.78 10.7201L9.05997 8.00009L11.78 5.28009C11.9125 5.13792 11.9846 4.94987 11.9811 4.75557C11.9777 4.56127 11.899 4.37588 11.7616 4.23847C11.6242 4.10106 11.4388 4.02234 11.2445 4.01892C11.0502 4.01549 10.8621 4.08761 10.72 4.22009L7.99997 6.94009L5.27997 4.22009Z" fill="black"/>
</svg>
