<?xml version="1.0" standalone="no"?>
<!DOCTYPE svg PUBLIC "-//W3C//DTD SVG 20010904//EN"
 "http://www.w3.org/TR/2001/REC-SVG-20010904/DTD/svg10.dtd">
<svg version="1.0" xmlns="http://www.w3.org/2000/svg"
 width="16.000000pt" height="16.000000pt" viewBox="0 0 16.000000 16.000000"
 preserveAspectRatio="xMidYMid meet">

<g transform="translate(0.000000,16.000000) scale(0.100000,-0.100000)"
fill="#000000" stroke="none">
<path d="M7 153 c-11 -10 -8 -103 3 -103 6 0 10 20 10 45 0 40 2 45 23 44 12
0 16 -3 10 -6 -9 -3 -13 -27 -13 -69 l0 -64 60 0 60 0 0 65 c0 61 -2 65 -25
71 -14 3 -22 10 -19 15 6 10 -99 12 -109 2z m133 -88 l0 -55 -40 0 -40 0 0 55
0 55 40 0 40 0 0 -55z"/>
</g>
</svg>
