<?xml version="1.0" standalone="no"?>
<!DOCTYPE svg PUBLIC "-//W3C//DTD SVG 20010904//EN"
 "http://www.w3.org/TR/2001/REC-SVG-20010904/DTD/svg10.dtd">
<svg version="1.0" xmlns="http://www.w3.org/2000/svg"
 width="16.000000pt" height="16.000000pt" viewBox="0 0 16.000000 16.000000"
 preserveAspectRatio="xMidYMid meet">

<g transform="translate(0.000000,16.000000) scale(0.100000,-0.100000)"
fill="#000000" stroke="none">
<path d="M27 133 c-11 -10 -8 -73 2 -73 6 0 12 15 14 33 3 22 4 15 5 -20 l2
-53 45 0 45 0 0 46 c0 33 -5 51 -17 60 -19 14 -85 19 -96 7z m93 -63 c0 -36
-2 -40 -25 -40 -22 0 -25 4 -25 40 0 36 3 40 25 40 23 0 25 -4 25 -40z"/>
</g>
</svg>
