<svg width="21" height="21" viewBox="0 0 21 21" fill="none" xmlns="http://www.w3.org/2000/svg">
    <path d="M9.79303 2.57868C9.98056 2.3912 10.2349 2.28589 10.5 2.28589C10.7652 2.28589 11.0195 2.3912 11.207 2.57868L18.207 9.57868C18.3468 9.71853 18.442 9.89669 18.4806 10.0906C18.5192 10.2846 18.4994 10.4856 18.4237 10.6683C18.348 10.851 18.2199 11.0072 18.0555 11.1171C17.8911 11.227 17.6978 11.2856 17.5 11.2857H16.5V17.2857C16.5 17.5509 16.3947 17.8052 16.2071 17.9928C16.0196 18.1803 15.7652 18.2857 15.5 18.2857H13.5C13.2348 18.2857 12.9805 18.1803 12.7929 17.9928C12.6054 17.8052 12.5 17.5509 12.5 17.2857V14.2857C12.5 14.0205 12.3947 13.7661 12.2071 13.5786C12.0196 13.391 11.7652 13.2857 11.5 13.2857H9.50003C9.23481 13.2857 8.98046 13.391 8.79292 13.5786C8.60539 13.7661 8.50003 14.0205 8.50003 14.2857V17.2857C8.50003 17.5509 8.39467 17.8052 8.20714 17.9928C8.0196 18.1803 7.76525 18.2857 7.50003 18.2857H5.50003C5.23481 18.2857 4.98046 18.1803 4.79292 17.9928C4.60539 17.8052 4.50003 17.5509 4.50003 17.2857V11.2857H3.50003C3.30228 11.2856 3.10898 11.227 2.94457 11.1171C2.78016 11.0072 2.65202 10.851 2.57635 10.6683C2.50068 10.4856 2.48088 10.2846 2.51945 10.0906C2.55802 9.89669 2.65322 9.71853 2.79303 9.57868L9.79303 2.57868Z"/>
</svg>
