<svg width="16" height="16" viewBox="0 0 16 16" fill="none" xmlns="http://www.w3.org/2000/svg">
<path d="M8.75003 2.75C8.75003 2.55109 8.67101 2.36032 8.53036 2.21967C8.38971 2.07902 8.19894 2 8.00003 2C7.80112 2 7.61035 2.07902 7.4697 2.21967C7.32905 2.36032 7.25003 2.55109 7.25003 2.75V8.44L5.03003 6.22C4.88785 6.08752 4.69981 6.0154 4.50551 6.01883C4.31121 6.02225 4.12582 6.10097 3.98841 6.23838C3.85099 6.37579 3.77228 6.56118 3.76885 6.75548C3.76543 6.94978 3.83755 7.13783 3.97003 7.28L7.47003 10.78C7.61065 10.9205 7.80128 10.9993 8.00003 10.9993C8.19878 10.9993 8.3894 10.9205 8.53003 10.78L12.03 7.28C12.1625 7.13783 12.2346 6.94978 12.2312 6.75548C12.2278 6.56118 12.1491 6.37579 12.0117 6.23838C11.8742 6.10097 11.6889 6.02225 11.4946 6.01883C11.3003 6.0154 11.1122 6.08752 10.97 6.22L8.75003 8.44V2.75Z" fill="currentColor"/>
<path d="M3.5 9.75C3.5 9.55109 3.42098 9.36032 3.28033 9.21967C3.13968 9.07902 2.94891 9 2.75 9C2.55109 9 2.36032 9.07902 2.21967 9.21967C2.07902 9.36032 2 9.55109 2 9.75V11.25C2 11.9793 2.28973 12.6788 2.80546 13.1945C3.32118 13.7103 4.02065 14 4.75 14H11.25C11.9793 14 12.6788 13.7103 13.1945 13.1945C13.7103 12.6788 14 11.9793 14 11.25V9.75C14 9.55109 13.921 9.36032 13.7803 9.21967C13.6397 9.07902 13.4489 9 13.25 9C13.0511 9 12.8603 9.07902 12.7197 9.21967C12.579 9.36032 12.5 9.55109 12.5 9.75V11.25C12.5 11.94 11.94 12.5 11.25 12.5H4.75C4.06 12.5 3.5 11.94 3.5 11.25V9.75Z" fill="black"/>
</svg>
