<svg width="14" height="14" viewBox="0 0 14 14" fill="none" xmlns="http://www.w3.org/2000/svg">
<path fill-rule="evenodd" clip-rule="evenodd" d="M14 7C14 8.85652 13.2625 10.637 11.9497 11.9497C10.637 13.2625 8.85652 14 7 14C5.14348 14 3.36301 13.2625 2.05025 11.9497C0.737498 10.637 0 8.85652 0 7C0 5.14348 0.737498 3.36301 2.05025 2.05025C3.36301 0.737498 5.14348 0 7 0C8.85652 0 10.637 0.737498 11.9497 2.05025C13.2625 3.36301 14 5.14348 14 7ZM5 7C5.552 7 6 6.328 6 5.5C6 4.672 5.552 4 5 4C4.448 4 4 4.672 4 5.5C4 6.328 4.448 7 5 7ZM10 5.5C10 6.328 9.552 7 9 7C8.448 7 8 6.328 8 5.5C8 4.672 8.448 4 9 4C9.552 4 10 4.672 10 5.5ZM10.005 9.745C9.86438 9.60455 9.67375 9.52566 9.475 9.52566C9.27625 9.52566 9.08562 9.60455 8.945 9.745C8.68962 10.0005 8.38641 10.2032 8.05268 10.3415C7.71895 10.4797 7.36124 10.5509 7 10.5509C6.63876 10.5509 6.28105 10.4797 5.94732 10.3415C5.61359 10.2032 5.31038 10.0005 5.055 9.745C4.91282 9.61252 4.72478 9.5404 4.53048 9.54383C4.33618 9.54725 4.15079 9.62597 4.01338 9.76338C3.87597 9.90079 3.79725 10.0862 3.79383 10.2805C3.7904 10.4748 3.86252 10.6628 3.995 10.805C4.79201 11.6019 5.87293 12.0496 7 12.0496C8.12707 12.0496 9.20799 11.6019 10.005 10.805C10.1455 10.6644 10.2243 10.4738 10.2243 10.275C10.2243 10.0762 10.1455 9.88562 10.005 9.745Z" fill=""/>
</svg>
