<svg width="20" height="20" viewBox="0 0 20 20" fill="none" xmlns="http://www.w3.org/2000/svg">
<path d="M3 4C2.46957 4 1.96086 4.21071 1.58579 4.58579C1.21071 4.96086 1 5.46957 1 6V7.161L9.441 11.382C9.61456 11.4688 9.80595 11.514 10 11.514C10.194 11.514 10.3854 11.4688 10.559 11.382L19 7.162V6C19 5.46957 18.7893 4.96086 18.4142 4.58579C18.0391 4.21071 17.5304 4 17 4H3Z" fill="black"/>
<path d="M19 8.83911L11.23 12.7241C10.8481 12.9151 10.427 13.0145 10 13.0145C9.57301 13.0145 9.1519 12.9151 8.77 12.7241L1 8.83911V14.0001C1 14.5305 1.21071 15.0393 1.58579 15.4143C1.96086 15.7894 2.46957 16.0001 3 16.0001H17C17.5304 16.0001 18.0391 15.7894 18.4142 15.4143C18.7893 15.0393 19 14.5305 19 14.0001V8.83911Z" fill="black"/>
</svg>
