<svg width="16" height="16" viewBox="0 0 16 16" fill="none" xmlns="http://www.w3.org/2000/svg">
<path d="M14 2C14 1.73478 13.8946 1.48043 13.7071 1.29289C13.5196 1.10536 13.2652 1 13 1H3C2.73478 1 2.48043 1.10536 2.29289 1.29289C2.10536 1.48043 2 1.73478 2 2V4.172C2.00011 4.70239 2.2109 5.21101 2.586 5.586L5.414 8.414C5.7891 8.78899 5.99989 9.29761 6 9.828V14.191C6 14.2763 6.02181 14.3601 6.06335 14.4346C6.10489 14.509 6.16478 14.5716 6.23733 14.6164C6.30988 14.6612 6.39268 14.6867 6.47786 14.6905C6.56304 14.6943 6.64777 14.6762 6.724 14.638L8.894 13.553C9.22647 13.3869 9.50606 13.1314 9.70142 12.8152C9.89678 12.499 10.0002 12.1347 10 11.763V9.829C10.0001 9.29861 10.2109 8.78999 10.586 8.415L13.414 5.587C13.5998 5.40121 13.7473 5.18061 13.8478 4.93781C13.9484 4.69502 14.0001 4.43479 14 4.172V2Z" fill="currentColor"/>
</svg>
