<svg width="16" height="16" viewBox="0 0 16 16" fill="none" xmlns="http://www.w3.org/2000/svg">
<path d="M9.04566 0.916504H5.01941V2.92932H9.04566V0.916504Z" fill="black"/>
<path d="M11.0579 8.46436H5.01941V10.9804H11.0579V8.46436Z" fill="black"/>
<path d="M2 2.42612V12.4902C2.00044 12.8905 2.15963 13.2742 2.44264 13.5572C2.72565 13.8402 3.10937 13.9994 3.50962 13.9998H12.5673C12.9675 13.9994 13.3513 13.8402 13.6343 13.5572C13.9173 13.2742 14.0765 12.8905 14.0769 12.4902V5.26451C14.0776 4.94987 13.9793 4.64299 13.7958 4.38734L11.7683 1.54895C11.6285 1.3535 11.4441 1.19418 11.2305 1.08419C11.0168 0.974207 10.78 0.916722 10.5397 0.916504H10.0513V2.92932C10.0509 3.19613 9.94479 3.45192 9.75613 3.64058C9.56747 3.82925 9.31168 3.93539 9.04487 3.93573H5.01923C4.75242 3.93539 4.49664 3.82925 4.30797 3.64058C4.11931 3.45192 4.01317 3.19613 4.01282 2.92932V0.916504H3.50962C3.10937 0.916941 2.72565 1.07613 2.44264 1.35914C2.15963 1.64216 2.00044 2.02588 2 2.42612ZM4.01282 7.96138C4.01278 7.89528 4.02577 7.82983 4.05105 7.76876C4.07632 7.70769 4.11339 7.65221 4.16012 7.60547C4.20686 7.55874 4.26234 7.52167 4.32341 7.4964C4.38448 7.47112 4.44993 7.45813 4.51603 7.45817H11.5609C11.627 7.45813 11.6924 7.47112 11.7535 7.4964C11.8146 7.52167 11.8701 7.55874 11.9168 7.60547C11.9635 7.65221 12.0006 7.70769 12.0259 7.76876C12.0512 7.82983 12.0641 7.89528 12.0641 7.96138V11.4838C12.0641 11.5499 12.0512 11.6154 12.0259 11.6764C12.0006 11.7375 11.9635 11.793 11.9168 11.8397C11.8701 11.8864 11.8146 11.9235 11.7535 11.9488C11.6924 11.9741 11.627 11.9871 11.5609 11.987H4.51603C4.44993 11.9871 4.38448 11.9741 4.32341 11.9488C4.26234 11.9235 4.20686 11.8864 4.16012 11.8397C4.11339 11.793 4.07632 11.7375 4.05105 11.6764C4.02577 11.6154 4.01278 11.5499 4.01282 11.4838V7.96138Z" fill="black"/>
</svg>
