<svg width="16" height="16" viewBox="0 0 16 16" fill="none" xmlns="http://www.w3.org/2000/svg">
<path fill-rule="evenodd" clip-rule="evenodd" d="M12.2407 2.00928C12.4396 2.00928 12.6303 2.08829 12.771 2.22895C12.9116 2.3696 12.9907 2.56036 12.9907 2.75928L12.9907 6.25928C12.9907 6.45819 12.9116 6.64895 12.771 6.78961C12.6303 6.93026 12.4396 7.00928 12.2407 7.00928C12.0417 7.00928 11.851 6.93026 11.7103 6.78961C11.5697 6.64895 11.4907 6.45819 11.4907 6.25928L11.4907 2.75928C11.4907 2.56036 11.5697 2.3696 11.7103 2.22895C11.851 2.08829 12.0417 2.00928 12.2407 2.00928ZM8.74066 2.00928C8.93957 2.00928 9.13034 2.08829 9.27099 2.22895C9.41164 2.3696 9.49066 2.56036 9.49066 2.75928L9.49066 6.25928C9.49066 6.45819 9.41164 6.64895 9.27099 6.78961C9.13034 6.93026 8.93957 7.00928 8.74066 7.00928C8.54175 7.00928 8.35098 6.93026 8.21033 6.78961C8.06968 6.64895 7.99066 6.45819 7.99066 6.25928L7.99066 2.75928C7.99066 2.56036 8.06968 2.3696 8.21033 2.22895C8.35098 2.08829 8.54175 2.00928 8.74066 2.00928ZM5.24066 2.00928C5.43957 2.00928 5.63034 2.08829 5.77099 2.22895C5.91164 2.3696 5.99066 2.56036 5.99066 2.75928L5.99066 6.25928C5.99066 6.45819 5.91164 6.64896 5.77099 6.78961C5.63034 6.93026 5.43957 7.00928 5.24066 7.00928C5.04175 7.00928 4.85098 6.93026 4.71033 6.78961C4.56968 6.64895 4.49066 6.45819 4.49066 6.25928L4.49066 2.75928C4.49066 2.56036 4.56968 2.3696 4.71033 2.22895C4.85098 2.08829 5.04175 2.00928 5.24066 2.00928ZM9.46066 9.22928C9.60129 9.08883 9.79191 9.00994 9.99066 9.00994C10.1894 9.00994 10.38 9.08883 10.5207 9.22928L12.7707 11.4793C12.9111 11.6199 12.99 11.8105 12.99 12.0093C12.99 12.208 12.9111 12.3987 12.7707 12.5393L10.5207 14.7893C10.3785 14.9218 10.1904 14.9939 9.99614 14.9905C9.80184 14.987 9.61645 14.9083 9.47904 14.7709C9.34163 14.6335 9.26291 14.4481 9.25949 14.2538C9.25606 14.0595 9.32818 13.8715 9.46066 13.7293L10.4307 12.7593L4.74066 12.7593C4.54175 12.7593 4.35098 12.6803 4.21033 12.5396C4.06968 12.399 3.99066 12.2082 3.99066 12.0093C3.99066 11.8104 4.06968 11.6196 4.21033 11.4789C4.35098 11.3383 4.54175 11.2593 4.74066 11.2593L10.4307 11.2593L9.46066 10.2893C9.32021 10.1487 9.24132 9.95803 9.24132 9.75928C9.24132 9.56053 9.32021 9.3699 9.46066 9.22928Z" fill="currentColor"/>
</svg>
