<svg width="16" height="16" viewBox="0 0 16 16" fill="none" xmlns="http://www.w3.org/2000/svg">
<path fill-rule="evenodd" clip-rule="evenodd" d="M12.5 9.75009C12.5 9.38896 12.4289 9.03136 12.2907 8.69771C12.1525 8.36407 11.9499 8.06091 11.6946 7.80555C11.4392 7.55019 11.136 7.34762 10.8024 7.20942C10.4687 7.07122 10.1111 7.00009 9.75001 7.00009H4.56001L6.78001 9.22009C6.8537 9.28875 6.9128 9.37155 6.95379 9.46355C6.99478 9.55555 7.01683 9.65487 7.0186 9.75557C7.02038 9.85627 7.00186 9.9563 6.96413 10.0497C6.92641 10.1431 6.87027 10.2279 6.79905 10.2991C6.72783 10.3703 6.643 10.4265 6.54961 10.4642C6.45622 10.5019 6.35619 10.5205 6.25549 10.5187C6.15479 10.5169 6.05547 10.4949 5.96347 10.4539C5.87147 10.4129 5.78867 10.3538 5.72001 10.2801L2.22001 6.78009C2.07956 6.63947 2.00067 6.44884 2.00067 6.25009C2.00067 6.05134 2.07956 5.86072 2.22001 5.72009L5.72001 2.22009C5.86219 2.08761 6.05023 2.01549 6.24453 2.01892C6.43884 2.02234 6.62422 2.10106 6.76163 2.23847C6.89905 2.37588 6.97776 2.56127 6.98119 2.75557C6.98461 2.94987 6.91249 3.13792 6.78001 3.28009L4.56001 5.50009H9.75001C10.8772 5.50009 11.9582 5.94786 12.7552 6.74489C13.5522 7.54192 14 8.62292 14 9.75009C14 10.8773 13.5522 11.9583 12.7552 12.7553C11.9582 13.5523 10.8772 14.0001 9.75001 14.0001H8.75001C8.5511 14.0001 8.36033 13.9211 8.21968 13.7804C8.07903 13.6398 8.00001 13.449 8.00001 13.2501C8.00001 13.0512 8.07903 12.8604 8.21968 12.7198C8.36033 12.5791 8.5511 12.5001 8.75001 12.5001H9.75001C10.1111 12.5001 10.4687 12.429 10.8024 12.2908C11.136 12.1526 11.4392 11.95 11.6946 11.6946C11.9499 11.4393 12.1525 11.1361 12.2907 10.8025C12.4289 10.4688 12.5 10.1112 12.5 9.75009Z" fill="currentColor"/>
</svg>
