<svg width="16" height="16" viewBox="0 0 16 16" fill="none" xmlns="http://www.w3.org/2000/svg">
<path fill-rule="evenodd" clip-rule="evenodd" d="M3.5 9.74991C3.5 9.02056 3.78973 8.32109 4.30546 7.80537C4.82118 7.28964 5.52065 6.99991 6.25 6.99991H11.44L9.22 9.21991C9.14631 9.28857 9.08721 9.37137 9.04622 9.46337C9.00523 9.55537 8.98318 9.65468 8.98141 9.75539C8.97963 9.85609 8.99816 9.95612 9.03588 10.0495C9.0736 10.1429 9.12974 10.2277 9.20096 10.2989C9.27218 10.3702 9.35701 10.4263 9.4504 10.464C9.54379 10.5018 9.64382 10.5203 9.74452 10.5185C9.84522 10.5167 9.94454 10.4947 10.0365 10.4537C10.1285 10.4127 10.2113 10.3536 10.28 10.2799L13.78 6.77991C13.9205 6.63928 13.9993 6.44866 13.9993 6.24991C13.9993 6.05116 13.9205 5.86053 13.78 5.71991L10.28 2.21991C10.2113 2.14622 10.1285 2.08712 10.0365 2.04613C9.94454 2.00514 9.84522 1.98309 9.74452 1.98132C9.64382 1.97954 9.54379 1.99807 9.4504 2.03579C9.35701 2.07351 9.27218 2.12965 9.20096 2.20087C9.12974 2.27209 9.0736 2.35692 9.03588 2.45031C8.99816 2.5437 8.97963 2.64373 8.98141 2.74443C8.98318 2.84513 9.00523 2.94445 9.04622 3.03645C9.08721 3.12845 9.14631 3.21125 9.22 3.27991L11.44 5.49991H6.25C5.12283 5.49991 4.04183 5.94768 3.2448 6.74471C2.44777 7.54174 2 8.62274 2 9.74991C2 10.8771 2.44777 11.9581 3.2448 12.7551C4.04183 13.5521 5.12283 13.9999 6.25 13.9999H7.25C7.44891 13.9999 7.63968 13.9209 7.78033 13.7802C7.92098 13.6396 8 13.4488 8 13.2499C8 13.051 7.92098 12.8602 7.78033 12.7196C7.63968 12.5789 7.44891 12.4999 7.25 12.4999H6.25C5.52065 12.4999 4.82118 12.2102 4.30546 11.6945C3.78973 11.1787 3.5 10.4793 3.5 9.74991Z" fill="black"/>
</svg>
