<svg width="214" height="115" viewBox="0 0 214 115" fill="none" xmlns="http://www.w3.org/2000/svg">
<rect x="0.644767" y="0.504386" width="212.851" height="110.965" rx="3.5307" fill="white" fill-opacity="0.5"/>
<rect x="0.644767" y="0.504386" width="212.851" height="110.965" rx="3.5307" stroke="#DAD1C5" stroke-width="1.00877"/>
<path fill-rule="evenodd" clip-rule="evenodd" d="M21.2136 18.3963C21.2845 18.4672 21.3242 18.5634 21.3242 18.6636C21.3242 18.7638 21.2845 18.86 21.2136 18.9309L19.8417 20.3029L21.2136 21.6748C21.2508 21.7094 21.2806 21.7512 21.3013 21.7976C21.3219 21.844 21.3331 21.8941 21.334 21.9449C21.3349 21.9957 21.3255 22.0461 21.3065 22.0932C21.2875 22.1403 21.2591 22.1831 21.2232 22.219C21.1873 22.255 21.1445 22.2833 21.0974 22.3023C21.0503 22.3213 20.9998 22.3307 20.9491 22.3298C20.8983 22.3289 20.8482 22.3178 20.8018 22.2971C20.7554 22.2764 20.7136 22.2466 20.679 22.2094L19.0397 20.5702C18.9689 20.4993 18.9291 20.4031 18.9291 20.3029C18.9291 20.2026 18.9689 20.1065 19.0397 20.0355L20.679 18.3963C20.7499 18.3254 20.846 18.2856 20.9463 18.2856C21.0465 18.2856 21.1427 18.3254 21.2136 18.3963Z" fill="black"/>
<path d="M26.9327 22.8027V17.6672H28.8134C29.1779 17.6672 29.4796 17.7274 29.7187 17.8477C29.9577 17.9664 30.1366 18.1277 30.2553 18.3317C30.374 18.534 30.4334 18.7622 30.4334 19.0163C30.4334 19.2302 30.3941 19.4108 30.3155 19.5579C30.2369 19.7033 30.1316 19.8204 29.9995 19.909C29.8691 19.9959 29.7254 20.0594 29.5682 20.0995V20.1497C29.7387 20.1581 29.9051 20.2132 30.0672 20.3152C30.2311 20.4155 30.3665 20.5584 30.4735 20.744C30.5805 20.9296 30.634 21.1552 30.634 21.421C30.634 21.6835 30.5721 21.9192 30.4484 22.1282C30.3264 22.3355 30.1375 22.5002 29.8817 22.6222C29.6259 22.7426 29.2991 22.8027 28.9012 22.8027H26.9327ZM27.7076 22.1382H28.826C29.1971 22.1382 29.4629 22.0663 29.6234 21.9226C29.7839 21.7788 29.8641 21.5991 29.8641 21.3834C29.8641 21.2213 29.8232 21.0725 29.7413 20.9371C29.6593 20.8017 29.5423 20.6938 29.3902 20.6136C29.2397 20.5334 29.0609 20.4932 28.8536 20.4932H27.7076V22.1382ZM27.7076 19.8889H28.7457C28.9196 19.8889 29.0759 19.8555 29.2147 19.7886C29.3551 19.7217 29.4663 19.6281 29.5482 19.5077C29.6318 19.3857 29.6735 19.2419 29.6735 19.0764C29.6735 18.8641 29.5992 18.6861 29.4504 18.5423C29.3016 18.3986 29.0734 18.3267 28.7658 18.3267H27.7076V19.8889ZM32.6137 22.888C32.3696 22.888 32.149 22.8429 31.9517 22.7526C31.7544 22.6606 31.5981 22.5277 31.4828 22.3539C31.3691 22.18 31.3123 21.9669 31.3123 21.7144C31.3123 21.4971 31.3541 21.3182 31.4376 21.1778C31.5212 21.0374 31.6341 20.9262 31.7762 20.8443C31.9183 20.7624 32.0771 20.7005 32.2526 20.6587C32.4281 20.6169 32.607 20.5852 32.7892 20.5634C33.0199 20.5367 33.2072 20.515 33.3509 20.4982C33.4947 20.4799 33.5992 20.4506 33.6644 20.4105C33.7296 20.3704 33.7622 20.3052 33.7622 20.2149V20.1973C33.7622 19.9783 33.7003 19.8087 33.5766 19.6883C33.4546 19.5679 33.2724 19.5077 33.03 19.5077C32.7775 19.5077 32.5786 19.5638 32.4332 19.6758C32.2894 19.7861 32.1899 19.909 32.1348 20.0444L31.4301 19.8839C31.5137 19.6498 31.6357 19.4609 31.7962 19.3172C31.9584 19.1717 32.1448 19.0664 32.3554 19.0012C32.5661 18.9343 32.7876 18.9009 33.0199 18.9009C33.1737 18.9009 33.3367 18.9193 33.5089 18.9561C33.6828 18.9912 33.8449 19.0564 33.9954 19.1517C34.1475 19.247 34.2721 19.3832 34.369 19.5604C34.466 19.7359 34.5145 19.9641 34.5145 20.245V22.8027H33.7823V22.2761H33.7522C33.7037 22.3731 33.631 22.4684 33.534 22.562C33.437 22.6556 33.3125 22.7334 33.1604 22.7952C33.0082 22.8571 32.826 22.888 32.6137 22.888ZM32.7767 22.2862C32.984 22.2862 33.1612 22.2452 33.3083 22.1633C33.4571 22.0814 33.5699 21.9744 33.6468 21.8423C33.7254 21.7086 33.7647 21.5657 33.7647 21.4135V20.917C33.738 20.9438 33.6861 20.9688 33.6092 20.9922C33.534 21.014 33.4479 21.0332 33.3509 21.0499C33.254 21.065 33.1595 21.0792 33.0676 21.0926C32.9756 21.1043 32.8987 21.1143 32.8369 21.1226C32.6914 21.141 32.5585 21.172 32.4382 21.2154C32.3195 21.2589 32.2242 21.3216 32.1523 21.4035C32.0821 21.4837 32.047 21.5907 32.047 21.7245C32.047 21.91 32.1155 22.0505 32.2526 22.1457C32.3897 22.2394 32.5644 22.2862 32.7767 22.2862ZM37.1355 22.8805C36.7627 22.8805 36.4418 22.796 36.1726 22.6272C35.9051 22.4567 35.6995 22.2218 35.5558 21.9226C35.412 21.6233 35.3401 21.2806 35.3401 20.8945C35.3401 20.5033 35.4137 20.1581 35.5608 19.8588C35.7079 19.5579 35.9152 19.323 36.1827 19.1542C36.4501 18.9853 36.7653 18.9009 37.128 18.9009C37.4206 18.9009 37.6814 18.9552 37.9104 19.0639C38.1394 19.1709 38.3241 19.3213 38.4646 19.5153C38.6067 19.7092 38.6911 19.9357 38.7178 20.1948H37.9881C37.948 20.0143 37.8561 19.8588 37.7123 19.7284C37.5702 19.598 37.3796 19.5328 37.1406 19.5328C36.9316 19.5328 36.7485 19.588 36.5914 19.6983C36.4359 19.807 36.3147 19.9625 36.2278 20.1647C36.1409 20.3653 36.0974 20.6027 36.0974 20.8769C36.0974 21.1577 36.14 21.4001 36.2253 21.6041C36.3105 21.8081 36.4309 21.966 36.5864 22.078C36.7435 22.19 36.9282 22.246 37.1406 22.246C37.2827 22.246 37.4114 22.2201 37.5267 22.1683C37.6437 22.1148 37.7415 22.0388 37.8201 21.9401C37.9004 21.8415 37.9564 21.7228 37.9881 21.584H38.7178C38.6911 21.8331 38.61 22.0555 38.4746 22.2511C38.3392 22.4467 38.1578 22.6005 37.9305 22.7125C37.7048 22.8245 37.4398 22.8805 37.1355 22.8805ZM40.2092 21.4963L40.2042 20.581H40.3346L41.8693 18.9511H42.767L41.0167 20.8067H40.8988L40.2092 21.4963ZM39.5196 22.8027V17.6672H40.2694V22.8027H39.5196ZM41.952 22.8027L40.5728 20.9722L41.0894 20.4481L42.8723 22.8027H41.952Z" fill="black"/>
<path d="M37.8484 37.6723L36.428 38.1566L36.6701 37.8015V46.6302L36.428 46.2913L37.8484 46.7109V47.873H33.1677V46.7109L34.5719 46.3074L34.3621 46.6302V37.8015L34.6526 38.1566L33.1677 37.753V36.5909L37.8484 36.5102V37.6723ZM47.2147 40.5615L46.8919 40.6422C47.4084 40.1149 47.9571 39.7222 48.5382 39.4639C49.1193 39.1949 49.6734 39.0604 50.2007 39.0604C50.8786 39.0604 51.4435 39.2864 51.8954 39.7383C52.3581 40.1795 52.5894 40.8628 52.5894 41.7881V46.6464L52.3796 46.3236L53.6708 46.7109V47.873H49.4259V46.7109L50.6042 46.3559L50.3298 46.6948V42.2885C50.3298 41.772 50.2222 41.39 50.007 41.1425C49.8025 40.895 49.5335 40.7713 49.2 40.7713C48.9202 40.7713 48.6081 40.8574 48.2638 41.0295C47.9195 41.2017 47.5752 41.4546 47.2308 41.7881L47.3922 41.2878C47.4138 41.3739 47.4245 41.4546 47.4245 41.5299C47.4245 41.5945 47.4245 41.6536 47.4245 41.7074V46.6464L47.2147 46.3236L48.3445 46.7109V47.873H44.2449V46.7109L45.4231 46.3559L45.1649 46.6948V42.2885C45.1649 41.772 45.0573 41.39 44.8421 41.1425C44.6269 40.895 44.3579 40.7713 44.035 40.7713C43.7553 40.7713 43.4432 40.852 43.0989 41.0134C42.7546 41.1748 42.421 41.4169 42.0982 41.7397L42.2435 41.4008V46.6948L42.0336 46.3559L43.1635 46.7109V47.873H38.9024V46.7109L40.2582 46.3236L39.9838 46.6464V40.4969L40.2582 40.8681L38.9024 40.4646V39.3025L41.7431 39.1734L42.0336 40.7229L41.7431 40.6099C42.2488 40.1042 42.7869 39.7222 43.3571 39.4639C43.9382 39.1949 44.4924 39.0604 45.0196 39.0604C45.5146 39.0604 45.9557 39.1842 46.3431 39.4316C46.7305 39.6684 47.021 40.045 47.2147 40.5615ZM54.1567 51.5853V50.4232L55.5286 49.9713L55.2381 50.3587V40.5615L55.4963 40.8681L54.1567 40.4646V39.3025L56.9974 39.1734L57.2556 40.5776L56.9974 40.4485C57.5031 39.9966 57.9927 39.6522 58.4662 39.4155C58.9504 39.1788 59.4507 39.0604 59.9672 39.0604C60.5913 39.0604 61.1401 39.2272 61.6135 39.5608C62.087 39.8836 62.4582 40.3678 62.7272 41.0134C63.007 41.6483 63.1469 42.4284 63.1469 43.3537C63.1469 44.3975 62.9693 45.2691 62.6142 45.9685C62.2591 46.6679 61.7588 47.1952 61.1132 47.5502C60.4783 47.8946 59.7359 48.0667 58.8858 48.0667C58.6276 48.0667 58.3586 48.0452 58.0788 48.0022C57.799 47.9699 57.5085 47.9215 57.2072 47.8569L57.4977 47.5987V50.3587L57.2556 50.0197L58.7567 50.4232V51.5853H54.1567ZM58.5953 46.4688C59.3593 46.4688 59.9134 46.2106 60.2577 45.6941C60.6128 45.1776 60.7904 44.4728 60.7904 43.5797C60.7904 42.9879 60.7204 42.4822 60.5805 42.0625C60.4407 41.6321 60.247 41.3039 59.9995 41.078C59.752 40.8412 59.4453 40.7229 59.0795 40.7229C58.7997 40.7229 58.5038 40.7982 58.1918 40.9488C57.8797 41.0995 57.5569 41.3308 57.2233 41.6429L57.4977 41.0457V46.6787L57.2233 46.2429C57.7291 46.3935 58.1864 46.4688 58.5953 46.4688ZM68.4312 39.0604C69.7009 39.0604 70.6908 39.437 71.401 40.1902C72.1112 40.9435 72.4663 42.0141 72.4663 43.4022C72.4663 44.3706 72.2941 45.2045 71.9498 45.9039C71.6055 46.5926 71.1105 47.1252 70.4649 47.5018C69.8193 47.8784 69.0445 48.0667 68.1407 48.0667C66.871 48.0667 65.8864 47.6901 65.187 46.9369C64.4983 46.1837 64.154 45.113 64.154 43.725C64.154 42.7566 64.3208 41.928 64.6543 41.2394C64.9987 40.5399 65.4883 40.0019 66.1231 39.6253C66.758 39.2487 67.5273 39.0604 68.4312 39.0604ZM68.3182 40.6745C67.7049 40.6745 67.2476 40.9166 66.9463 41.4008C66.645 41.8742 66.4943 42.6113 66.4943 43.612C66.4943 44.6127 66.6396 45.339 66.9301 45.7909C67.2207 46.2321 67.6618 46.4527 68.2536 46.4527C68.6841 46.4527 69.0338 46.3451 69.3028 46.1299C69.5718 45.9147 69.7762 45.5865 69.9161 45.1453C70.056 44.7042 70.1259 44.1608 70.1259 43.5152C70.1259 42.536 69.9753 41.8204 69.674 41.3685C69.3727 40.9058 68.9208 40.6745 68.3182 40.6745ZM73.4371 47.873V46.7109L74.7445 46.3397L74.5185 46.6787V40.4808L74.7767 40.8681L73.4371 40.4646V39.3025L76.2778 39.1734L76.5683 40.7067L76.2778 40.6422C76.762 40.1364 77.2408 39.7491 77.7143 39.4801C78.1877 39.2003 78.6935 39.0604 79.2315 39.0604C79.5758 39.0604 79.9416 39.1142 80.329 39.2218L80.1838 42.1594H78.8602L78.6343 40.4646L78.8441 40.9004C78.7795 40.8789 78.7096 40.8628 78.6343 40.852C78.5697 40.8412 78.5052 40.8359 78.4406 40.8359C78.107 40.8359 77.7735 40.9381 77.4399 41.1425C77.1171 41.347 76.8373 41.6106 76.6006 41.9334L76.7781 41.3201V46.6787L76.5199 46.3397L78.1178 46.7109V47.873H73.4371ZM84.166 48.0667C83.4236 48.0667 82.8586 47.8461 82.4713 47.405C82.0947 46.953 81.9064 46.2859 81.9064 45.4036V40.4646L82.1969 40.7552H80.6474V39.5446L82.2292 39.1734L81.9064 39.5608V37.3657L84.1821 36.9622V39.5608L83.94 39.2541H86.3934L86.3611 40.7552H83.94L84.1821 40.4646V45.0969C84.1821 45.5596 84.2575 45.8932 84.4081 46.0976C84.5588 46.3021 84.7847 46.4043 85.086 46.4043C85.2582 46.4043 85.4465 46.3774 85.6509 46.3236C85.8661 46.259 86.0975 46.1783 86.345 46.0815L86.7646 47.3243C85.8607 47.8192 84.9945 48.0667 84.166 48.0667ZM92.966 39.3671C92.966 39.6791 93.0736 39.9374 93.2888 40.1418C93.504 40.3463 93.7838 40.5238 94.1281 40.6745C94.4725 40.8143 94.8545 40.9542 95.2741 41.0941C95.6938 41.2232 96.108 41.3739 96.5169 41.546C96.9258 41.7074 97.3024 41.9173 97.6467 42.1755C98.0018 42.423 98.2816 42.7404 98.486 43.1278C98.7012 43.5152 98.8088 43.9994 98.8088 44.5804C98.8088 45.3767 98.599 46.033 98.1794 46.5495C97.7705 47.066 97.2217 47.4534 96.5331 47.7116C95.8444 47.9591 95.0804 48.0829 94.2411 48.0829C93.6708 48.0829 93.0844 48.0237 92.4818 47.9053C91.89 47.7977 91.3036 47.6309 90.7225 47.405L90.8032 44.3383H92.1429L92.4818 46.2913L92.272 45.9039C92.5948 46.0546 92.9338 46.1729 93.2888 46.259C93.6547 46.3343 94.0098 46.372 94.3541 46.372C94.7522 46.372 95.1181 46.3182 95.4516 46.2106C95.7852 46.103 96.0488 45.9362 96.2425 45.7102C96.4362 45.4843 96.5331 45.2045 96.5331 44.8709C96.5331 44.5374 96.4308 44.263 96.2264 44.0478C96.0219 43.8326 95.7422 43.655 95.3871 43.5152C95.0428 43.3645 94.6662 43.23 94.2573 43.1116C93.8484 42.9825 93.4341 42.8373 93.0145 42.6759C92.6056 42.5145 92.2236 42.31 91.8685 42.0625C91.5242 41.815 91.2498 41.503 91.0453 41.1264C90.8409 40.739 90.7387 40.2548 90.7387 39.6737C90.7387 38.9098 90.9216 38.2857 91.2874 37.8015C91.6533 37.3065 92.1483 36.9353 92.7723 36.6878C93.3964 36.4403 94.1012 36.3166 94.8867 36.3166C95.4463 36.3166 96.0273 36.3757 96.6299 36.4941C97.2325 36.6125 97.835 36.79 98.4376 37.0267L98.2601 39.8513H96.8881L96.5492 38.092L96.8074 38.3502C96.5384 38.2426 96.2479 38.1619 95.9359 38.1081C95.6346 38.0436 95.3279 38.0113 95.0159 38.0113C94.65 38.0113 94.3111 38.0597 93.999 38.1566C93.687 38.2426 93.4341 38.3879 93.2404 38.5923C93.0575 38.786 92.966 39.0443 92.966 39.3671ZM103.068 48.0667C102.358 48.0667 101.761 47.8354 101.277 47.3727C100.792 46.8992 100.55 46.1891 100.55 45.2422V40.5292L100.76 40.852L99.4688 40.4646V39.3025L102.81 39.1895V44.8709C102.81 45.3767 102.923 45.7533 103.149 46.0008C103.375 46.2375 103.676 46.3559 104.053 46.3559C104.343 46.3559 104.661 46.2805 105.005 46.1299C105.349 45.9685 105.694 45.721 106.038 45.3874L105.893 45.7909V40.4808L106.103 40.852L104.811 40.4646V39.3025L108.152 39.1895V46.6787L107.878 46.2913L109.218 46.7109V47.8569L106.393 47.986L106.086 46.4043L106.393 46.5173C105.866 47.0337 105.312 47.4211 104.731 47.6794C104.15 47.9376 103.595 48.0667 103.068 48.0667ZM113.524 48.0667C113.105 48.0667 112.653 48.0398 112.169 47.986C111.684 47.9322 111.163 47.8515 110.603 47.7439V36.4134L110.958 37.0267L109.522 36.6071V35.445L112.863 35.3159V40.6422L112.588 40.3032C112.976 39.9159 113.401 39.6146 113.863 39.3994C114.326 39.1734 114.816 39.0604 115.332 39.0604C115.956 39.0604 116.505 39.2272 116.978 39.5608C117.452 39.8836 117.823 40.3678 118.092 41.0134C118.372 41.659 118.512 42.4553 118.512 43.4022C118.512 44.0801 118.426 44.7042 118.254 45.2745C118.092 45.834 117.818 46.3236 117.43 46.7432C117.054 47.1629 116.543 47.4911 115.897 47.7278C115.262 47.9537 114.471 48.0667 113.524 48.0667ZM113.928 46.4527C114.703 46.4527 115.268 46.1998 115.623 45.6941C115.978 45.1884 116.155 44.4836 116.155 43.5797C116.155 42.9879 116.085 42.4822 115.945 42.0625C115.806 41.6321 115.612 41.3039 115.364 41.078C115.117 40.8412 114.81 40.7229 114.444 40.7229C114.165 40.7229 113.869 40.7982 113.557 40.9488C113.245 41.0995 112.922 41.3308 112.588 41.6429L112.863 40.9488V46.8078L112.588 46.259C113.094 46.3881 113.541 46.4527 113.928 46.4527ZM121.964 41.433C121.964 41.6805 122.071 41.8796 122.286 42.0302C122.502 42.1809 122.776 42.31 123.11 42.4176C123.454 42.5252 123.814 42.6382 124.191 42.7566C124.578 42.8749 124.939 43.0309 125.272 43.2246C125.617 43.4075 125.897 43.655 126.112 43.9671C126.327 44.2791 126.435 44.6826 126.435 45.1776C126.435 45.8125 126.262 46.3451 125.918 46.7755C125.574 47.2059 125.106 47.5287 124.514 47.7439C123.922 47.9591 123.255 48.0667 122.512 48.0667C122.082 48.0667 121.625 48.0291 121.141 47.9537C120.667 47.8784 120.177 47.7762 119.672 47.6471L119.769 45.2099H121.189L121.366 46.6302L121.173 46.3559C121.388 46.4204 121.625 46.4742 121.883 46.5173C122.141 46.5495 122.367 46.5657 122.561 46.5657C122.841 46.5657 123.099 46.528 123.336 46.4527C123.583 46.3774 123.782 46.2698 123.933 46.1299C124.094 45.9792 124.175 45.7909 124.175 45.565C124.175 45.3067 124.067 45.1023 123.852 44.9516C123.637 44.801 123.357 44.6719 123.013 44.5643C122.679 44.4567 122.324 44.3437 121.948 44.2253C121.582 44.107 121.227 43.9509 120.882 43.7573C120.549 43.5636 120.274 43.3053 120.059 42.9825C119.844 42.6597 119.736 42.2401 119.736 41.7236C119.736 41.0995 119.892 40.5937 120.204 40.2064C120.516 39.8083 120.931 39.5177 121.447 39.3348C121.974 39.1519 122.55 39.0604 123.174 39.0604C123.615 39.0604 124.083 39.1035 124.578 39.1895C125.073 39.2649 125.579 39.3778 126.096 39.5285L126.015 41.6913H124.578L124.32 40.4162L124.627 40.7552C124.121 40.6153 123.675 40.5453 123.287 40.5453C122.889 40.5453 122.566 40.626 122.319 40.7874C122.082 40.9381 121.964 41.1533 121.964 41.433ZM131.376 48.0667C130.634 48.0667 129.961 47.8946 129.359 47.5502C128.767 47.1952 128.299 46.6894 127.954 46.033C127.61 45.3767 127.438 44.5804 127.438 43.6443C127.438 42.7942 127.562 42.0787 127.809 41.4976C128.057 40.9166 128.39 40.4485 128.81 40.0934C129.229 39.7275 129.698 39.4639 130.214 39.3025C130.731 39.1411 131.263 39.0604 131.812 39.0604C132.328 39.0604 132.85 39.125 133.378 39.2541C133.905 39.3832 134.335 39.5285 134.669 39.6899L134.604 42.0625H133.152L132.909 40.739L133.087 40.8681C132.926 40.8036 132.727 40.7552 132.49 40.7229C132.264 40.6906 132.054 40.6745 131.86 40.6745C131.398 40.6745 131.01 40.7928 130.698 41.0295C130.397 41.2555 130.171 41.5837 130.02 42.0141C129.87 42.4337 129.794 42.9341 129.794 43.5152C129.794 44.1392 129.88 44.6665 130.053 45.0969C130.225 45.5273 130.467 45.8555 130.779 46.0815C131.102 46.2967 131.473 46.4043 131.893 46.4043C132.226 46.4043 132.592 46.3343 132.99 46.1945C133.388 46.0546 133.803 45.8447 134.233 45.565L134.992 46.7109C134.389 47.1736 133.786 47.518 133.184 47.7439C132.581 47.9591 131.979 48.0667 131.376 48.0667ZM135.571 47.873V46.7109L136.878 46.3397L136.653 46.6787V40.4808L136.911 40.8681L135.571 40.4646V39.3025L138.412 39.1734L138.702 40.7067L138.412 40.6422C138.896 40.1364 139.375 39.7491 139.848 39.4801C140.322 39.2003 140.828 39.0604 141.366 39.0604C141.71 39.0604 142.076 39.1142 142.463 39.2218L142.318 42.1594H140.994L140.768 40.4646L140.978 40.9004C140.914 40.8789 140.844 40.8628 140.768 40.852C140.704 40.8412 140.639 40.8359 140.575 40.8359C140.241 40.8359 139.908 40.9381 139.574 41.1425C139.251 41.347 138.971 41.6106 138.735 41.9334L138.912 41.3201V46.6787L138.654 46.3397L140.252 46.7109V47.873H135.571ZM146.399 46.5495L146.238 46.3559L147.481 46.7109V47.873H143.058V46.7109L144.301 46.3559L144.14 46.5495V40.6583L144.285 40.8036L143.058 40.4646V39.3025L146.399 39.1895V46.5495ZM145.205 37.9306C144.807 37.9306 144.484 37.8176 144.236 37.5916C144 37.3657 143.881 37.0429 143.881 36.6232C143.881 36.1713 144.005 35.8377 144.252 35.6225C144.511 35.3966 144.834 35.2836 145.221 35.2836C145.598 35.2836 145.91 35.3966 146.157 35.6225C146.405 35.8377 146.528 36.1659 146.528 36.6071C146.528 37.0483 146.399 37.3818 146.141 37.6078C145.893 37.823 145.581 37.9306 145.205 37.9306ZM151.858 48.0667C151.438 48.0667 150.986 48.0398 150.502 47.986C150.018 47.9322 149.496 47.8515 148.936 47.7439V36.4134L149.291 37.0267L147.855 36.6071V35.445L151.196 35.3159V40.6422L150.922 40.3032C151.309 39.9159 151.734 39.6146 152.197 39.3994C152.659 39.1734 153.149 39.0604 153.665 39.0604C154.29 39.0604 154.838 39.2272 155.312 39.5608C155.785 39.8836 156.156 40.3678 156.425 41.0134C156.705 41.659 156.845 42.4553 156.845 43.4022C156.845 44.0801 156.759 44.7042 156.587 45.2745C156.425 45.834 156.151 46.3236 155.764 46.7432C155.387 47.1629 154.876 47.4911 154.23 47.7278C153.596 47.9537 152.805 48.0667 151.858 48.0667ZM152.261 46.4527C153.036 46.4527 153.601 46.1998 153.956 45.6941C154.311 45.1884 154.489 44.4836 154.489 43.5797C154.489 42.9879 154.419 42.4822 154.279 42.0625C154.139 41.6321 153.945 41.3039 153.698 41.078C153.45 40.8412 153.144 40.7229 152.778 40.7229C152.498 40.7229 152.202 40.7982 151.89 40.9488C151.578 41.0995 151.255 41.3308 150.922 41.6429L151.196 40.9488V46.8078L150.922 46.259C151.427 46.3881 151.874 46.4527 152.261 46.4527ZM161.782 48.0667C160.996 48.0667 160.308 47.9053 159.716 47.5825C159.124 47.249 158.661 46.7594 158.328 46.1137C158.005 45.4574 157.844 44.6611 157.844 43.725C157.844 42.7566 158.016 41.928 158.36 41.2394C158.715 40.5399 159.21 40.0019 159.845 39.6253C160.48 39.2487 161.228 39.0604 162.089 39.0604C162.928 39.0604 163.611 39.2272 164.138 39.5608C164.666 39.8943 165.053 40.3516 165.301 40.9327C165.548 41.503 165.672 42.1486 165.672 42.8695C165.672 43.0525 165.661 43.2354 165.639 43.4183C165.629 43.6012 165.607 43.7949 165.575 43.9994H159.668V42.6597H163.638L163.348 42.8695C163.358 42.4391 163.315 42.0625 163.218 41.7397C163.132 41.4061 162.982 41.1479 162.766 40.965C162.562 40.7821 162.277 40.6906 161.911 40.6906C161.491 40.6906 161.152 40.8143 160.894 41.0618C160.636 41.2985 160.448 41.6214 160.329 42.0302C160.222 42.4391 160.168 42.8964 160.168 43.4022C160.168 43.9725 160.238 44.4836 160.378 44.9355C160.518 45.3874 160.744 45.7425 161.056 46.0008C161.378 46.259 161.798 46.3881 162.315 46.3881C162.68 46.3881 163.073 46.3236 163.493 46.1945C163.923 46.0546 164.37 45.8501 164.832 45.5811L165.591 46.7916C164.967 47.2221 164.327 47.5449 163.67 47.7601C163.025 47.9645 162.395 48.0667 161.782 48.0667ZM166.67 47.873V46.7109L167.977 46.3397L167.751 46.6787V40.4808L168.009 40.8681L166.67 40.4646V39.3025L169.51 39.1734L169.801 40.7067L169.51 40.6422C169.995 40.1364 170.473 39.7491 170.947 39.4801C171.42 39.2003 171.926 39.0604 172.464 39.0604C172.808 39.0604 173.174 39.1142 173.562 39.2218L173.416 42.1594H172.093L171.867 40.4646L172.077 40.9004C172.012 40.8789 171.942 40.8628 171.867 40.852C171.802 40.8412 171.738 40.8359 171.673 40.8359C171.34 40.8359 171.006 40.9381 170.672 41.1425C170.35 41.347 170.07 41.6106 169.833 41.9334L170.011 41.3201V46.6787L169.752 46.3397L171.35 46.7109V47.873H166.67ZM176.548 41.433C176.548 41.6805 176.655 41.8796 176.871 42.0302C177.086 42.1809 177.36 42.31 177.694 42.4176C178.038 42.5252 178.398 42.6382 178.775 42.7566C179.162 42.8749 179.523 43.0309 179.856 43.2246C180.201 43.4075 180.481 43.655 180.696 43.9671C180.911 44.2791 181.019 44.6826 181.019 45.1776C181.019 45.8125 180.846 46.3451 180.502 46.7755C180.158 47.2059 179.69 47.5287 179.098 47.7439C178.506 47.9591 177.839 48.0667 177.096 48.0667C176.666 48.0667 176.209 48.0291 175.725 47.9537C175.251 47.8784 174.762 47.7762 174.256 47.6471L174.353 45.2099H175.773L175.951 46.6302L175.757 46.3559C175.972 46.4204 176.209 46.4742 176.467 46.5173C176.725 46.5495 176.951 46.5657 177.145 46.5657C177.425 46.5657 177.683 46.528 177.92 46.4527C178.167 46.3774 178.366 46.2698 178.517 46.1299C178.678 45.9792 178.759 45.7909 178.759 45.565C178.759 45.3067 178.651 45.1023 178.436 44.9516C178.221 44.801 177.941 44.6719 177.597 44.5643C177.263 44.4567 176.908 44.3437 176.532 44.2253C176.166 44.107 175.811 43.9509 175.466 43.7573C175.133 43.5636 174.858 43.3053 174.643 42.9825C174.428 42.6597 174.32 42.2401 174.32 41.7236C174.32 41.0995 174.476 40.5937 174.788 40.2064C175.1 39.8083 175.515 39.5177 176.031 39.3348C176.558 39.1519 177.134 39.0604 177.758 39.0604C178.199 39.0604 178.667 39.1035 179.162 39.1895C179.657 39.2649 180.163 39.3778 180.68 39.5285L180.599 41.6913H179.162L178.904 40.4162L179.211 40.7552C178.705 40.6153 178.259 40.5453 177.871 40.5453C177.473 40.5453 177.15 40.626 176.903 40.7874C176.666 40.9381 176.548 41.1533 176.548 41.433Z" fill="#100F1C"/>
<path d="M63.6005 56.0214V61.8906H62.715V56.0214H63.6005ZM64.8214 61.8906V57.4887H65.6439V58.2052H65.6983C65.79 57.9625 65.94 57.7734 66.1483 57.6377C66.3565 57.5002 66.6058 57.4314 66.8962 57.4314C67.1905 57.4314 67.4369 57.5002 67.6356 57.6377C67.8362 57.7753 67.9843 57.9644 68.0798 58.2052H68.1257C68.2308 57.9702 68.3979 57.7829 68.6272 57.6435C68.8565 57.5021 69.1297 57.4314 69.4468 57.4314C69.8461 57.4314 70.1719 57.5565 70.4241 57.8068C70.6782 58.0571 70.8052 58.4344 70.8052 58.9388V61.8906H69.9484V59.0191C69.9484 58.721 69.8672 58.5051 69.7048 58.3714C69.5424 58.2376 69.3484 58.1708 69.123 58.1708C68.8441 58.1708 68.6272 58.2568 68.4725 58.4287C68.3177 58.5987 68.2403 58.8175 68.2403 59.085V61.8906H67.3863V58.9646C67.3863 58.7258 67.3118 58.5338 67.1628 58.3886C67.0137 58.2434 66.8198 58.1708 66.581 58.1708C66.4186 58.1708 66.2686 58.2138 66.1311 58.2997C65.9954 58.3838 65.8856 58.5013 65.8015 58.6522C65.7193 58.8032 65.6783 58.978 65.6783 59.1767V61.8906H64.8214ZM71.9537 63.5413V57.4887H72.7905V58.2023H72.8622C72.9119 58.1106 72.9835 58.0046 73.0771 57.8842C73.1707 57.7638 73.3007 57.6588 73.4669 57.569C73.6331 57.4772 73.8528 57.4314 74.126 57.4314C74.4814 57.4314 74.7985 57.5212 75.0775 57.7008C75.3564 57.8804 75.5752 58.1393 75.7337 58.4774C75.8942 58.8156 75.9745 59.2225 75.9745 59.6983C75.9745 60.174 75.8952 60.5819 75.7366 60.922C75.578 61.2601 75.3602 61.5209 75.0832 61.7043C74.8062 61.8858 74.49 61.9766 74.1346 61.9766C73.8671 61.9766 73.6484 61.9317 73.4783 61.8419C73.3102 61.7521 73.1784 61.647 73.0829 61.5267C72.9873 61.4063 72.9138 61.2993 72.8622 61.2057H72.8106V63.5413H71.9537ZM72.7934 59.6897C72.7934 59.9992 72.8383 60.2705 72.9281 60.5036C73.0179 60.7367 73.1478 60.9191 73.3179 61.0509C73.4879 61.1809 73.6961 61.2458 73.9426 61.2458C74.1986 61.2458 74.4126 61.178 74.5846 61.0423C74.7565 60.9048 74.8864 60.7185 74.9743 60.4835C75.0641 60.2485 75.109 59.9839 75.109 59.6897C75.109 59.3993 75.0651 59.1385 74.9772 58.9073C74.8912 58.6761 74.7613 58.4937 74.5874 58.3599C74.4155 58.2262 74.2005 58.1593 73.9426 58.1593C73.6942 58.1593 73.4841 58.2233 73.3121 58.3513C73.1421 58.4793 73.0131 58.658 72.9252 58.8872C72.8373 59.1165 72.7934 59.384 72.7934 59.6897ZM78.7887 61.9795C78.376 61.9795 78.0159 61.8849 77.7083 61.6957C77.4007 61.5066 77.1619 61.242 76.9918 60.9019C76.8218 60.5618 76.7368 60.1644 76.7368 59.7097C76.7368 59.2531 76.8218 58.8538 76.9918 58.5118C77.1619 58.1698 77.4007 57.9043 77.7083 57.7151C78.0159 57.526 78.376 57.4314 78.7887 57.4314C79.2014 57.4314 79.5615 57.526 79.8691 57.7151C80.1767 57.9043 80.4156 58.1698 80.5856 58.5118C80.7556 58.8538 80.8407 59.2531 80.8407 59.7097C80.8407 60.1644 80.7556 60.5618 80.5856 60.9019C80.4156 61.242 80.1767 61.5066 79.8691 61.6957C79.5615 61.8849 79.2014 61.9795 78.7887 61.9795ZM78.7916 61.2601C79.0591 61.2601 79.2807 61.1895 79.4565 61.0481C79.6322 60.9067 79.7621 60.7185 79.8462 60.4835C79.9322 60.2485 79.9752 59.9896 79.9752 59.7069C79.9752 59.426 79.9322 59.1681 79.8462 58.9331C79.7621 58.6962 79.6322 58.5061 79.4565 58.3628C79.2807 58.2195 79.0591 58.1479 78.7916 58.1479C78.5222 58.1479 78.2987 58.2195 78.121 58.3628C77.9452 58.5061 77.8143 58.6962 77.7284 58.9331C77.6443 59.1681 77.6023 59.426 77.6023 59.7069C77.6023 59.9896 77.6443 60.2485 77.7284 60.4835C77.8143 60.7185 77.9452 60.9067 78.121 61.0481C78.2987 61.1895 78.5222 61.2601 78.7916 61.2601ZM81.7971 61.8906V57.4887H82.6254V58.188H82.6712C82.7514 57.9511 82.8928 57.7648 83.0953 57.6291C83.2998 57.4916 83.531 57.4228 83.7889 57.4228C83.8424 57.4228 83.9054 57.4247 83.978 57.4285C84.0525 57.4323 84.1108 57.4371 84.1528 57.4429V58.2625C84.1184 58.2529 84.0573 58.2424 83.9694 58.231C83.8815 58.2176 83.7937 58.2109 83.7058 58.2109C83.5032 58.2109 83.3227 58.2539 83.1641 58.3399C83.0075 58.4239 82.8833 58.5414 82.7916 58.6924C82.6999 58.8414 82.654 59.0114 82.654 59.2025V61.8906H81.7971ZM87.2092 57.4887V58.1765H84.8048V57.4887H87.2092ZM85.4496 56.4341H86.3065V60.5981C86.3065 60.7644 86.3313 60.8895 86.381 60.9736C86.4307 61.0557 86.4947 61.1121 86.573 61.1426C86.6533 61.1713 86.7402 61.1856 86.8338 61.1856C86.9026 61.1856 86.9628 61.1809 87.0144 61.1713C87.066 61.1617 87.1061 61.1541 87.1347 61.1484L87.2895 61.8562C87.2398 61.8753 87.1691 61.8944 87.0774 61.9136C86.9857 61.9346 86.8711 61.946 86.7335 61.9479C86.5081 61.9518 86.2979 61.9116 86.103 61.8276C85.9082 61.7435 85.7505 61.6136 85.6302 61.4378C85.5098 61.2621 85.4496 61.0414 85.4496 60.7758V56.4341ZM92.5082 56.0214V61.8906H91.6198V56.9098H91.5854L90.1811 57.8269V56.9786L91.6455 56.0214H92.5082ZM96.0331 61.9709C95.6739 61.9709 95.3511 61.9021 95.0645 61.7645C94.7798 61.6251 94.5525 61.434 94.3824 61.1914C94.2124 60.9487 94.1216 60.6717 94.1102 60.3603H94.9699C94.9909 60.6125 95.1027 60.8198 95.3052 60.9822C95.5077 61.1446 95.7504 61.2258 96.0331 61.2258C96.2586 61.2258 96.4582 61.1742 96.6321 61.071C96.8079 60.9659 96.9454 60.8217 97.0448 60.6383C97.146 60.4548 97.1967 60.2456 97.1967 60.0106C97.1967 59.7718 97.1451 59.5588 97.0419 59.3716C96.9387 59.1843 96.7964 59.0372 96.6149 58.9302C96.4353 58.8232 96.229 58.7688 95.9959 58.7669C95.8182 58.7669 95.6396 58.7974 95.46 58.8586C95.2804 58.9197 95.1352 59 95.0244 59.0993L94.2133 58.9789L94.5429 56.0214H97.7698V56.7809H95.2794L95.0931 58.423H95.1275C95.2422 58.3122 95.3941 58.2195 95.5832 58.145C95.7743 58.0705 95.9787 58.0332 96.1965 58.0332C96.5538 58.0332 96.8719 58.1182 97.1508 58.2883C97.4317 58.4583 97.6523 58.6904 97.8128 58.9847C97.9752 59.277 98.0555 59.6132 98.0535 59.9934C98.0555 60.3736 97.9695 60.7128 97.7956 61.0108C97.6237 61.3089 97.3848 61.5439 97.0792 61.7158C96.7754 61.8858 96.4267 61.9709 96.0331 61.9709ZM101.149 61.9709C100.888 61.967 100.63 61.9193 100.376 61.8276C100.123 61.7359 99.8941 61.583 99.6878 61.369C99.4814 61.1551 99.3162 60.8675 99.192 60.5064C99.0697 60.1453 99.0086 59.6944 99.0086 59.1538C99.0086 58.6417 99.0592 58.187 99.1605 57.7896C99.2636 57.3922 99.4117 57.0569 99.6047 56.7837C99.7976 56.5086 100.031 56.2994 100.304 56.1561C100.577 56.0128 100.884 55.9412 101.224 55.9412C101.573 55.9412 101.884 56.0099 102.155 56.1475C102.427 56.2851 102.646 56.4752 102.814 56.7178C102.984 56.9604 103.092 57.2365 103.138 57.546H102.264C102.205 57.3015 102.087 57.1018 101.912 56.9471C101.736 56.7923 101.507 56.7149 101.224 56.7149C100.794 56.7149 100.459 56.9022 100.218 57.2766C99.9791 57.6511 99.8588 58.1717 99.8569 58.8385H99.8999C100.001 58.6723 100.125 58.5309 100.272 58.4144C100.421 58.2959 100.588 58.2052 100.771 58.1421C100.956 58.0772 101.151 58.0447 101.356 58.0447C101.696 58.0447 102.003 58.1278 102.278 58.294C102.556 58.4583 102.776 58.6857 102.94 58.9761C103.105 59.2665 103.187 59.5989 103.187 59.9734C103.187 60.3479 103.102 60.687 102.932 60.9908C102.764 61.2945 102.527 61.5353 102.221 61.7129C101.915 61.8887 101.558 61.9747 101.149 61.9709ZM101.146 61.2258C101.372 61.2258 101.573 61.1703 101.751 61.0595C101.929 60.9487 102.069 60.7997 102.172 60.6125C102.276 60.4252 102.327 60.216 102.327 59.9848C102.327 59.7594 102.277 59.554 102.175 59.3687C102.076 59.1834 101.938 59.0363 101.763 58.9274C101.589 58.8185 101.39 58.764 101.167 58.764C100.997 58.764 100.839 58.7965 100.694 58.8614C100.55 58.9264 100.424 59.0162 100.315 59.1308C100.206 59.2455 100.121 59.3773 100.057 59.5263C99.9963 59.6734 99.9658 59.8291 99.9658 59.9934C99.9658 60.2132 100.016 60.4166 100.118 60.6039C100.221 60.7911 100.361 60.942 100.539 61.0567C100.719 61.1694 100.921 61.2258 101.146 61.2258ZM109.677 58.5634L108.9 58.701C108.868 58.6016 108.816 58.507 108.745 58.4172C108.676 58.3274 108.583 58.2539 108.464 58.1966C108.346 58.1393 108.198 58.1106 108.02 58.1106C107.778 58.1106 107.575 58.165 107.413 58.2739C107.25 58.3809 107.169 58.5195 107.169 58.6895C107.169 58.8366 107.223 58.9551 107.332 59.0449C107.441 59.1347 107.617 59.2082 107.86 59.2655L108.559 59.426C108.964 59.5196 109.266 59.6639 109.465 59.8588C109.663 60.0536 109.763 60.3068 109.763 60.6182C109.763 60.8819 109.686 61.1169 109.533 61.3232C109.382 61.5276 109.171 61.6881 108.9 61.8047C108.631 61.9212 108.318 61.9795 107.963 61.9795C107.47 61.9795 107.068 61.8744 106.756 61.6642C106.445 61.4522 106.254 61.1512 106.183 60.7615L107.011 60.6354C107.063 60.8513 107.169 61.0146 107.33 61.1254C107.49 61.2344 107.699 61.2888 107.957 61.2888C108.238 61.2888 108.462 61.2305 108.631 61.114C108.799 60.9955 108.883 60.8513 108.883 60.6812C108.883 60.5437 108.831 60.4281 108.728 60.3345C108.627 60.2409 108.471 60.1702 108.261 60.1224L107.516 59.9591C107.105 59.8654 106.801 59.7164 106.604 59.512C106.41 59.3076 106.312 59.0487 106.312 58.7353C106.312 58.4755 106.385 58.2482 106.53 58.0533C106.675 57.8584 106.876 57.7065 107.132 57.5976C107.388 57.4868 107.681 57.4314 108.012 57.4314C108.487 57.4314 108.862 57.5346 109.135 57.7409C109.408 57.9453 109.589 58.2195 109.677 58.5634ZM113.493 60.0651V57.4887H114.353V61.8906H113.51V61.1283H113.465C113.363 61.3633 113.201 61.5591 112.977 61.7158C112.756 61.8706 112.48 61.9479 112.149 61.9479C111.866 61.9479 111.616 61.8858 111.398 61.7617C111.182 61.6356 111.012 61.4493 110.888 61.2028C110.766 60.9564 110.705 60.6516 110.705 60.2886V57.4887H111.562V60.1855C111.562 60.4854 111.645 60.7242 111.811 60.9019C111.977 61.0796 112.193 61.1684 112.459 61.1684C112.619 61.1684 112.779 61.1283 112.937 61.0481C113.098 60.9678 113.23 60.8465 113.336 60.6841C113.443 60.5217 113.495 60.3154 113.493 60.0651ZM115.573 61.8906V56.0214H116.43V58.2023H116.482C116.531 58.1106 116.603 58.0046 116.696 57.8842C116.79 57.7638 116.92 57.6588 117.086 57.569C117.252 57.4772 117.472 57.4314 117.745 57.4314C118.101 57.4314 118.418 57.5212 118.697 57.7008C118.976 57.8804 119.195 58.1393 119.353 58.4774C119.514 58.8156 119.594 59.2225 119.594 59.6983C119.594 60.174 119.515 60.5819 119.356 60.922C119.197 61.2601 118.98 61.5209 118.703 61.7043C118.426 61.8858 118.109 61.9766 117.754 61.9766C117.486 61.9766 117.268 61.9317 117.098 61.8419C116.93 61.7521 116.798 61.647 116.702 61.5267C116.607 61.4063 116.533 61.2993 116.482 61.2057H116.41V61.8906H115.573ZM116.413 59.6897C116.413 59.9992 116.458 60.2705 116.547 60.5036C116.637 60.7367 116.767 60.9191 116.937 61.0509C117.107 61.1809 117.315 61.2458 117.562 61.2458C117.818 61.2458 118.032 61.178 118.204 61.0423C118.376 60.9048 118.506 60.7185 118.594 60.4835C118.683 60.2485 118.728 59.9839 118.728 59.6897C118.728 59.3993 118.684 59.1385 118.597 58.9073C118.511 58.6761 118.381 58.4937 118.207 58.3599C118.035 58.2262 117.82 58.1593 117.562 58.1593C117.314 58.1593 117.103 58.2233 116.931 58.3513C116.761 58.4793 116.632 58.658 116.545 58.8872C116.457 59.1165 116.413 59.384 116.413 59.6897ZM123.855 58.5634L123.078 58.701C123.045 58.6016 122.994 58.507 122.923 58.4172C122.854 58.3274 122.761 58.2539 122.642 58.1966C122.524 58.1393 122.376 58.1106 122.198 58.1106C121.956 58.1106 121.753 58.165 121.591 58.2739C121.428 58.3809 121.347 58.5195 121.347 58.6895C121.347 58.8366 121.401 58.9551 121.51 59.0449C121.619 59.1347 121.795 59.2082 122.038 59.2655L122.737 59.426C123.142 59.5196 123.444 59.6639 123.643 59.8588C123.841 60.0536 123.941 60.3068 123.941 60.6182C123.941 60.8819 123.864 61.1169 123.711 61.3232C123.56 61.5276 123.349 61.6881 123.078 61.8047C122.809 61.9212 122.496 61.9795 122.141 61.9795C121.648 61.9795 121.246 61.8744 120.934 61.6642C120.623 61.4522 120.432 61.1512 120.361 60.7615L121.189 60.6354C121.241 60.8513 121.347 61.0146 121.507 61.1254C121.668 61.2344 121.877 61.2888 122.135 61.2888C122.416 61.2888 122.64 61.2305 122.809 61.114C122.977 60.9955 123.061 60.8513 123.061 60.6812C123.061 60.5437 123.009 60.4281 122.906 60.3345C122.805 60.2409 122.649 60.1702 122.439 60.1224L121.694 59.9591C121.283 59.8654 120.979 59.7164 120.782 59.512C120.588 59.3076 120.49 59.0487 120.49 58.7353C120.49 58.4755 120.563 58.2482 120.708 58.0533C120.853 57.8584 121.054 57.7065 121.31 57.5976C121.566 57.4868 121.859 57.4314 122.19 57.4314C122.665 57.4314 123.04 57.5346 123.313 57.7409C123.586 57.9453 123.767 58.2195 123.855 58.5634ZM126.737 61.9795C126.311 61.9795 125.944 61.883 125.636 61.69C125.331 61.4951 125.096 61.2267 124.931 60.8847C124.767 60.5427 124.685 60.1511 124.685 59.7097C124.685 59.2627 124.769 58.8681 124.937 58.5261C125.105 58.1822 125.342 57.9138 125.648 57.7208C125.954 57.5279 126.314 57.4314 126.728 57.4314C127.063 57.4314 127.361 57.4935 127.622 57.6177C127.884 57.7399 128.095 57.9119 128.256 58.1335C128.418 58.3551 128.515 58.614 128.545 58.9102H127.711C127.665 58.7038 127.56 58.5261 127.396 58.3771C127.234 58.2281 127.016 58.1536 126.743 58.1536C126.504 58.1536 126.295 58.2166 126.115 58.3427C125.937 58.4669 125.799 58.6446 125.699 58.8758C125.6 59.105 125.55 59.3763 125.55 59.6897C125.55 60.0106 125.599 60.2877 125.697 60.5208C125.794 60.7538 125.932 60.9344 126.109 61.0624C126.289 61.1904 126.5 61.2544 126.743 61.2544C126.905 61.2544 127.052 61.2248 127.184 61.1656C127.318 61.1044 127.429 61.0175 127.519 60.9048C127.611 60.7921 127.675 60.6564 127.711 60.4978H128.545C128.515 60.7825 128.422 61.0366 128.267 61.2601C128.113 61.4837 127.905 61.6594 127.645 61.7875C127.387 61.9155 127.085 61.9795 126.737 61.9795ZM129.462 61.8906V57.4887H130.29V58.188H130.336C130.416 57.9511 130.557 57.7648 130.76 57.6291C130.964 57.4916 131.195 57.4228 131.453 57.4228C131.507 57.4228 131.57 57.4247 131.642 57.4285C131.717 57.4323 131.775 57.4371 131.817 57.4429V58.2625C131.783 58.2529 131.722 58.2424 131.634 58.231C131.546 58.2176 131.458 58.2109 131.37 58.2109C131.168 58.2109 130.987 58.2539 130.829 58.3399C130.672 58.4239 130.548 58.5414 130.456 58.6924C130.364 58.8414 130.318 59.0114 130.318 59.2025V61.8906H129.462ZM132.559 61.8906V57.4887H133.416V61.8906H132.559ZM132.992 56.8095C132.843 56.8095 132.715 56.7598 132.608 56.6605C132.502 56.5592 132.45 56.4389 132.45 56.2994C132.45 56.158 132.502 56.0376 132.608 55.9383C132.715 55.837 132.843 55.7864 132.992 55.7864C133.141 55.7864 133.268 55.837 133.373 55.9383C133.48 56.0376 133.533 56.158 133.533 56.2994C133.533 56.4389 133.48 56.5592 133.373 56.6605C133.268 56.7598 133.141 56.8095 132.992 56.8095ZM134.637 61.8906V56.0214H135.494V58.2023H135.546C135.595 58.1106 135.667 58.0046 135.761 57.8842C135.854 57.7638 135.984 57.6588 136.15 57.569C136.317 57.4772 136.536 57.4314 136.81 57.4314C137.165 57.4314 137.482 57.5212 137.761 57.7008C138.04 57.8804 138.259 58.1393 138.417 58.4774C138.578 58.8156 138.658 59.2225 138.658 59.6983C138.658 60.174 138.579 60.5819 138.42 60.922C138.262 61.2601 138.044 61.5209 137.767 61.7043C137.49 61.8858 137.174 61.9766 136.818 61.9766C136.551 61.9766 136.332 61.9317 136.162 61.8419C135.994 61.7521 135.862 61.647 135.766 61.5267C135.671 61.4063 135.597 61.2993 135.546 61.2057H135.474V61.8906H134.637ZM135.477 59.6897C135.477 59.9992 135.522 60.2705 135.612 60.5036C135.701 60.7367 135.831 60.9191 136.001 61.0509C136.171 61.1809 136.38 61.2458 136.626 61.2458C136.882 61.2458 137.096 61.178 137.268 61.0423C137.44 60.9048 137.57 60.7185 137.658 60.4835C137.748 60.2485 137.793 59.9839 137.793 59.6897C137.793 59.3993 137.749 59.1385 137.661 58.9073C137.575 58.6761 137.445 58.4937 137.271 58.3599C137.099 58.2262 136.884 58.1593 136.626 58.1593C136.378 58.1593 136.168 58.2233 135.996 58.3513C135.826 58.4793 135.697 58.658 135.609 58.8872C135.521 59.1165 135.477 59.384 135.477 59.6897ZM141.517 61.9795C141.084 61.9795 140.71 61.8868 140.397 61.7015C140.085 61.5142 139.845 61.2515 139.675 60.9134C139.507 60.5733 139.423 60.1749 139.423 59.7183C139.423 59.2674 139.507 58.87 139.675 58.5261C139.845 58.1822 140.082 57.9138 140.385 57.7208C140.691 57.5279 141.048 57.4314 141.457 57.4314C141.706 57.4314 141.946 57.4725 142.179 57.5546C142.413 57.6368 142.622 57.7657 142.807 57.9415C142.992 58.1173 143.139 58.3456 143.246 58.6264C143.353 58.9054 143.406 59.2445 143.406 59.6438V59.9476H139.907V59.3056H142.566C142.566 59.0802 142.52 58.8805 142.429 58.7067C142.337 58.5309 142.208 58.3924 142.042 58.2911C141.878 58.1899 141.685 58.1393 141.463 58.1393C141.222 58.1393 141.012 58.1985 140.832 58.3169C140.655 58.4335 140.517 58.5863 140.42 58.7755C140.324 58.9627 140.277 59.1662 140.277 59.3859V59.8874C140.277 60.1816 140.328 60.4319 140.431 60.6383C140.536 60.8446 140.683 61.0022 140.87 61.1111C141.057 61.2181 141.276 61.2716 141.526 61.2716C141.688 61.2716 141.836 61.2487 141.97 61.2028C142.104 61.1551 142.22 61.0844 142.317 60.9908C142.414 60.8971 142.489 60.7815 142.541 60.644L143.352 60.7901C143.287 61.029 143.17 61.2382 143.002 61.4178C142.836 61.5954 142.626 61.734 142.374 61.8333C142.124 61.9307 141.838 61.9795 141.517 61.9795ZM144.357 61.8906V57.4887H145.185V58.188H145.231C145.311 57.9511 145.452 57.7648 145.655 57.6291C145.859 57.4916 146.091 57.4228 146.348 57.4228C146.402 57.4228 146.465 57.4247 146.538 57.4285C146.612 57.4323 146.67 57.4371 146.712 57.4429V58.2625C146.678 58.2529 146.617 58.2424 146.529 58.231C146.441 58.2176 146.353 58.2109 146.265 58.2109C146.063 58.2109 145.882 58.2539 145.724 58.3399C145.567 58.4239 145.443 58.5414 145.351 58.6924C145.259 58.8414 145.214 59.0114 145.214 59.2025V61.8906H144.357ZM150.753 58.5634L149.976 58.701C149.943 58.6016 149.892 58.507 149.821 58.4172C149.752 58.3274 149.659 58.2539 149.54 58.1966C149.422 58.1393 149.274 58.1106 149.096 58.1106C148.853 58.1106 148.651 58.165 148.489 58.2739C148.326 58.3809 148.245 58.5195 148.245 58.6895C148.245 58.8366 148.299 58.9551 148.408 59.0449C148.517 59.1347 148.693 59.2082 148.936 59.2655L149.635 59.426C150.04 59.5196 150.342 59.6639 150.54 59.8588C150.739 60.0536 150.839 60.3068 150.839 60.6182C150.839 60.8819 150.762 61.1169 150.609 61.3232C150.458 61.5276 150.247 61.6881 149.976 61.8047C149.707 61.9212 149.394 61.9795 149.039 61.9795C148.546 61.9795 148.144 61.8744 147.832 61.6642C147.521 61.4522 147.33 61.1512 147.259 60.7615L148.087 60.6354C148.139 60.8513 148.245 61.0146 148.405 61.1254C148.566 61.2344 148.775 61.2888 149.033 61.2888C149.314 61.2888 149.538 61.2305 149.707 61.114C149.875 60.9955 149.959 60.8513 149.959 60.6812C149.959 60.5437 149.907 60.4281 149.804 60.3345C149.703 60.2409 149.547 60.1702 149.337 60.1224L148.592 59.9591C148.181 59.8654 147.877 59.7164 147.68 59.512C147.486 59.3076 147.388 59.0487 147.388 58.7353C147.388 58.4755 147.461 58.2482 147.606 58.0533C147.751 57.8584 147.952 57.7065 148.208 57.5976C148.464 57.4868 148.757 57.4314 149.088 57.4314C149.563 57.4314 149.938 57.5346 150.211 57.7409C150.484 57.9453 150.665 58.2195 150.753 58.5634Z" fill="#887D76"/>
<rect x="16.7851" y="74.4829" width="180.57" height="21.1842" rx="3.5307" fill="white"/>
<rect x="16.7851" y="74.4829" width="180.57" height="21.1842" rx="3.5307" stroke="#DAD1C5" stroke-width="1.00877"/>
<g clip-path="url(#clip0_89_5989)">
<path d="M65.8599 84.8679C65.9154 84.8611 65.9679 84.8603 66.0167 84.8679C66.0444 84.8031 66.0495 84.6917 66.0247 84.5703C65.9869 84.39 65.936 84.2811 65.8309 84.2987C65.7254 84.3156 65.7212 84.4459 65.7595 84.6262C65.7805 84.727 65.8183 84.8136 65.8599 84.8679ZM64.9567 85.0103C65.0323 85.0431 65.0785 85.0646 65.0958 85.0465C65.108 85.0347 65.1046 85.0112 65.0865 84.9818C65.0379 84.9121 64.9702 84.8579 64.8915 84.8258C64.8075 84.7908 64.7158 84.7781 64.6254 84.7888C64.535 84.7996 64.4489 84.8335 64.3753 84.8872C64.3253 84.9242 64.2778 84.975 64.2837 85.0061C64.2867 85.0158 64.2934 85.0238 64.311 85.0272C64.3527 85.0318 64.4977 84.9582 64.6654 84.9481C64.7839 84.9397 64.881 84.9767 64.9567 85.0103ZM64.8049 85.0965C64.7074 85.1121 64.6532 85.144 64.6187 85.1751C64.5889 85.2012 64.5712 85.2289 64.5712 85.2495L64.5788 85.2672L64.5943 85.273C64.6166 85.273 64.6662 85.2537 64.6662 85.2537C64.8024 85.2054 64.8928 85.2108 64.9823 85.2209C65.0315 85.2268 65.0546 85.2293 65.0655 85.2125C65.0685 85.2075 65.0731 85.1978 65.0626 85.1814C65.039 85.1432 64.9403 85.0805 64.8049 85.0965ZM65.5548 85.4143C65.6216 85.4471 65.6947 85.4336 65.7187 85.3853C65.7435 85.3369 65.7086 85.2709 65.6418 85.2386C65.5754 85.2054 65.5018 85.218 65.4779 85.2663C65.4539 85.3147 65.4888 85.3815 65.5548 85.4143ZM65.9827 85.0398C65.9289 85.0389 65.8843 85.0978 65.8826 85.1726C65.8814 85.247 65.9247 85.3075 65.9789 85.3079C66.0331 85.3088 66.0777 85.2495 66.0789 85.1755C66.0802 85.1016 66.0373 85.041 65.9827 85.0398ZM62.3494 86.3777C62.3359 86.3608 62.3137 86.3655 62.2922 86.3713C62.2771 86.3743 62.2603 86.3785 62.2422 86.3781C62.2241 86.3784 62.2062 86.3744 62.19 86.3662C62.1738 86.3581 62.1598 86.3462 62.1493 86.3314C62.1245 86.2936 62.1258 86.2368 62.1535 86.1725L62.1661 86.1435C62.2099 86.0464 62.2817 85.8834 62.2006 85.7283C62.1741 85.6735 62.1345 85.6262 62.0853 85.5904C62.0361 85.5546 61.9788 85.5315 61.9186 85.5231C61.8616 85.5159 61.8037 85.5222 61.7497 85.5418C61.6957 85.5613 61.6471 85.5934 61.608 85.6354C61.4886 85.7669 61.4705 85.9468 61.4932 86.0107C61.502 86.0342 61.5155 86.0406 61.5247 86.0418C61.5449 86.0448 61.5747 86.0296 61.5937 85.9788L61.5995 85.9628C61.608 85.9359 61.6235 85.8855 61.6491 85.8459C61.6807 85.7976 61.7303 85.7638 61.7868 85.752C61.8433 85.7402 61.9022 85.7513 61.9505 85.7829C62.0346 85.838 62.0661 85.9405 62.0304 86.0385C62.0119 86.0893 61.982 86.186 61.9883 86.2654C62.0018 86.4264 62.1018 86.4911 62.1901 86.4991C62.2767 86.5021 62.3372 86.4537 62.3528 86.418C62.3616 86.3957 62.354 86.3827 62.3494 86.3777Z" fill="black"/>
<path d="M68.2461 86.4178C68.2413 86.4016 68.2135 86.2968 68.1766 86.1714L68.0995 85.9562C68.2499 85.7193 68.2526 85.5087 68.2328 85.3888C68.2102 85.2346 68.1403 85.0922 68.0337 84.9832C67.9149 84.8533 67.6714 84.7188 67.33 84.6185L67.1508 84.5664C67.1497 84.558 67.1411 84.1239 67.1342 83.9374C67.1283 83.8029 67.1176 83.5923 67.055 83.385C66.98 83.1038 66.8511 82.8596 66.6889 82.701C67.1358 82.217 67.414 81.6832 67.4135 81.2255C67.4119 80.3455 66.3791 80.0777 65.1061 80.63L64.8369 80.7499C64.8358 80.7488 64.3494 80.2491 64.3425 80.243C62.8901 78.9176 58.3534 84.1978 59.8047 85.4801L60.122 85.7607C60.0363 86.0011 60.0058 86.2592 60.0331 86.5142C60.0679 86.8677 60.2413 87.2055 60.5228 87.4671C60.7903 87.7147 61.143 87.8726 61.4839 87.8721C62.0484 89.2344 63.338 90.0691 64.8503 90.1167C66.4728 90.1671 67.8341 89.37 68.4056 87.9382C68.4425 87.8379 68.6009 87.3853 68.6009 86.9859C68.6004 86.5837 68.3837 86.4173 68.2461 86.4178ZM61.608 87.4889C61.5586 87.4981 61.5084 87.5021 61.4582 87.5007C60.968 87.4861 60.4388 87.0245 60.3863 86.4772C60.328 85.8722 60.6234 85.4061 61.1467 85.2964C61.2088 85.2823 61.2848 85.2751 61.3661 85.279C61.6594 85.2969 62.0907 85.5322 62.1897 86.2005C62.2774 86.7915 62.1383 87.3948 61.608 87.4889ZM61.0616 84.9334C60.7435 84.9949 60.4608 85.1838 60.2734 85.4599C60.168 85.3681 59.9727 85.191 59.9384 85.1216C59.658 84.5648 60.244 83.4814 60.6539 82.8696C61.6647 81.3583 63.2497 80.2149 63.9839 80.4211C64.1027 80.4569 64.4976 80.937 64.4976 80.937C64.4976 80.937 63.7645 81.3622 63.0839 81.956C62.1683 82.6954 61.4753 83.7687 61.0616 84.9334ZM66.2047 87.2626C66.2102 87.2602 66.2148 87.2559 66.2177 87.2504C66.2206 87.2449 66.2217 87.2385 66.2207 87.2323C66.2204 87.2286 66.2193 87.225 66.2176 87.2217C66.2159 87.2184 66.2136 87.2154 66.2108 87.2131C66.208 87.2107 66.2048 87.209 66.2014 87.208C66.1979 87.207 66.1943 87.2067 66.1907 87.2071C66.1907 87.2071 65.4234 87.3259 64.6983 87.0486C64.777 86.7803 64.9878 86.8761 65.3051 86.9035C65.7984 86.934 66.2931 86.8779 66.7687 86.7377C67.0967 86.6385 67.528 86.4442 67.863 86.1674C67.9764 86.4279 68.016 86.7136 68.016 86.7136C68.016 86.7136 68.1033 86.6974 68.1766 86.7444C68.2461 86.7892 68.2964 86.8817 68.2622 87.1203C68.191 87.5673 68.0101 87.9298 67.7046 88.2636C67.5145 88.4796 67.2879 88.657 67.0362 88.7868C66.8964 88.864 66.7507 88.9288 66.6007 88.9807C65.4507 89.3734 64.2734 88.9415 63.894 88.0132C63.8634 87.9421 63.838 87.8687 63.818 87.7936C63.6564 87.1819 63.7934 86.4492 64.2221 85.9865C64.2493 85.9574 64.2766 85.9226 64.2766 85.8789C64.2766 85.8431 64.2542 85.8044 64.2354 85.7764C64.0856 85.549 63.5649 85.1608 63.6698 84.4096C63.7442 83.8696 64.1953 83.4898 64.6159 83.5122L64.7229 83.5189C64.9049 83.5301 65.0638 83.5542 65.2136 83.5615C65.4651 83.5721 65.6904 83.534 65.958 83.301C66.0484 83.2214 66.1206 83.1537 66.2427 83.1324C66.2555 83.129 66.2876 83.1184 66.3513 83.1206C66.4166 83.1234 66.48 83.1445 66.5348 83.1817C66.7489 83.3307 66.7794 83.6926 66.7912 83.9575C66.7976 84.1082 66.8152 84.474 66.8206 84.5782C66.8345 84.818 66.895 84.8521 67.0159 84.8936C67.0849 84.9182 67.1486 84.935 67.2423 84.9636C67.5253 85.046 67.6944 85.1317 67.8004 85.2398C67.8553 85.2955 67.8907 85.3689 67.901 85.4482C67.9358 85.7042 67.7121 86.0201 67.1224 86.3069C66.477 86.6201 65.6942 86.6996 65.1537 86.6363L64.9643 86.6139C64.5308 86.5534 64.2852 87.1382 64.5447 87.5388C64.7122 87.797 65.1676 87.9651 65.6241 87.9651C66.6691 87.9662 67.4729 87.499 67.7726 87.0945L67.7961 87.0592C67.81 87.0357 67.7988 87.024 67.7801 87.0363C67.5366 87.2111 66.4514 87.9057 65.2912 87.6973C65.2912 87.6973 65.1499 87.6726 65.0215 87.62C64.9198 87.5797 64.7053 87.4755 64.6796 87.2458C65.6144 87.55 66.2047 87.2632 66.2047 87.2626ZM62.9297 82.864C63.2893 82.4293 63.7319 82.0507 64.1289 81.8389C64.1423 81.8311 64.1568 81.8473 64.1493 81.8602C64.1006 81.9496 64.0632 82.0453 64.038 82.1448C64.0348 82.1599 64.0503 82.1722 64.0626 82.1627C64.3098 81.9868 64.739 81.798 65.1157 81.7745C65.1194 81.7738 65.1231 81.7745 65.1264 81.7765C65.1296 81.7784 65.1321 81.7814 65.1334 81.7851C65.1347 81.7887 65.1348 81.7927 65.1336 81.7964C65.1325 81.8001 65.1301 81.8032 65.1269 81.8053C65.0645 81.8554 65.0087 81.914 64.961 81.9795C64.9536 81.9907 64.9605 82.007 64.9739 82.007C65.2382 82.0086 65.6112 82.105 65.8536 82.2478C65.8697 82.2579 65.8579 82.291 65.8402 82.2865C65.4721 82.1985 64.8711 82.1313 64.2461 82.291C63.6875 82.4333 63.2615 82.6529 62.9517 82.8898C62.9356 82.901 62.9169 82.8792 62.9297 82.864Z" fill="black"/>
</g>
<path d="M75.9526 84.1097H75.1702C75.1401 83.9425 75.0841 83.7954 75.0022 83.6684C74.9203 83.5413 74.82 83.4335 74.7013 83.3449C74.5826 83.2563 74.4497 83.1894 74.3026 83.1443C74.1571 83.0991 74.0025 83.0766 73.8387 83.0766C73.5428 83.0766 73.2778 83.151 73.0437 83.2997C72.8114 83.4485 72.6275 83.6667 72.4921 83.9542C72.3583 84.2418 72.2915 84.5928 72.2915 85.0074C72.2915 85.4253 72.3583 85.7781 72.4921 86.0656C72.6275 86.3532 72.8122 86.5705 73.0463 86.7176C73.2803 86.8647 73.5436 86.9383 73.8361 86.9383C73.9983 86.9383 74.1521 86.9165 74.2975 86.8731C74.4447 86.8279 74.5776 86.7619 74.6963 86.675C74.8149 86.588 74.9153 86.4819 74.9972 86.3565C75.0808 86.2294 75.1384 86.084 75.1702 85.9202L75.9526 85.9227C75.9108 86.1751 75.8297 86.4075 75.7093 86.6198C75.5906 86.8304 75.4377 87.0127 75.2504 87.1665C75.0649 87.3186 74.8526 87.4364 74.6135 87.52C74.3744 87.6036 74.1137 87.6454 73.8311 87.6454C73.3865 87.6454 72.9903 87.5401 72.6425 87.3295C72.2948 87.1171 72.0206 86.8137 71.82 86.4192C71.6211 86.0247 71.5216 85.5541 71.5216 85.0074C71.5216 84.4591 71.6219 83.9885 71.8225 83.5956C72.0232 83.2011 72.2973 82.8985 72.645 82.6879C72.9928 82.4756 73.3881 82.3694 73.8311 82.3694C74.1036 82.3694 74.3577 82.4087 74.5934 82.4873C74.8308 82.5642 75.044 82.6779 75.2329 82.8283C75.4218 82.9771 75.5781 83.1593 75.7018 83.375C75.8255 83.5889 75.9091 83.8339 75.9526 84.1097ZM78.442 87.6529C78.0809 87.6529 77.7658 87.5702 77.4966 87.4047C77.2275 87.2392 77.0185 87.0076 76.8697 86.7101C76.7209 86.4125 76.6465 86.0648 76.6465 85.6669C76.6465 85.2674 76.7209 84.918 76.8697 84.6187C77.0185 84.3195 77.2275 84.0871 77.4966 83.9216C77.7658 83.7561 78.0809 83.6734 78.442 83.6734C78.8031 83.6734 79.1182 83.7561 79.3873 83.9216C79.6565 84.0871 79.8655 84.3195 80.0142 84.6187C80.163 84.918 80.2374 85.2674 80.2374 85.6669C80.2374 86.0648 80.163 86.4125 80.0142 86.7101C79.8655 87.0076 79.6565 87.2392 79.3873 87.4047C79.1182 87.5702 78.8031 87.6529 78.442 87.6529ZM78.4445 87.0235C78.6785 87.0235 78.8725 86.9617 79.0263 86.838C79.1801 86.7143 79.2937 86.5496 79.3673 86.344C79.4425 86.1383 79.4801 85.9118 79.4801 85.6644C79.4801 85.4187 79.4425 85.193 79.3673 84.9874C79.2937 84.7801 79.1801 84.6137 79.0263 84.4883C78.8725 84.363 78.6785 84.3003 78.4445 84.3003C78.2088 84.3003 78.0132 84.363 77.8577 84.4883C77.7039 84.6137 77.5894 84.7801 77.5142 84.9874C77.4406 85.193 77.4038 85.4187 77.4038 85.6644C77.4038 85.9118 77.4406 86.1383 77.5142 86.344C77.5894 86.5496 77.7039 86.7143 77.8577 86.838C78.0132 86.9617 78.2088 87.0235 78.4445 87.0235ZM81.8241 85.2883V87.5752H81.0743V83.7235H81.794V84.3504H81.8417C81.9303 84.1465 82.069 83.9826 82.2579 83.8589C82.4485 83.7352 82.6884 83.6734 82.9776 83.6734C83.2401 83.6734 83.4699 83.7285 83.6672 83.8389C83.8645 83.9475 84.0174 84.1097 84.1261 84.3253C84.2348 84.541 84.2891 84.8076 84.2891 85.1253V87.5752H83.5393V85.2155C83.5393 84.9364 83.4666 84.7182 83.3211 84.5611C83.1757 84.4022 82.9759 84.3228 82.7218 84.3228C82.548 84.3228 82.3933 84.3605 82.2579 84.4357C82.1242 84.5109 82.018 84.6212 81.9395 84.7667C81.8626 84.9105 81.8241 85.0843 81.8241 85.2883ZM87.0926 83.7235V84.3253H84.9887V83.7235H87.0926ZM85.5529 82.8007H86.3027V86.4443C86.3027 86.5897 86.3244 86.6992 86.3679 86.7728C86.4113 86.8446 86.4674 86.894 86.5359 86.9207C86.6061 86.9458 86.6822 86.9583 86.7641 86.9583C86.8243 86.9583 86.8769 86.9541 86.9221 86.9458C86.9672 86.9374 87.0023 86.9307 87.0274 86.9257L87.1628 87.5451C87.1193 87.5618 87.0575 87.5785 86.9772 87.5953C86.897 87.6136 86.7967 87.6237 86.6763 87.6253C86.4791 87.6287 86.2952 87.5936 86.1246 87.52C85.9541 87.4465 85.8162 87.3328 85.7109 87.179C85.6056 87.0252 85.5529 86.8321 85.5529 86.5997V82.8007ZM87.922 87.5752V83.7235H88.6717V87.5752H87.922ZM88.3006 83.1292C88.1702 83.1292 88.0582 83.0858 87.9646 82.9988C87.8727 82.9102 87.8267 82.8049 87.8267 82.6829C87.8267 82.5592 87.8727 82.4538 87.9646 82.3669C88.0582 82.2783 88.1702 82.234 88.3006 82.234C88.431 82.234 88.5422 82.2783 88.6341 82.3669C88.7277 82.4538 88.7746 82.5592 88.7746 82.6829C88.7746 82.8049 88.7277 82.9102 88.6341 82.9988C88.5422 83.0858 88.431 83.1292 88.3006 83.1292ZM90.4302 85.2883V87.5752H89.6804V83.7235H90.4001V84.3504H90.4477C90.5364 84.1465 90.6751 83.9826 90.864 83.8589C91.0546 83.7352 91.2945 83.6734 91.5837 83.6734C91.8462 83.6734 92.076 83.7285 92.2733 83.8389C92.4705 83.9475 92.6235 84.1097 92.7322 84.3253C92.8408 84.541 92.8952 84.8076 92.8952 85.1253V87.5752H92.1454V85.2155C92.1454 84.9364 92.0727 84.7182 91.9272 84.5611C91.7818 84.4022 91.582 84.3228 91.3279 84.3228C91.1541 84.3228 90.9994 84.3605 90.864 84.4357C90.7303 84.5109 90.6241 84.6212 90.5455 84.7667C90.4686 84.9105 90.4302 85.0843 90.4302 85.2883ZM96.3406 85.9779V83.7235H97.0929V87.5752H96.3557V86.9082H96.3155C96.2269 87.1138 96.0848 87.2851 95.8892 87.4222C95.6953 87.5576 95.4538 87.6253 95.1645 87.6253C94.9171 87.6253 94.6981 87.571 94.5076 87.4624C94.3186 87.352 94.1699 87.189 94.0612 86.9734C93.9542 86.7577 93.9007 86.4911 93.9007 86.1734V83.7235H94.6505V86.0832C94.6505 86.3456 94.7232 86.5546 94.8686 86.7101C95.0141 86.8655 95.203 86.9433 95.4354 86.9433C95.5758 86.9433 95.7154 86.9082 95.8541 86.838C95.9946 86.7677 96.1107 86.6616 96.2027 86.5195C96.2963 86.3774 96.3423 86.1969 96.3406 85.9779ZM99.7603 87.6529C99.3809 87.6529 99.054 87.5719 98.7799 87.4097C98.5074 87.2459 98.2967 87.016 98.148 86.7201C98.0009 86.4225 97.9273 86.074 97.9273 85.6744C97.9273 85.2799 98.0009 84.9322 98.148 84.6313C98.2967 84.3304 98.504 84.0955 98.7698 83.9266C99.0373 83.7578 99.3499 83.6734 99.7077 83.6734C99.925 83.6734 100.136 83.7093 100.34 83.7812C100.544 83.8531 100.727 83.9659 100.889 84.1197C101.051 84.2735 101.179 84.4733 101.272 84.719C101.366 84.9631 101.413 85.2598 101.413 85.6092V85.875H98.3511V85.3133H100.678C100.678 85.1161 100.638 84.9414 100.558 84.7893C100.478 84.6355 100.365 84.5143 100.219 84.4256C100.075 84.337 99.9066 84.2927 99.7127 84.2927C99.5021 84.2927 99.3182 84.3446 99.161 84.4482C99.0056 84.5502 98.8852 84.6839 98.7999 84.8494C98.7164 85.0133 98.6746 85.1913 98.6746 85.3836V85.8224C98.6746 86.0798 98.7197 86.2988 98.81 86.4794C98.9019 86.6599 99.0298 86.7978 99.1936 86.8931C99.3575 86.9867 99.5489 87.0336 99.7679 87.0336C99.91 87.0336 100.04 87.0135 100.157 86.9734C100.274 86.9316 100.375 86.8697 100.46 86.7878C100.545 86.7059 100.61 86.6048 100.656 86.4844L101.365 86.6123C101.308 86.8212 101.206 87.0043 101.059 87.1614C100.914 87.3169 100.731 87.4381 100.51 87.525C100.291 87.6103 100.041 87.6529 99.7603 87.6529ZM104.949 87.5752L103.815 83.7235H104.59L105.345 86.5521H105.382L106.14 83.7235H106.915L107.667 86.5396H107.704L108.454 83.7235H109.229L108.098 87.5752H107.333L106.551 84.7943H106.493L105.711 87.5752H104.949ZM109.941 87.5752V83.7235H110.69V87.5752H109.941ZM110.319 83.1292C110.189 83.1292 110.077 83.0858 109.983 82.9988C109.891 82.9102 109.845 82.8049 109.845 82.6829C109.845 82.5592 109.891 82.4538 109.983 82.3669C110.077 82.2783 110.189 82.234 110.319 82.234C110.45 82.234 110.561 82.2783 110.653 82.3669C110.746 82.4538 110.793 82.5592 110.793 82.6829C110.793 82.8049 110.746 82.9102 110.653 82.9988C110.561 83.0858 110.45 83.1292 110.319 83.1292ZM113.497 83.7235V84.3253H111.393V83.7235H113.497ZM111.957 82.8007H112.707V86.4443C112.707 86.5897 112.729 86.6992 112.772 86.7728C112.816 86.8446 112.872 86.894 112.94 86.9207C113.011 86.9458 113.087 86.9583 113.168 86.9583C113.229 86.9583 113.281 86.9541 113.326 86.9458C113.372 86.9374 113.407 86.9307 113.432 86.9257L113.567 87.5451C113.524 87.5618 113.462 87.5785 113.382 87.5953C113.301 87.6136 113.201 87.6237 113.081 87.6253C112.883 87.6287 112.7 87.5936 112.529 87.52C112.359 87.4465 112.221 87.3328 112.115 87.179C112.01 87.0252 111.957 86.8321 111.957 86.5997V82.8007ZM115.159 85.2883V87.5752H114.409V82.4396H115.149V84.3504H115.197C115.287 84.1431 115.425 83.9785 115.61 83.8564C115.796 83.7344 116.038 83.6734 116.337 83.6734C116.602 83.6734 116.832 83.7277 117.03 83.8364C117.229 83.945 117.382 84.1072 117.491 84.3228C117.601 84.5368 117.656 84.8043 117.656 85.1253V87.5752H116.907V85.2155C116.907 84.933 116.834 84.714 116.689 84.5586C116.543 84.4014 116.341 84.3228 116.082 84.3228C115.904 84.3228 115.746 84.3605 115.605 84.4357C115.466 84.5109 115.357 84.6212 115.277 84.7667C115.198 84.9105 115.159 85.0843 115.159 85.2883ZM120.586 82.4396H121.526L123.161 86.4317H123.221L124.856 82.4396H125.797V87.5752H125.06V83.8589H125.012L123.497 87.5677H122.885L121.371 83.8564H121.323V87.5752H120.586V82.4396ZM127.984 87.6605C127.74 87.6605 127.519 87.6153 127.322 87.525C127.125 87.4331 126.968 87.3002 126.853 87.1263C126.739 86.9525 126.683 86.7393 126.683 86.4869C126.683 86.2696 126.724 86.0907 126.808 85.9503C126.892 85.8098 127.004 85.6987 127.146 85.6168C127.289 85.5348 127.447 85.473 127.623 85.4312C127.798 85.3894 127.977 85.3576 128.16 85.3359C128.39 85.3092 128.577 85.2874 128.721 85.2707C128.865 85.2523 128.97 85.2231 129.035 85.1829C129.1 85.1428 129.133 85.0776 129.133 84.9874V84.9698C129.133 84.7508 129.071 84.5811 128.947 84.4608C128.825 84.3404 128.643 84.2802 128.4 84.2802C128.148 84.2802 127.949 84.3362 127.803 84.4482C127.66 84.5586 127.56 84.6814 127.505 84.8168L126.8 84.6563C126.884 84.4223 127.006 84.2334 127.167 84.0896C127.329 83.9442 127.515 83.8389 127.726 83.7737C127.936 83.7068 128.158 83.6734 128.39 83.6734C128.544 83.6734 128.707 83.6918 128.879 83.7285C129.053 83.7636 129.215 83.8288 129.366 83.9241C129.518 84.0194 129.642 84.1557 129.739 84.3329C129.836 84.5084 129.885 84.7366 129.885 85.0174V87.5752H129.153V87.0486H129.122C129.074 87.1456 129.001 87.2408 128.904 87.3345C128.807 87.4281 128.683 87.5058 128.531 87.5677C128.379 87.6295 128.196 87.6605 127.984 87.6605ZM128.147 87.0586C128.354 87.0586 128.532 87.0177 128.679 86.9358C128.827 86.8538 128.94 86.7469 129.017 86.6148C129.096 86.481 129.135 86.3381 129.135 86.186V85.6895C129.108 85.7162 129.056 85.7413 128.98 85.7647C128.904 85.7864 128.818 85.8057 128.721 85.8224C128.624 85.8374 128.53 85.8516 128.438 85.865C128.346 85.8767 128.269 85.8867 128.207 85.8951C128.062 85.9135 127.929 85.9444 127.808 85.9879C127.69 86.0313 127.595 86.094 127.523 86.176C127.452 86.2562 127.417 86.3632 127.417 86.4969C127.417 86.6825 127.486 86.8229 127.623 86.9182C127.76 87.0118 127.935 87.0586 128.147 87.0586ZM130.883 87.5752V83.7235H131.633V87.5752H130.883ZM131.262 83.1292C131.132 83.1292 131.02 83.0858 130.926 82.9988C130.834 82.9102 130.788 82.8049 130.788 82.6829C130.788 82.5592 130.834 82.4538 130.926 82.3669C131.02 82.2783 131.132 82.234 131.262 82.234C131.392 82.234 131.504 82.2783 131.596 82.3669C131.689 82.4538 131.736 82.5592 131.736 82.6829C131.736 82.8049 131.689 82.9102 131.596 82.9988C131.504 83.0858 131.392 83.1292 131.262 83.1292ZM133.392 82.4396V87.5752H132.642V82.4396H133.392ZM136.023 87.6529C135.65 87.6529 135.329 87.5685 135.06 87.3997C134.792 87.2291 134.587 86.9943 134.443 86.695C134.299 86.3958 134.227 86.0531 134.227 85.6669C134.227 85.2757 134.301 84.9305 134.448 84.6313C134.595 84.3304 134.802 84.0955 135.07 83.9266C135.337 83.7578 135.652 83.6734 136.015 83.6734C136.308 83.6734 136.569 83.7277 136.798 83.8364C137.027 83.9434 137.211 84.0938 137.352 84.2877C137.494 84.4817 137.578 84.7082 137.605 84.9673H136.875C136.835 84.7867 136.743 84.6313 136.6 84.5009C136.457 84.3705 136.267 84.3053 136.028 84.3053C135.819 84.3053 135.636 84.3605 135.479 84.4708C135.323 84.5794 135.202 84.7349 135.115 84.9372C135.028 85.1378 134.985 85.3752 134.985 85.6494C134.985 85.9302 135.027 86.1726 135.113 86.3766C135.198 86.5805 135.318 86.7385 135.474 86.8505C135.631 86.9625 135.815 87.0185 136.028 87.0185C136.17 87.0185 136.299 86.9926 136.414 86.9408C136.531 86.8873 136.629 86.8112 136.707 86.7126C136.788 86.6139 136.844 86.4953 136.875 86.3565H137.605C137.578 86.6056 137.497 86.8279 137.362 87.0235C137.226 87.2191 137.045 87.3729 136.818 87.4849C136.592 87.5969 136.327 87.6529 136.023 87.6529ZM139.157 85.2883V87.5752H138.407V82.4396H139.147V84.3504H139.194C139.285 84.1431 139.422 83.9785 139.608 83.8564C139.794 83.7344 140.036 83.6734 140.335 83.6734C140.599 83.6734 140.83 83.7277 141.027 83.8364C141.226 83.945 141.38 84.1072 141.489 84.3228C141.599 84.5368 141.654 84.8043 141.654 85.1253V87.5752H140.904V85.2155C140.904 84.933 140.832 84.714 140.686 84.5586C140.541 84.4014 140.339 84.3228 140.079 84.3228C139.902 84.3228 139.743 84.3605 139.603 84.4357C139.464 84.5109 139.355 84.6212 139.274 84.7667C139.196 84.9105 139.157 85.0843 139.157 85.2883ZM142.655 87.5752V83.7235H143.405V87.5752H142.655ZM143.033 83.1292C142.903 83.1292 142.791 83.0858 142.697 82.9988C142.605 82.9102 142.559 82.8049 142.559 82.6829C142.559 82.5592 142.605 82.4538 142.697 82.3669C142.791 82.2783 142.903 82.234 143.033 82.234C143.164 82.234 143.275 82.2783 143.367 82.3669C143.461 82.4538 143.507 82.5592 143.507 82.6829C143.507 82.8049 143.461 82.9102 143.367 82.9988C143.275 83.0858 143.164 83.1292 143.033 83.1292ZM144.413 87.5752V83.7235H145.133V84.3504H145.181C145.261 84.1381 145.392 83.9726 145.574 83.8539C145.756 83.7336 145.975 83.6734 146.229 83.6734C146.486 83.6734 146.702 83.7336 146.876 83.8539C147.051 83.9743 147.181 84.1398 147.264 84.3504H147.304C147.396 84.1448 147.543 83.981 147.743 83.8589C147.944 83.7352 148.183 83.6734 148.46 83.6734C148.81 83.6734 149.095 83.7829 149.316 84.0019C149.538 84.2209 149.649 84.551 149.649 84.9924V87.5752H148.899V85.0626C148.899 84.8018 148.828 84.6129 148.686 84.4959C148.544 84.3788 148.374 84.3203 148.177 84.3203C147.933 84.3203 147.743 84.3956 147.608 84.546C147.472 84.6948 147.405 84.8862 147.405 85.1203V87.5752H146.657V85.0149C146.657 84.806 146.592 84.638 146.462 84.5109C146.332 84.3839 146.162 84.3203 145.953 84.3203C145.811 84.3203 145.68 84.3579 145.559 84.4332C145.44 84.5067 145.344 84.6095 145.271 84.7416C145.199 84.8737 145.163 85.0266 145.163 85.2005V87.5752H144.413ZM150.654 89.0196V83.7235H151.386V84.3479H151.449C151.492 84.2677 151.555 84.1749 151.637 84.0696C151.719 83.9643 151.833 83.8723 151.978 83.7937C152.123 83.7135 152.316 83.6734 152.555 83.6734C152.866 83.6734 153.143 83.7519 153.387 83.9091C153.631 84.0662 153.823 84.2927 153.962 84.5886C154.102 84.8845 154.172 85.2406 154.172 85.6569C154.172 86.0731 154.103 86.4301 153.964 86.7276C153.825 87.0235 153.635 87.2517 153.392 87.4122C153.15 87.571 152.873 87.6504 152.562 87.6504C152.328 87.6504 152.137 87.6111 151.988 87.5326C151.841 87.454 151.726 87.362 151.642 87.2567C151.558 87.1514 151.494 87.0578 151.449 86.9759H151.404V89.0196H150.654ZM151.389 85.6494C151.389 85.9202 151.428 86.1576 151.507 86.3615C151.585 86.5655 151.699 86.7251 151.848 86.8405C151.996 86.9541 152.179 87.011 152.394 87.011C152.618 87.011 152.806 86.9516 152.956 86.8329C153.106 86.7126 153.22 86.5496 153.297 86.344C153.376 86.1383 153.415 85.9068 153.415 85.6494C153.415 85.3953 153.376 85.1671 153.3 84.9648C153.224 84.7625 153.111 84.6029 152.958 84.4858C152.808 84.3688 152.62 84.3103 152.394 84.3103C152.177 84.3103 151.993 84.3663 151.843 84.4783C151.694 84.5903 151.581 84.7466 151.504 84.9472C151.427 85.1478 151.389 85.3819 151.389 85.6494Z" fill="black"/>
<g filter="url(#filter0_d_89_5989)">
<path d="M176.355 106.62C176.037 106.212 175.64 105.383 174.947 104.351C174.55 103.783 173.574 102.705 173.279 102.149C173.066 101.811 173.005 101.399 173.109 101.014C173.287 100.281 173.982 99.795 174.732 99.8792C175.311 99.9956 175.844 100.28 176.264 100.696C176.557 100.972 176.826 101.272 177.07 101.593C177.251 101.82 177.297 101.911 177.501 102.172C177.705 102.433 177.841 102.694 177.739 102.308C177.66 101.74 177.524 100.787 177.331 99.9359C177.183 99.289 177.149 99.1869 177.013 98.6989C176.877 98.2109 176.797 97.8023 176.65 97.2463C176.515 96.6999 176.409 96.1468 176.332 95.5894C176.189 94.8763 176.293 94.1358 176.627 93.4898C177.023 93.1169 177.605 93.0185 178.102 93.2402C178.602 93.6094 178.975 94.125 179.169 94.7155C179.466 95.4423 179.665 96.2057 179.759 96.9852C179.941 98.1201 180.293 99.777 180.304 100.117C180.304 99.6976 180.225 98.8124 180.304 98.4152C180.383 98.0011 180.67 97.6574 181.064 97.5073C181.402 97.4036 181.76 97.3803 182.108 97.4392C182.46 97.5127 182.772 97.7151 182.982 98.0066C183.245 98.6687 183.391 99.3714 183.413 100.083C183.444 99.4599 183.551 98.8425 183.731 98.2449C183.921 97.9777 184.198 97.7851 184.514 97.7002C184.889 97.6316 185.274 97.6316 185.649 97.7002C185.957 97.8031 186.226 97.997 186.421 98.2563C186.661 98.8582 186.807 99.4937 186.852 100.14C186.852 100.299 186.932 99.6976 187.181 99.3004C187.311 98.9152 187.636 98.6285 188.035 98.5483C188.433 98.468 188.844 98.6065 189.113 98.9114C189.382 99.2164 189.467 99.6415 189.337 100.027C189.337 100.764 189.337 100.73 189.337 101.23C189.337 101.729 189.337 102.172 189.337 102.591C189.296 103.256 189.205 103.916 189.065 104.566C188.868 105.142 188.593 105.688 188.248 106.189C187.697 106.802 187.242 107.494 186.898 108.243C186.812 108.615 186.774 108.996 186.784 109.378C186.783 109.731 186.829 110.082 186.92 110.422C186.456 110.471 185.988 110.471 185.524 110.422C185.082 110.354 184.537 109.469 184.389 109.196C184.316 109.05 184.167 108.958 184.004 108.958C183.84 108.958 183.691 109.05 183.618 109.196C183.368 109.628 182.812 110.411 182.426 110.456C181.666 110.547 180.1 110.456 178.863 110.456C178.863 110.456 179.067 109.321 178.602 108.913C178.136 108.504 177.66 108.028 177.308 107.71L176.355 106.62Z" fill="white"/>
<path fill-rule="evenodd" clip-rule="evenodd" d="M176.355 106.62C176.037 106.212 175.64 105.383 174.947 104.351C174.55 103.783 173.574 102.705 173.279 102.149C173.066 101.811 173.005 101.399 173.109 101.014C173.287 100.281 173.982 99.795 174.732 99.8792C175.311 99.9956 175.844 100.28 176.264 100.696C176.557 100.972 176.826 101.272 177.07 101.593C177.251 101.82 177.297 101.911 177.501 102.172C177.705 102.433 177.841 102.694 177.739 102.308C177.66 101.74 177.524 100.787 177.331 99.9359C177.183 99.289 177.149 99.1869 177.013 98.6989C176.877 98.2109 176.797 97.8023 176.65 97.2463C176.515 96.6999 176.409 96.1468 176.332 95.5894C176.189 94.8763 176.293 94.1358 176.627 93.4898C177.023 93.1169 177.605 93.0185 178.102 93.2402C178.602 93.6094 178.975 94.125 179.169 94.7155C179.466 95.4423 179.665 96.2057 179.759 96.9852C179.941 98.1201 180.293 99.777 180.304 100.117C180.304 99.6976 180.225 98.8124 180.304 98.4152C180.383 98.0011 180.67 97.6574 181.064 97.5073C181.402 97.4036 181.76 97.3803 182.108 97.4392C182.46 97.5127 182.772 97.7151 182.982 98.0066C183.245 98.6687 183.391 99.3714 183.413 100.083C183.444 99.4599 183.551 98.8425 183.731 98.2449C183.921 97.9777 184.198 97.7851 184.514 97.7002C184.889 97.6316 185.274 97.6316 185.649 97.7002C185.957 97.8031 186.226 97.997 186.421 98.2563C186.661 98.8582 186.807 99.4937 186.852 100.14C186.852 100.299 186.932 99.6976 187.181 99.3004C187.311 98.9152 187.636 98.6285 188.035 98.5483C188.433 98.468 188.844 98.6065 189.113 98.9114C189.382 99.2164 189.467 99.6415 189.337 100.027C189.337 100.764 189.337 100.73 189.337 101.23C189.337 101.729 189.337 102.172 189.337 102.591C189.296 103.256 189.205 103.916 189.065 104.566C188.868 105.142 188.593 105.688 188.248 106.189C187.697 106.802 187.242 107.494 186.898 108.243C186.812 108.615 186.774 108.996 186.784 109.378C186.783 109.731 186.829 110.082 186.92 110.422C186.456 110.471 185.988 110.471 185.524 110.422C185.082 110.354 184.537 109.469 184.389 109.196C184.316 109.05 184.167 108.958 184.004 108.958C183.84 108.958 183.691 109.05 183.618 109.196C183.368 109.628 182.812 110.411 182.426 110.456C181.666 110.547 180.1 110.456 178.863 110.456C178.863 110.456 179.067 109.321 178.602 108.913C178.136 108.504 177.66 108.028 177.308 107.71L176.355 106.62Z" stroke="black" stroke-width="0.851151" stroke-linecap="round" stroke-linejoin="round"/>
<path d="M185.978 107.239V103.322C185.978 103.088 185.788 102.897 185.553 102.897C185.318 102.897 185.127 103.088 185.127 103.322V107.239C185.127 107.474 185.318 107.664 185.553 107.664C185.788 107.664 185.978 107.474 185.978 107.239Z" fill="black"/>
<path d="M183.731 107.238L183.709 103.319C183.707 103.085 183.516 102.896 183.281 102.897C183.046 102.899 182.856 103.09 182.857 103.323L182.88 107.243C182.881 107.477 183.073 107.665 183.308 107.664C183.543 107.663 183.733 107.472 183.731 107.238Z" fill="black"/>
<path d="M180.588 103.328L180.61 107.239C180.612 107.475 180.803 107.665 181.038 107.664C181.273 107.663 181.463 107.47 181.461 107.234L181.439 103.323C181.437 103.086 181.246 102.896 181.011 102.897C180.776 102.899 180.586 103.091 180.588 103.328Z" fill="black"/>
</g>
<defs>
<filter id="filter0_d_89_5989" x="171.726" y="92.6973" width="19.0046" height="20.2674" filterUnits="userSpaceOnUse" color-interpolation-filters="sRGB">
<feFlood flood-opacity="0" result="BackgroundImageFix"/>
<feColorMatrix in="SourceAlpha" type="matrix" values="0 0 0 0 0 0 0 0 0 0 0 0 0 0 0 0 0 0 127 0" result="hardAlpha"/>
<feOffset dy="1.13487"/>
<feGaussianBlur stdDeviation="0.453947"/>
<feColorMatrix type="matrix" values="0 0 0 0 0 0 0 0 0 0 0 0 0 0 0 0 0 0 0.5 0"/>
<feBlend mode="normal" in2="BackgroundImageFix" result="effect1_dropShadow_89_5989"/>
<feBlend mode="normal" in="SourceGraphic" in2="effect1_dropShadow_89_5989" result="shape"/>
</filter>
<clipPath id="clip0_89_5989">
<rect width="10.0877" height="10.0877" fill="white" transform="translate(59.0176 80.0312)"/>
</clipPath>
</defs>
</svg>
