<svg width="193" height="52" viewBox="0 0 193 52" fill="none" xmlns="http://www.w3.org/2000/svg">
<rect x="0.645485" y="0.826149" width="191.709" height="27.7826" rx="4.51839" fill="white" fill-opacity="0.5"/>
<rect x="0.645485" y="0.826149" width="191.709" height="27.7826" rx="4.51839" stroke="#DAD1C5" stroke-width="1.29097"/>
<path d="M14.5142 15.2906V18.2173H13.5547V11.6451H14.5014V14.0904H14.5623C14.6779 13.8251 14.8544 13.6144 15.0918 13.4582C15.3293 13.302 15.6395 13.2239 16.0225 13.2239C16.3605 13.2239 16.6557 13.2935 16.9082 13.4325C17.1628 13.5716 17.3596 13.7791 17.4987 14.0551C17.6399 14.3289 17.7105 14.6712 17.7105 15.082V18.2173H16.7509V15.1975C16.7509 14.836 16.6579 14.5557 16.4718 14.3568C16.2856 14.1557 16.0268 14.0551 15.6952 14.0551C15.4684 14.0551 15.2651 14.1032 15.0854 14.1995C14.9079 14.2958 14.7677 14.437 14.665 14.6231C14.5645 14.8071 14.5142 15.0296 14.5142 15.2906ZM18.9909 18.2173V13.2881H19.9504V18.2173H18.9909ZM19.4755 12.5276C19.3086 12.5276 19.1652 12.4719 19.0454 12.3607C18.9278 12.2473 18.8689 12.1125 18.8689 11.9564C18.8689 11.798 18.9278 11.6633 19.0454 11.552C19.1652 11.4386 19.3086 11.3819 19.4755 11.3819C19.6423 11.3819 19.7846 11.4386 19.9023 11.552C20.0221 11.6633 20.082 11.798 20.082 11.9564C20.082 12.1125 20.0221 12.2473 19.9023 12.3607C19.7846 12.4719 19.6423 12.5276 19.4755 12.5276ZM25.1981 20.0047C24.5349 20.0047 23.9465 19.9138 23.4331 19.732C22.9218 19.5523 22.4907 19.287 22.1398 18.9361C21.7889 18.5874 21.5226 18.1595 21.3407 17.6525C21.1589 17.1454 21.068 16.5667 21.068 15.9164C21.068 15.2831 21.16 14.714 21.344 14.2091C21.5279 13.7042 21.7954 13.2742 22.1462 12.9191C22.4992 12.5618 22.9282 12.289 23.4331 12.1008C23.938 11.9125 24.5113 11.8184 25.1531 11.8184C25.7671 11.8184 26.3084 11.9146 26.7769 12.1072C27.2455 12.2997 27.6391 12.5639 27.9579 12.8998C28.2788 13.2357 28.5205 13.6208 28.6831 14.0551C28.8457 14.4894 28.927 14.9483 28.927 15.4318C28.927 15.7698 28.9056 16.1004 28.8628 16.4234C28.8201 16.7443 28.7409 17.0353 28.6254 17.2963C28.512 17.5551 28.3473 17.7627 28.1312 17.9188C27.9172 18.0729 27.6391 18.1531 27.2968 18.1595C27.115 18.1659 26.9385 18.1445 26.7673 18.0953C26.5962 18.0461 26.4507 17.967 26.3309 17.8579C26.2111 17.7466 26.1383 17.6054 26.1127 17.4343H26.0741C26.0228 17.5605 25.9372 17.6782 25.8174 17.7873C25.6976 17.8942 25.5446 17.9798 25.3585 18.044C25.1745 18.106 24.9606 18.1317 24.7167 18.121C24.4471 18.1103 24.2043 18.0493 23.9882 17.9381C23.7722 17.8268 23.5871 17.6728 23.4331 17.476C23.2812 17.2792 23.1646 17.046 23.0833 16.7764C23.002 16.5068 22.9613 16.2073 22.9613 15.8779C22.9613 15.5612 23.0073 15.2778 23.0993 15.0275C23.1913 14.775 23.3165 14.5579 23.4748 14.376C23.6352 14.192 23.8192 14.0465 24.0267 13.9396C24.2343 13.8326 24.4536 13.7652 24.6846 13.7374C24.9092 13.7117 25.1157 13.7181 25.304 13.7567C25.4922 13.7952 25.6484 13.854 25.7725 13.9332C25.8987 14.0123 25.9779 14.099 26.01 14.1931H26.0517V13.8337H26.8411V16.8117C26.8411 16.9807 26.885 17.1241 26.9727 17.2417C27.0625 17.3594 27.1898 17.4182 27.3546 17.4182C27.5493 17.4182 27.7012 17.3466 27.8103 17.2032C27.9215 17.0599 27.9996 16.8395 28.0445 16.5421C28.0916 16.2448 28.1151 15.864 28.1151 15.3997C28.1151 15.0745 28.0713 14.7686 27.9836 14.4819C27.898 14.1931 27.7707 13.9321 27.6017 13.6989C27.4348 13.4636 27.2294 13.2614 26.9855 13.0924C26.7416 12.9234 26.4635 12.7929 26.1512 12.7009C25.841 12.6089 25.4976 12.5629 25.121 12.5629C24.6097 12.5629 24.1551 12.642 23.7572 12.8003C23.3593 12.9565 23.0234 13.1822 22.7495 13.4775C22.4778 13.7727 22.2714 14.1268 22.1302 14.5397C21.9911 14.9504 21.9216 15.4115 21.9216 15.9228C21.9216 16.4555 21.9933 16.9283 22.1366 17.3412C22.2799 17.752 22.4917 18.0985 22.772 18.3809C23.0523 18.6633 23.3988 18.8773 23.8117 19.0228C24.2246 19.1704 24.7007 19.2442 25.2398 19.2442C25.4794 19.2442 25.7147 19.2228 25.9458 19.18C26.1768 19.1394 26.3822 19.0923 26.5619 19.0388C26.7438 18.9875 26.8796 18.9457 26.9695 18.9137L27.1941 19.6164C27.0615 19.6785 26.885 19.7395 26.6646 19.7994C26.4464 19.8593 26.2089 19.9085 25.9522 19.947C25.6976 19.9855 25.4462 20.0047 25.1981 20.0047ZM24.9028 17.3348C25.181 17.3348 25.4045 17.2792 25.5735 17.1679C25.7447 17.0567 25.8677 16.8909 25.9426 16.6705C26.0196 16.448 26.0581 16.1699 26.0581 15.8361C26.056 15.511 26.0142 15.2521 25.9329 15.0595C25.8538 14.8649 25.7297 14.7258 25.5607 14.6424C25.3938 14.5568 25.1788 14.514 24.9157 14.514C24.6739 14.514 24.4675 14.5728 24.2963 14.6905C24.1273 14.8082 23.9979 14.9675 23.908 15.1687C23.8203 15.3698 23.7754 15.5933 23.7732 15.8394C23.7754 16.0982 23.8117 16.3421 23.8823 16.571C23.9551 16.7978 24.0727 16.9818 24.2353 17.123C24.4001 17.2642 24.6226 17.3348 24.9028 17.3348ZM32.3327 13.2881V14.0583H29.5472V13.2881H32.3327ZM30.3109 18.2173V12.7169C30.3109 12.4088 30.3783 12.1532 30.5131 11.9499C30.6479 11.7446 30.8265 11.5916 31.049 11.491C31.2715 11.3883 31.5133 11.337 31.7743 11.337C31.9668 11.337 32.1316 11.353 32.2685 11.3851C32.4054 11.4151 32.507 11.4429 32.5734 11.4686L32.3487 12.2452C32.3038 12.2323 32.246 12.2174 32.1754 12.2002C32.1048 12.181 32.0192 12.1714 31.9187 12.1714C31.6855 12.1714 31.5186 12.2291 31.4181 12.3447C31.3197 12.4602 31.2705 12.6271 31.2705 12.8453V18.2173H30.3109ZM34.6071 18.3264C34.2948 18.3264 34.0124 18.2686 33.7599 18.1531C33.5075 18.0354 33.3074 17.8654 33.1598 17.6429C33.0143 17.4204 32.9416 17.1476 32.9416 16.8245C32.9416 16.5464 32.9951 16.3175 33.102 16.1378C33.209 15.9581 33.3534 15.8158 33.5353 15.711C33.7171 15.6062 33.9204 15.527 34.145 15.4735C34.3696 15.42 34.5986 15.3794 34.8317 15.3516C35.127 15.3173 35.3666 15.2895 35.5506 15.2681C35.7346 15.2446 35.8683 15.2072 35.9517 15.1558C36.0352 15.1045 36.0769 15.021 36.0769 14.9055V14.883C36.0769 14.6028 35.9977 14.3856 35.8394 14.2316C35.6832 14.0776 35.45 14.0005 35.1398 14.0005C34.8168 14.0005 34.5622 14.0722 34.3761 14.2156C34.1921 14.3568 34.0648 14.514 33.9942 14.6873L33.0924 14.4819C33.1994 14.1824 33.3556 13.9406 33.5609 13.7567C33.7685 13.5705 34.007 13.4357 34.2766 13.3523C34.5461 13.2667 34.8296 13.2239 35.127 13.2239C35.3238 13.2239 35.5324 13.2475 35.7528 13.2945C35.9753 13.3395 36.1828 13.4229 36.3753 13.5449C36.57 13.6668 36.7294 13.8412 36.8535 14.0679C36.9776 14.2926 37.0396 14.5846 37.0396 14.944V18.2173H36.1025V17.5434H36.064C36.002 17.6675 35.9089 17.7894 35.7848 17.9092C35.6608 18.029 35.5014 18.1285 35.3067 18.2077C35.112 18.2868 34.8788 18.3264 34.6071 18.3264ZM34.8157 17.5562C35.081 17.5562 35.3078 17.5038 35.496 17.399C35.6864 17.2941 35.8308 17.1572 35.9293 16.9882C36.0298 16.8171 36.0801 16.6341 36.0801 16.4395V15.8041C36.0459 15.8383 35.9795 15.8704 35.8811 15.9003C35.7848 15.9281 35.6747 15.9527 35.5506 15.9741C35.4265 15.9934 35.3056 16.0116 35.188 16.0287C35.0703 16.0437 34.9719 16.0565 34.8927 16.0672C34.7066 16.0907 34.5365 16.1303 34.3825 16.1859C34.2306 16.2416 34.1086 16.3218 34.0166 16.4266C33.9268 16.5293 33.8819 16.6662 33.8819 16.8374C33.8819 17.0749 33.9696 17.2546 34.145 17.3765C34.3204 17.4963 34.544 17.5562 34.8157 17.5562ZM38.3176 18.2173V13.2881H39.2771V18.2173H38.3176ZM38.8022 12.5276C38.6353 12.5276 38.492 12.4719 38.3722 12.3607C38.2545 12.2473 38.1957 12.1125 38.1957 11.9564C38.1957 11.798 38.2545 11.6633 38.3722 11.552C38.492 11.4386 38.6353 11.3819 38.8022 11.3819C38.9691 11.3819 39.1113 11.4386 39.229 11.552C39.3488 11.6633 39.4087 11.798 39.4087 11.9564C39.4087 12.1125 39.3488 12.2473 39.229 12.3607C39.1113 12.4719 38.9691 12.5276 38.8022 12.5276ZM40.568 18.2173V13.2881H41.4954V14.0711H41.5468C41.6366 13.8059 41.7949 13.5973 42.0217 13.4454C42.2506 13.2913 42.5095 13.2143 42.7983 13.2143C42.8582 13.2143 42.9288 13.2165 43.0101 13.2207C43.0935 13.225 43.1588 13.2304 43.2059 13.2368V14.1546C43.1673 14.1439 43.0989 14.1321 43.0005 14.1193C42.9021 14.1043 42.8037 14.0968 42.7052 14.0968C42.4785 14.0968 42.2763 14.145 42.0987 14.2412C41.9233 14.3354 41.7842 14.4669 41.6815 14.6359C41.5789 14.8028 41.5275 14.9932 41.5275 15.2072V18.2173H40.568ZM44.7928 20.0657C44.6494 20.0657 44.5189 20.054 44.4012 20.0304C44.2836 20.009 44.1959 19.9855 44.1381 19.9598L44.3692 19.1736C44.5446 19.2207 44.7008 19.241 44.8377 19.2346C44.9746 19.2281 45.0955 19.1768 45.2003 19.0805C45.3073 18.9843 45.4014 18.827 45.4827 18.6088L45.6014 18.2815L43.7979 13.2881H44.8248L46.0732 17.1134H46.1245L47.3729 13.2881H48.403L46.3716 18.8751C46.2775 19.1319 46.1577 19.349 46.0122 19.5266C45.8667 19.7063 45.6934 19.8411 45.4923 19.9309C45.2912 20.0208 45.058 20.0657 44.7928 20.0657ZM49.3047 18.2173V13.2881H50.2257V14.0904H50.2867C50.3894 13.8187 50.5573 13.6069 50.7905 13.455C51.0237 13.301 51.3029 13.2239 51.6281 13.2239C51.9576 13.2239 52.2336 13.301 52.4561 13.455C52.6807 13.609 52.8465 13.8208 52.9535 14.0904H53.0048C53.1225 13.8273 53.3097 13.6176 53.5664 13.4614C53.8231 13.3031 54.1291 13.2239 54.4842 13.2239C54.9313 13.2239 55.2961 13.3641 55.5785 13.6443C55.863 13.9246 56.0053 14.3471 56.0053 14.9119V18.2173H55.0458V15.0018C55.0458 14.668 54.9549 14.4263 54.773 14.2765C54.5912 14.1268 54.374 14.0519 54.1216 14.0519C53.8092 14.0519 53.5664 14.1482 53.3931 14.3407C53.2198 14.5311 53.1332 14.7761 53.1332 15.0756V18.2173H52.1769V14.9408C52.1769 14.6734 52.0934 14.4584 51.9266 14.2958C51.7597 14.1332 51.5425 14.0519 51.2751 14.0519C51.0933 14.0519 50.9253 14.1 50.7713 14.1963C50.6194 14.2904 50.4964 14.422 50.4022 14.591C50.3102 14.76 50.2642 14.9558 50.2642 15.1783V18.2173H49.3047ZM58.7258 18.3264C58.4135 18.3264 58.1311 18.2686 57.8786 18.1531C57.6262 18.0354 57.4261 17.8654 57.2785 17.6429C57.133 17.4204 57.0603 17.1476 57.0603 16.8245C57.0603 16.5464 57.1138 16.3175 57.2207 16.1378C57.3277 15.9581 57.4721 15.8158 57.654 15.711C57.8358 15.6062 58.0391 15.527 58.2637 15.4735C58.4883 15.42 58.7173 15.3794 58.9504 15.3516C59.2457 15.3173 59.4853 15.2895 59.6693 15.2681C59.8533 15.2446 59.987 15.2072 60.0704 15.1558C60.1539 15.1045 60.1956 15.021 60.1956 14.9055V14.883C60.1956 14.6028 60.1164 14.3856 59.9581 14.2316C59.8019 14.0776 59.5687 14.0005 59.2585 14.0005C58.9355 14.0005 58.6809 14.0722 58.4948 14.2156C58.3108 14.3568 58.1835 14.514 58.1129 14.6873L57.2111 14.4819C57.3181 14.1824 57.4743 13.9406 57.6796 13.7567C57.8872 13.5705 58.1257 13.4357 58.3953 13.3523C58.6648 13.2667 58.9483 13.2239 59.2457 13.2239C59.4425 13.2239 59.6511 13.2475 59.8715 13.2945C60.0939 13.3395 60.3015 13.4229 60.494 13.5449C60.6887 13.6668 60.8481 13.8412 60.9722 14.0679C61.0963 14.2926 61.1583 14.5846 61.1583 14.944V18.2173H60.2212V17.5434H60.1827C60.1207 17.6675 60.0276 17.7894 59.9035 17.9092C59.7795 18.029 59.6201 18.1285 59.4254 18.2077C59.2307 18.2868 58.9975 18.3264 58.7258 18.3264ZM58.9344 17.5562C59.1997 17.5562 59.4265 17.5038 59.6147 17.399C59.8051 17.2941 59.9495 17.1572 60.048 16.9882C60.1485 16.8171 60.1988 16.6341 60.1988 16.4395V15.8041C60.1645 15.8383 60.0982 15.8704 59.9998 15.9003C59.9035 15.9281 59.7934 15.9527 59.6693 15.9741C59.5452 15.9934 59.4243 16.0116 59.3067 16.0287C59.189 16.0437 59.0906 16.0565 59.0114 16.0672C58.8253 16.0907 58.6552 16.1303 58.5012 16.1859C58.3493 16.2416 58.2273 16.3218 58.1353 16.4266C58.0455 16.5293 58.0006 16.6662 58.0006 16.8374C58.0006 17.0749 58.0883 17.2546 58.2637 17.3765C58.4391 17.4963 58.6627 17.5562 58.9344 17.5562ZM62.4363 18.2173V13.2881H63.3958V18.2173H62.4363ZM62.9209 12.5276C62.754 12.5276 62.6107 12.4719 62.4909 12.3607C62.3732 12.2473 62.3144 12.1125 62.3144 11.9564C62.3144 11.798 62.3732 11.6633 62.4909 11.552C62.6107 11.4386 62.754 11.3819 62.9209 11.3819C63.0878 11.3819 63.23 11.4386 63.3477 11.552C63.4675 11.6633 63.5274 11.798 63.5274 11.9564C63.5274 12.1125 63.4675 12.2473 63.3477 12.3607C63.23 12.4719 63.0878 12.5276 62.9209 12.5276ZM65.6462 11.6451V18.2173H64.6867V11.6451H65.6462ZM67.5693 18.2783C67.3938 18.2783 67.243 18.2162 67.1168 18.0921C66.9905 17.9659 66.9274 17.814 66.9274 17.6364C66.9274 17.461 66.9905 17.3113 67.1168 17.1872C67.243 17.0609 67.3938 16.9978 67.5693 16.9978C67.7447 16.9978 67.8955 17.0609 68.0217 17.1872C68.148 17.3113 68.2111 17.461 68.2111 17.6364C68.2111 17.7541 68.1811 17.8621 68.1212 17.9606C68.0635 18.0568 67.9864 18.1338 67.8902 18.1916C67.7939 18.2494 67.6869 18.2783 67.5693 18.2783ZM71.563 20.1684C71.1715 20.1684 70.8345 20.1171 70.5521 20.0144C70.2718 19.9117 70.0429 19.7758 69.8654 19.6068C69.6878 19.4378 69.5551 19.2528 69.4674 19.0516L70.2922 18.7115C70.3499 18.8056 70.4269 18.9051 70.5232 19.0099C70.6216 19.1169 70.7543 19.2078 70.9211 19.2827C71.0902 19.3576 71.3073 19.395 71.5726 19.395C71.9363 19.395 72.2369 19.3062 72.4743 19.1287C72.7118 18.9532 72.8305 18.673 72.8305 18.2879V17.3187H72.7696C72.7118 17.4236 72.6284 17.5402 72.5193 17.6685C72.4123 17.7969 72.2647 17.9081 72.0764 18.0023C71.8881 18.0964 71.6432 18.1435 71.3415 18.1435C70.9522 18.1435 70.6013 18.0526 70.289 17.8707C69.9787 17.6867 69.7327 17.4161 69.5509 17.0588C69.3712 16.6994 69.2813 16.2576 69.2813 15.7335C69.2813 15.2093 69.3701 14.76 69.5477 14.3856C69.7274 14.0112 69.9734 13.7246 70.2857 13.5256C70.5981 13.3245 70.9522 13.2239 71.348 13.2239C71.6539 13.2239 71.901 13.2753 72.0892 13.378C72.2775 13.4785 72.4241 13.5962 72.5289 13.731C72.6359 13.8658 72.7182 13.9845 72.776 14.0872H72.8466V13.2881H73.7869V18.3264C73.7869 18.75 73.6884 19.0976 73.4916 19.3693C73.2948 19.6411 73.0284 19.8422 72.6926 19.9727C72.3588 20.1032 71.9823 20.1684 71.563 20.1684ZM71.5533 17.3476C71.8293 17.3476 72.0625 17.2834 72.2529 17.1551C72.4455 17.0246 72.5909 16.8384 72.6893 16.5967C72.7899 16.3528 72.8402 16.0608 72.8402 15.7206C72.8402 15.389 72.791 15.097 72.6926 14.8445C72.5941 14.5921 72.4497 14.3953 72.2593 14.2541C72.0689 14.1107 71.8336 14.0391 71.5533 14.0391C71.2645 14.0391 71.0238 14.1139 70.8313 14.2637C70.6387 14.4113 70.4933 14.6124 70.3949 14.867C70.2986 15.1216 70.2504 15.4061 70.2504 15.7206C70.2504 16.0437 70.2996 16.3271 70.3981 16.571C70.4965 16.8149 70.642 17.0053 70.8345 17.1422C71.0292 17.2792 71.2688 17.3476 71.5533 17.3476ZM75.0737 18.2173V13.2881H76.0011V14.0711H76.0525C76.1423 13.8059 76.3006 13.5973 76.5274 13.4454C76.7563 13.2913 77.0152 13.2143 77.304 13.2143C77.3639 13.2143 77.4345 13.2165 77.5158 13.2207C77.5993 13.225 77.6645 13.2304 77.7116 13.2368V14.1546C77.6731 14.1439 77.6046 14.1321 77.5062 14.1193C77.4078 14.1043 77.3094 14.0968 77.211 14.0968C76.9842 14.0968 76.782 14.145 76.6044 14.2412C76.429 14.3354 76.2899 14.4669 76.1873 14.6359C76.0846 14.8028 76.0332 14.9932 76.0332 15.2072V18.2173H75.0737ZM82.2653 9.52708V20.3353H81.4052V9.52708H82.2653Z" fill="black"/>
<g filter="url(#filter0_d_89_5988)">
<path d="M95.4958 40.1788C95.0891 39.6559 94.5808 38.5957 93.6949 37.2741C93.1866 36.5479 91.9376 35.1682 91.5599 34.4565C91.2877 34.0241 91.2088 33.4975 91.3421 33.0042C91.5701 32.0663 92.4598 31.4441 93.4189 31.5519C94.1608 31.7009 94.8426 32.0645 95.3796 32.5975C95.7546 32.9507 96.0995 33.3345 96.4108 33.7449C96.6431 34.0354 96.7012 34.1515 96.9627 34.4856C97.2241 34.8196 97.3984 35.1537 97.2676 34.6599C97.166 33.9337 96.9917 32.7137 96.7448 31.6245C96.556 30.7966 96.5124 30.6659 96.3382 30.0414C96.1639 29.4169 96.0622 28.8941 95.8734 28.1824C95.7008 27.4832 95.5651 26.7754 95.4667 26.062C95.2837 25.1495 95.4169 24.2019 95.8444 23.3752C96.3518 22.8979 97.0962 22.7719 97.7324 23.0557C98.3723 23.5282 98.8494 24.188 99.0976 24.9437C99.4782 25.8738 99.7322 26.8507 99.8528 27.8484C100.085 29.3007 100.535 31.4211 100.55 31.8568C100.55 31.3195 100.448 30.1867 100.55 29.6783C100.651 29.1484 101.019 28.7086 101.523 28.5165C101.956 28.3838 102.413 28.3539 102.859 28.4293C103.309 28.5235 103.708 28.7824 103.977 29.1555C104.314 30.0028 104.501 30.9021 104.529 31.8133C104.568 31.0153 104.705 30.2252 104.936 29.4605C105.179 29.1185 105.533 28.872 105.938 28.7634C106.418 28.6756 106.91 28.6756 107.39 28.7634C107.784 28.895 108.129 29.1432 108.378 29.475C108.686 30.2452 108.872 31.0586 108.93 31.8859C108.93 32.0892 109.032 31.3195 109.351 30.8112C109.517 30.3182 109.934 29.9513 110.443 29.8487C110.953 29.746 111.479 29.9231 111.823 30.3134C112.167 30.7037 112.277 31.2477 112.111 31.7407C112.111 32.6847 112.111 32.6411 112.111 33.2801C112.111 33.9192 112.111 34.4856 112.111 35.0229C112.058 35.8728 111.941 36.7175 111.762 37.55C111.509 38.2865 111.157 38.9852 110.716 39.6269C110.011 40.4111 109.428 41.2973 108.988 42.2556C108.879 42.7317 108.83 43.2197 108.843 43.7079C108.841 44.1591 108.9 44.6084 109.017 45.0441C108.423 45.1069 107.825 45.1069 107.231 45.0441C106.664 44.957 105.967 43.8241 105.778 43.4756C105.685 43.2884 105.494 43.1702 105.285 43.1702C105.075 43.1702 104.884 43.2884 104.791 43.4756C104.471 44.0275 103.76 45.0296 103.266 45.0877C102.293 45.2039 100.289 45.0877 98.7055 45.0877C98.7055 45.0877 98.9669 43.6353 98.3714 43.1125C97.776 42.5896 97.166 41.9797 96.7158 41.573L95.4958 40.1788Z" fill="white"/>
<path fill-rule="evenodd" clip-rule="evenodd" d="M95.4958 40.1788C95.0891 39.6559 94.5808 38.5957 93.6949 37.2741C93.1866 36.5479 91.9376 35.1682 91.5599 34.4565C91.2877 34.0241 91.2088 33.4975 91.3421 33.0042C91.5701 32.0663 92.4598 31.4441 93.4189 31.5519C94.1608 31.7009 94.8426 32.0645 95.3796 32.5975C95.7546 32.9507 96.0995 33.3345 96.4108 33.7449C96.6431 34.0354 96.7012 34.1515 96.9627 34.4856C97.2241 34.8196 97.3984 35.1537 97.2676 34.6599C97.166 33.9337 96.9917 32.7137 96.7448 31.6245C96.556 30.7966 96.5124 30.6659 96.3382 30.0414C96.1639 29.4169 96.0622 28.8941 95.8734 28.1824C95.7008 27.4832 95.5651 26.7754 95.4667 26.062C95.2837 25.1495 95.4169 24.2019 95.8444 23.3752C96.3518 22.8979 97.0962 22.7719 97.7324 23.0557C98.3723 23.5282 98.8494 24.188 99.0976 24.9437C99.4782 25.8738 99.7322 26.8507 99.8528 27.8484C100.085 29.3007 100.535 31.4211 100.55 31.8568C100.55 31.3195 100.448 30.1867 100.55 29.6783C100.651 29.1484 101.019 28.7086 101.523 28.5165C101.956 28.3838 102.413 28.3539 102.859 28.4293C103.309 28.5235 103.708 28.7824 103.977 29.1555C104.314 30.0028 104.501 30.9021 104.529 31.8133C104.568 31.0153 104.705 30.2252 104.936 29.4605C105.179 29.1185 105.533 28.872 105.938 28.7634C106.418 28.6756 106.91 28.6756 107.39 28.7634C107.784 28.895 108.129 29.1432 108.378 29.475C108.686 30.2452 108.872 31.0586 108.93 31.8859C108.93 32.0892 109.032 31.3195 109.351 30.8112C109.517 30.3182 109.934 29.9513 110.443 29.8487C110.953 29.746 111.479 29.9231 111.823 30.3134C112.167 30.7037 112.277 31.2477 112.111 31.7407C112.111 32.6847 112.111 32.6411 112.111 33.2801C112.111 33.9192 112.111 34.4856 112.111 35.0229C112.058 35.8728 111.941 36.7175 111.762 37.55C111.509 38.2865 111.157 38.9852 110.716 39.6269C110.011 40.4111 109.428 41.2973 108.988 42.2556C108.879 42.7317 108.83 43.2197 108.843 43.7079C108.841 44.1591 108.9 44.6084 109.017 45.0441C108.423 45.1069 107.825 45.1069 107.231 45.0441C106.664 44.957 105.967 43.8241 105.778 43.4756C105.685 43.2884 105.494 43.1702 105.285 43.1702C105.075 43.1702 104.884 43.2884 104.791 43.4756C104.471 44.0275 103.76 45.0296 103.266 45.0877C102.293 45.2039 100.289 45.0877 98.7055 45.0877C98.7055 45.0877 98.9669 43.6353 98.3714 43.1125C97.776 42.5896 97.166 41.9797 96.7158 41.573L95.4958 40.1788Z" stroke="black" stroke-width="1.08926" stroke-linecap="round" stroke-linejoin="round"/>
<path d="M107.812 40.9715V35.9584C107.812 35.6583 107.568 35.415 107.267 35.415C106.966 35.415 106.722 35.6583 106.722 35.9584V40.9715C106.722 41.2716 106.966 41.5149 107.267 41.5149C107.568 41.5149 107.812 41.2716 107.812 40.9715Z" fill="black"/>
<path d="M104.936 40.9697L104.907 35.954C104.905 35.6546 104.66 35.4133 104.359 35.415C104.058 35.4168 103.816 35.6609 103.818 35.9602L103.847 40.9759C103.849 41.2753 104.094 41.5166 104.395 41.5149C104.695 41.5131 104.938 41.2691 104.936 40.9697Z" fill="black"/>
<path d="M100.913 35.9655L100.942 40.9708C100.944 41.2731 101.189 41.5166 101.49 41.5149C101.791 41.5131 102.033 41.2667 102.031 40.9644L102.002 35.9591C102.001 35.6569 101.755 35.4133 101.455 35.415C101.154 35.4168 100.911 35.6632 100.913 35.9655Z" fill="black"/>
</g>
<defs>
<filter id="filter0_d_89_5988" x="89.5721" y="22.3613" width="24.3212" height="25.937" filterUnits="userSpaceOnUse" color-interpolation-filters="sRGB">
<feFlood flood-opacity="0" result="BackgroundImageFix"/>
<feColorMatrix in="SourceAlpha" type="matrix" values="0 0 0 0 0 0 0 0 0 0 0 0 0 0 0 0 0 0 127 0" result="hardAlpha"/>
<feOffset dy="1.45234"/>
<feGaussianBlur stdDeviation="0.580936"/>
<feColorMatrix type="matrix" values="0 0 0 0 0 0 0 0 0 0 0 0 0 0 0 0 0 0 0.5 0"/>
<feBlend mode="normal" in2="BackgroundImageFix" result="effect1_dropShadow_89_5988"/>
<feBlend mode="normal" in="SourceGraphic" in2="effect1_dropShadow_89_5988" result="shape"/>
</filter>
</defs>
</svg>
