<svg width="204" height="138" viewBox="0 0 204 138" fill="none" xmlns="http://www.w3.org/2000/svg">
<rect x="10.2078" y="0.455446" width="184.455" height="137.089" rx="3.18812" fill="white" fill-opacity="0.5" stroke="#DAD1C5" stroke-width="0.910891"/>
<rect x="0.871217" y="60.5741" width="202.673" height="40.9901" rx="3.18812" fill="white"/>
<rect x="0.871217" y="60.5741" width="202.673" height="40.9901" rx="3.18812" stroke="#DAD1C5" stroke-width="0.910891"/>
<path d="M17.482 70.5629C17.4579 70.3369 17.3561 70.161 17.1766 70.035C16.999 69.9091 16.7678 69.8461 16.4831 69.8461C16.283 69.8461 16.1114 69.8763 15.9682 69.9367C15.825 69.9971 15.7154 70.079 15.6395 70.1825C15.5636 70.286 15.5248 70.4042 15.5231 70.5371C15.5231 70.6475 15.5481 70.7432 15.5981 70.8243C15.6499 70.9054 15.7197 70.9744 15.8077 71.0313C15.8957 71.0865 15.9932 71.1331 16.1001 71.1711C16.2071 71.209 16.3149 71.2409 16.4236 71.2668L16.9205 71.391C17.1206 71.4376 17.3129 71.5006 17.4975 71.5799C17.6838 71.6593 17.8503 71.7593 17.997 71.8801C18.1453 72.0009 18.2626 72.1466 18.3489 72.3174C18.4352 72.4882 18.4783 72.6884 18.4783 72.9178C18.4783 73.2283 18.3989 73.5018 18.2402 73.7381C18.0815 73.9727 17.8521 74.1565 17.5519 74.2893C17.2534 74.4204 16.892 74.486 16.4676 74.486C16.0553 74.486 15.6973 74.4222 15.3937 74.2945C15.0918 74.1668 14.8554 73.9805 14.6846 73.7355C14.5156 73.4906 14.4241 73.1921 14.4103 72.8402H15.3549C15.3687 73.0248 15.4256 73.1783 15.5257 73.3008C15.6257 73.4233 15.756 73.5147 15.9164 73.5751C16.0786 73.6355 16.2597 73.6657 16.4598 73.6657C16.6686 73.6657 16.8515 73.6346 17.0084 73.5725C17.1672 73.5087 17.2914 73.4207 17.3811 73.3086C17.4708 73.1947 17.5165 73.0619 17.5182 72.91C17.5165 72.772 17.476 72.6582 17.3966 72.5685C17.3173 72.477 17.206 72.4011 17.0628 72.3407C16.9213 72.2786 16.7557 72.2234 16.5659 72.1751L15.963 72.0198C15.5265 71.9077 15.1815 71.7378 14.9279 71.5101C14.676 71.2806 14.5501 70.9761 14.5501 70.5966C14.5501 70.2843 14.6346 70.0109 14.8037 69.7763C14.9745 69.5416 15.2065 69.3596 15.4998 69.2302C15.7931 69.0991 16.1252 69.0336 16.4961 69.0336C16.8722 69.0336 17.2017 69.0991 17.4846 69.2302C17.7692 69.3596 17.9927 69.5399 18.1548 69.7711C18.317 70.0005 18.4007 70.2645 18.4058 70.5629H17.482ZM21.0525 74.4834C20.6539 74.4834 20.3098 74.4006 20.0199 74.235C19.7318 74.0676 19.5102 73.8313 19.3549 73.5259C19.1996 73.2188 19.122 72.8574 19.122 72.4417C19.122 72.0328 19.1996 71.674 19.3549 71.3651C19.5119 71.0546 19.731 70.8131 20.0122 70.6406C20.2934 70.4663 20.6238 70.3792 21.0033 70.3792C21.2483 70.3792 21.4794 70.4189 21.6968 70.4982C21.9159 70.5759 22.1091 70.6966 22.2765 70.8605C22.4455 71.0244 22.5784 71.2332 22.675 71.4868C22.7716 71.7386 22.8199 72.0388 22.8199 72.3873V72.6746H19.5619V72.0431H21.922C21.9202 71.8637 21.8814 71.7041 21.8055 71.5644C21.7296 71.4229 21.6235 71.3117 21.4872 71.2306C21.3526 71.1495 21.1957 71.109 21.0162 71.109C20.8247 71.109 20.6565 71.1555 20.5116 71.2487C20.3667 71.3401 20.2537 71.4609 20.1726 71.611C20.0933 71.7593 20.0527 71.9224 20.051 72.1001V72.6513C20.051 72.8824 20.0933 73.0808 20.1778 73.2464C20.2623 73.4103 20.3805 73.5363 20.5323 73.6243C20.6841 73.7105 20.8618 73.7536 21.0654 73.7536C21.2017 73.7536 21.325 73.7347 21.4355 73.6967C21.5459 73.657 21.6416 73.5992 21.7227 73.5233C21.8038 73.4474 21.865 73.3534 21.9064 73.2413L22.7811 73.3396C22.7259 73.5708 22.6206 73.7726 22.4654 73.9451C22.3118 74.1159 22.1152 74.2488 21.8754 74.3437C21.6356 74.4368 21.3613 74.4834 21.0525 74.4834ZM24.5492 72.0768V74.4058H23.6124V70.431H24.5078V71.1064H24.5543C24.6458 70.8838 24.7916 70.707 24.9917 70.5759C25.1935 70.4448 25.4428 70.3792 25.7395 70.3792C26.0138 70.3792 26.2528 70.4379 26.4564 70.5552C26.6616 70.6725 26.8204 70.8424 26.9325 71.065C27.0464 71.2875 27.1024 71.5575 27.1007 71.8749V74.4058H26.1639V72.0198C26.1639 71.7542 26.0949 71.5463 25.9569 71.3962C25.8206 71.2461 25.6317 71.1711 25.3902 71.1711C25.2263 71.1711 25.0805 71.2073 24.9529 71.2797C24.8269 71.3505 24.7277 71.4531 24.6553 71.5877C24.5845 71.7223 24.5492 71.8853 24.5492 72.0768ZM29.528 74.4756C29.2158 74.4756 28.9363 74.3954 28.6896 74.235C28.4429 74.0745 28.2479 73.8416 28.1048 73.5363C27.9616 73.2309 27.89 72.86 27.89 72.4235C27.89 71.9819 27.9624 71.6093 28.1073 71.3056C28.254 71.0003 28.4515 70.77 28.6999 70.6147C28.9484 70.4577 29.2253 70.3792 29.5306 70.3792C29.7635 70.3792 29.955 70.4189 30.1051 70.4982C30.2552 70.5759 30.3742 70.6699 30.4622 70.7803C30.5502 70.889 30.6183 70.9916 30.6666 71.0883H30.7055V69.106H31.6448V74.4058H30.7236V73.7795H30.6666C30.6183 73.8761 30.5485 73.9788 30.457 74.0875C30.3656 74.1944 30.2448 74.2859 30.0947 74.3618C29.9447 74.4377 29.7557 74.4756 29.528 74.4756ZM29.7894 73.7071C29.9878 73.7071 30.1568 73.6536 30.2966 73.5466C30.4363 73.4379 30.5424 73.287 30.6149 73.0938C30.6873 72.9005 30.7236 72.6754 30.7236 72.4184C30.7236 72.1613 30.6873 71.9379 30.6149 71.7481C30.5441 71.5584 30.4389 71.4109 30.2992 71.3056C30.1612 71.2004 29.9912 71.1478 29.7894 71.1478C29.5806 71.1478 29.4064 71.2021 29.2667 71.3108C29.1269 71.4195 29.0217 71.5696 28.951 71.7611C28.8802 71.9526 28.8449 72.1717 28.8449 72.4184C28.8449 72.6668 28.8802 72.8885 28.951 73.0834C29.0234 73.2766 29.1295 73.4293 29.2692 73.5415C29.4107 73.6519 29.5841 73.7071 29.7894 73.7071ZM34.4027 74.4834C34.0042 74.4834 33.66 74.4006 33.3702 74.235C33.0821 74.0676 32.8604 73.8313 32.7051 73.5259C32.5499 73.2188 32.4722 72.8574 32.4722 72.4417C32.4722 72.0328 32.5499 71.674 32.7051 71.3651C32.8621 71.0546 33.0812 70.8131 33.3624 70.6406C33.6436 70.4663 33.974 70.3792 34.3535 70.3792C34.5985 70.3792 34.8297 70.4189 35.0471 70.4982C35.2662 70.5759 35.4594 70.6966 35.6267 70.8605C35.7958 71.0244 35.9286 71.2332 36.0252 71.4868C36.1218 71.7386 36.1702 72.0388 36.1702 72.3873V72.6746H32.9122V72.0431H35.2722C35.2705 71.8637 35.2317 71.7041 35.1557 71.5644C35.0798 71.4229 34.9737 71.3117 34.8375 71.2306C34.7029 71.1495 34.5459 71.109 34.3665 71.109C34.175 71.109 34.0068 71.1555 33.8619 71.2487C33.717 71.3401 33.604 71.4609 33.5229 71.611C33.4435 71.7593 33.403 71.9224 33.4012 72.1001V72.6513C33.4012 72.8824 33.4435 73.0808 33.528 73.2464C33.6126 73.4103 33.7308 73.5363 33.8826 73.6243C34.0344 73.7105 34.2121 73.7536 34.4157 73.7536C34.5519 73.7536 34.6753 73.7347 34.7857 73.6967C34.8961 73.657 34.9919 73.5992 35.0729 73.5233C35.154 73.4474 35.2153 73.3534 35.2567 73.2413L36.1313 73.3396C36.0761 73.5708 35.9709 73.7726 35.8156 73.9451C35.6621 74.1159 35.4654 74.2488 35.2256 74.3437C34.9858 74.4368 34.7115 74.4834 34.4027 74.4834ZM36.9627 74.4058V70.431H37.871V71.0934H37.9124C37.9848 70.864 38.109 70.6872 38.285 70.5629C38.4627 70.437 38.6654 70.374 38.8931 70.374C38.9449 70.374 39.0027 70.3766 39.0665 70.3818C39.1321 70.3852 39.1864 70.3913 39.2295 70.3999V71.2616C39.1898 71.2478 39.1269 71.2358 39.0406 71.2254C38.9561 71.2133 38.8741 71.2073 38.7948 71.2073C38.624 71.2073 38.4705 71.2444 38.3342 71.3186C38.1996 71.391 38.0935 71.4919 38.0159 71.6213C37.9382 71.7507 37.8994 71.8999 37.8994 72.069V74.4058H36.9627Z" fill="#100F1C"/>
<path d="M17.1178 80.8085C17.0936 80.5941 16.994 80.4281 16.8189 80.3103C16.6438 80.1911 16.4234 80.1314 16.1577 80.1314C15.9675 80.1314 15.803 80.1616 15.6641 80.222C15.5252 80.2809 15.4173 80.3624 15.3403 80.4666C15.2648 80.5692 15.2271 80.6862 15.2271 80.8175C15.2271 80.9277 15.2528 81.0228 15.3041 81.1028C15.3569 81.1828 15.4256 81.25 15.5101 81.3043C15.5962 81.3572 15.6883 81.4017 15.7864 81.4379C15.8845 81.4727 15.9788 81.5013 16.0694 81.524L16.5223 81.6417C16.6702 81.6779 16.8219 81.727 16.9774 81.7889C17.1329 81.8508 17.277 81.9323 17.4099 82.0334C17.5427 82.1346 17.6499 82.2599 17.7314 82.4093C17.8144 82.5588 17.8559 82.7376 17.8559 82.946C17.8559 83.2086 17.788 83.4418 17.6521 83.6456C17.5178 83.8494 17.3223 84.0102 17.0657 84.1279C16.8106 84.2457 16.5019 84.3045 16.1396 84.3045C15.7924 84.3045 15.492 84.2494 15.2384 84.1392C14.9848 84.029 14.7863 83.8728 14.6429 83.6705C14.4995 83.4667 14.4203 83.2252 14.4052 82.946H15.1071C15.1207 83.1135 15.175 83.2531 15.2701 83.3648C15.3667 83.475 15.4898 83.5573 15.6392 83.6117C15.7901 83.6645 15.9554 83.6909 16.1351 83.6909C16.3328 83.6909 16.5087 83.66 16.6627 83.5981C16.8181 83.5347 16.9404 83.4471 17.0295 83.3354C17.1185 83.2222 17.1631 83.0901 17.1631 82.9392C17.1631 82.8018 17.1238 82.6893 17.0453 82.6018C16.9683 82.5142 16.8634 82.4418 16.7306 82.3844C16.5993 82.327 16.4506 82.2765 16.2845 82.2327L15.7366 82.0833C15.3652 81.9821 15.0709 81.8334 14.8535 81.6372C14.6376 81.441 14.5297 81.1813 14.5297 80.8583C14.5297 80.5911 14.6022 80.3579 14.7471 80.1586C14.892 79.9594 15.0882 79.8046 15.3358 79.6944C15.5833 79.5827 15.8626 79.5269 16.1736 79.5269C16.4876 79.5269 16.7645 79.582 17.0046 79.6922C17.2461 79.8024 17.4363 79.9541 17.5752 80.1473C17.714 80.339 17.7865 80.5594 17.7925 80.8085H17.1178ZM20.8408 82.7852V80.7496H21.5201V84.2275H20.8544V83.6252H20.8182C20.7382 83.8109 20.6099 83.9656 20.4333 84.0894C20.2582 84.2117 20.04 84.2728 19.7789 84.2728C19.5555 84.2728 19.3577 84.2238 19.1856 84.1256C19.0151 84.026 18.8807 83.8788 18.7826 83.6841C18.686 83.4894 18.6377 83.2486 18.6377 82.9618V80.7496H19.3147V82.8803C19.3147 83.1173 19.3804 83.306 19.5117 83.4464C19.643 83.5867 19.8136 83.6569 20.0234 83.6569C20.1502 83.6569 20.2763 83.6252 20.4016 83.5618C20.5284 83.4984 20.6333 83.4026 20.7163 83.2743C20.8008 83.146 20.8423 82.9829 20.8408 82.7852ZM22.4841 84.2275V79.5903H23.1612V81.3134H23.2019C23.2412 81.2409 23.2978 81.1572 23.3717 81.0621C23.4457 80.967 23.5484 80.8839 23.6797 80.813C23.811 80.7405 23.9846 80.7043 24.2005 80.7043C24.4812 80.7043 24.7318 80.7753 24.9522 80.9171C25.1726 81.059 25.3454 81.2636 25.4707 81.5308C25.5975 81.798 25.6609 82.1195 25.6609 82.4954C25.6609 82.8712 25.5983 83.1935 25.473 83.4622C25.3477 83.7294 25.1756 83.9354 24.9567 84.0804C24.7379 84.2238 24.488 84.2955 24.2073 84.2955C23.9959 84.2955 23.8231 84.26 23.6887 84.189C23.5559 84.1181 23.4517 84.0351 23.3763 83.94C23.3008 83.8449 23.2427 83.7603 23.2019 83.6864H23.1453V84.2275H22.4841ZM23.1476 82.4886C23.1476 82.7331 23.1831 82.9475 23.254 83.1316C23.3249 83.3158 23.4276 83.4599 23.5619 83.5641C23.6963 83.6668 23.8608 83.7181 24.0556 83.7181C24.2578 83.7181 24.4269 83.6645 24.5628 83.5573C24.6986 83.4486 24.8013 83.3014 24.8707 83.1158C24.9417 82.9301 24.9771 82.721 24.9771 82.4886C24.9771 82.2591 24.9424 82.0531 24.873 81.8704C24.805 81.6878 24.7024 81.5436 24.565 81.4379C24.4292 81.3323 24.2593 81.2794 24.0556 81.2794C23.8593 81.2794 23.6933 81.33 23.5574 81.4311C23.4231 81.5323 23.3212 81.6734 23.2517 81.8546C23.1823 82.0357 23.1476 82.247 23.1476 82.4886ZM26.4212 80.7496H27.0982V84.454C27.0982 84.6864 27.0559 84.8827 26.9714 85.0427C26.8884 85.2027 26.7646 85.3242 26.6001 85.4072C26.437 85.4903 26.2355 85.5318 25.9955 85.5318C25.9713 85.5318 25.9487 85.5318 25.9276 85.5318C25.9049 85.5318 25.8815 85.531 25.8574 85.5295V84.9476C25.8785 84.9476 25.8974 84.9476 25.914 84.9476C25.9291 84.9476 25.9464 84.9476 25.9661 84.9476C26.1261 84.9476 26.2415 84.9046 26.3125 84.8185C26.3849 84.734 26.4212 84.611 26.4212 84.4494V80.7496ZM26.7563 80.213C26.6385 80.213 26.5374 80.1737 26.4529 80.0952C26.3699 80.0152 26.3283 79.9201 26.3283 79.8099C26.3283 79.6982 26.3699 79.6031 26.4529 79.5246C26.5374 79.4446 26.6385 79.4046 26.7563 79.4046C26.874 79.4046 26.9744 79.4446 27.0574 79.5246C27.142 79.6031 27.1842 79.6982 27.1842 79.8099C27.1842 79.9201 27.142 80.0152 27.0574 80.0952C26.9744 80.1737 26.874 80.213 26.7563 80.213ZM29.508 84.2977C29.1653 84.2977 28.8702 84.2245 28.6226 84.0781C28.3766 83.9302 28.1864 83.7226 28.052 83.4554C27.9192 83.1867 27.8528 82.872 27.8528 82.5112C27.8528 82.155 27.9192 81.841 28.052 81.5693C28.1864 81.2975 28.3736 81.0855 28.6136 80.933C28.8551 80.7805 29.1374 80.7043 29.4604 80.7043C29.6567 80.7043 29.8469 80.7368 30.031 80.8017C30.2152 80.8666 30.3805 80.9685 30.5269 81.1073C30.6733 81.2462 30.7888 81.4266 30.8733 81.6485C30.9579 81.8689 31.0001 82.1368 31.0001 82.4523V82.6924H28.2354V82.1852H30.3367C30.3367 82.007 30.3005 81.8493 30.228 81.7119C30.1556 81.573 30.0537 81.4636 29.9223 81.3836C29.7925 81.3036 29.64 81.2636 29.4649 81.2636C29.2747 81.2636 29.1087 81.3104 28.9668 81.404C28.8264 81.4961 28.7177 81.6168 28.6407 81.7663C28.5653 81.9142 28.5275 82.075 28.5275 82.2486V82.6448C28.5275 82.8773 28.5683 83.075 28.6498 83.238C28.7328 83.4011 28.8483 83.5256 28.9962 83.6117C29.1442 83.6962 29.317 83.7385 29.5148 83.7385C29.6431 83.7385 29.7601 83.7203 29.8657 83.6841C29.9714 83.6464 30.0627 83.5905 30.1397 83.5166C30.2167 83.4426 30.2756 83.3513 30.3163 83.2426L30.9571 83.3581C30.9058 83.5467 30.8137 83.712 30.6809 83.8539C30.5495 83.9943 30.3842 84.1038 30.185 84.1823C29.9872 84.2592 29.7616 84.2977 29.508 84.2977ZM33.2163 84.2977C32.8797 84.2977 32.5899 84.2215 32.3468 84.069C32.1053 83.9151 31.9196 83.703 31.7898 83.4328C31.66 83.1626 31.5951 82.8531 31.5951 82.5044C31.5951 82.1512 31.6615 81.8395 31.7943 81.5693C31.9272 81.2975 32.1144 81.0855 32.3559 80.933C32.5974 80.7805 32.8819 80.7043 33.2095 80.7043C33.4737 80.7043 33.7092 80.7534 33.916 80.8515C34.1228 80.9481 34.2896 81.084 34.4164 81.2591C34.5447 81.4342 34.6209 81.6387 34.6451 81.8727H33.9862C33.9499 81.7096 33.8669 81.5693 33.7371 81.4515C33.6088 81.3338 33.4367 81.2749 33.2208 81.2749C33.0321 81.2749 32.8669 81.3247 32.725 81.4243C32.5846 81.5225 32.4751 81.6629 32.3966 81.8455C32.3181 82.0267 32.2789 82.241 32.2789 82.4886C32.2789 82.7422 32.3174 82.961 32.3944 83.1452C32.4714 83.3294 32.58 83.472 32.7204 83.5732C32.8623 83.6743 33.0291 83.7249 33.2208 83.7249C33.3491 83.7249 33.4654 83.7015 33.5695 83.6547C33.6752 83.6064 33.7635 83.5377 33.8345 83.4486C33.9069 83.3596 33.9575 83.2524 33.9862 83.1271H34.6451C34.6209 83.352 34.5477 83.5528 34.4254 83.7294C34.3032 83.906 34.1394 84.0449 33.9341 84.146C33.7303 84.2472 33.491 84.2977 33.2163 84.2977ZM36.9926 80.7496V81.293H35.0928V80.7496H36.9926ZM35.6023 79.9163H36.2793V83.2063C36.2793 83.3377 36.2989 83.4365 36.3382 83.503C36.3774 83.5679 36.428 83.6124 36.4899 83.6366C36.5533 83.6592 36.622 83.6705 36.696 83.6705C36.7503 83.6705 36.7978 83.6668 36.8386 83.6592C36.8794 83.6517 36.9111 83.6456 36.9337 83.6411L37.056 84.2004C37.0167 84.2155 36.9609 84.2306 36.8884 84.2457C36.816 84.2623 36.7254 84.2713 36.6167 84.2728C36.4386 84.2758 36.2725 84.2441 36.1186 84.1777C35.9646 84.1113 35.84 84.0087 35.7449 83.8698C35.6498 83.7309 35.6023 83.5566 35.6023 83.3467V79.9163ZM40.8871 85.6042C40.6109 85.6042 40.3732 85.568 40.1739 85.4955C39.9762 85.4231 39.8146 85.3272 39.6893 85.208C39.5641 85.0887 39.4705 84.9581 39.4086 84.8163L39.9905 84.5762C40.0312 84.6427 40.0856 84.7129 40.1535 84.7868C40.223 84.8623 40.3165 84.9264 40.4343 84.9793C40.5535 85.0321 40.7068 85.0585 40.8939 85.0585C41.1506 85.0585 41.3627 84.9959 41.5302 84.8706C41.6978 84.7468 41.7815 84.5491 41.7815 84.2774V83.5935H41.7385C41.6978 83.6675 41.6389 83.7498 41.5619 83.8403C41.4864 83.9309 41.3823 84.0094 41.2494 84.0758C41.1166 84.1423 40.9438 84.1755 40.7309 84.1755C40.4562 84.1755 40.2086 84.1113 39.9882 83.983C39.7693 83.8532 39.5958 83.6622 39.4674 83.4101C39.3406 83.1565 39.2772 82.8448 39.2772 82.475C39.2772 82.1051 39.3399 81.7881 39.4652 81.524C39.592 81.2598 39.7656 81.0575 39.986 80.9171C40.2064 80.7753 40.4562 80.7043 40.7354 80.7043C40.9513 80.7043 41.1257 80.7405 41.2585 80.813C41.3913 80.8839 41.4947 80.967 41.5687 81.0621C41.6442 81.1572 41.7023 81.2409 41.7431 81.3134H41.7929V80.7496H42.4563V84.3045C42.4563 84.6034 42.3869 84.8487 42.248 85.0404C42.1091 85.2321 41.9212 85.374 41.6842 85.4661C41.4487 85.5582 41.183 85.6042 40.8871 85.6042ZM40.8804 83.6139C41.0751 83.6139 41.2396 83.5686 41.374 83.4781C41.5098 83.386 41.6125 83.2546 41.6819 83.0841C41.7529 82.912 41.7883 82.7059 41.7883 82.4659C41.7883 82.2319 41.7536 82.0259 41.6842 81.8478C41.6147 81.6696 41.5128 81.5308 41.3785 81.4311C41.2442 81.33 41.0781 81.2794 40.8804 81.2794C40.6766 81.2794 40.5067 81.3323 40.3709 81.4379C40.235 81.5421 40.1324 81.684 40.0629 81.8636C39.995 82.0433 39.9611 82.244 39.9611 82.4659C39.9611 82.6939 39.9958 82.8939 40.0652 83.066C40.1347 83.238 40.2373 83.3724 40.3732 83.469C40.5105 83.5656 40.6796 83.6139 40.8804 83.6139ZM44.8293 84.2977C44.5032 84.2977 44.2187 84.223 43.9756 84.0736C43.7326 83.9241 43.5439 83.7151 43.4096 83.4464C43.2752 83.1777 43.208 82.8637 43.208 82.5044C43.208 82.1436 43.2752 81.8281 43.4096 81.5579C43.5439 81.2877 43.7326 81.0779 43.9756 80.9285C44.2187 80.779 44.5032 80.7043 44.8293 80.7043C45.1553 80.7043 45.4399 80.779 45.6829 80.9285C45.9259 81.0779 46.1146 81.2877 46.249 81.5579C46.3833 81.8281 46.4505 82.1436 46.4505 82.5044C46.4505 82.8637 46.3833 83.1777 46.249 83.4464C46.1146 83.7151 45.9259 83.9241 45.6829 84.0736C45.4399 84.223 45.1553 84.2977 44.8293 84.2977ZM44.8315 83.7294C45.0429 83.7294 45.218 83.6735 45.3569 83.5618C45.4957 83.4501 45.5984 83.3014 45.6648 83.1158C45.7327 82.9301 45.7667 82.7256 45.7667 82.5022C45.7667 82.2803 45.7327 82.0765 45.6648 81.8908C45.5984 81.7036 45.4957 81.5534 45.3569 81.4402C45.218 81.327 45.0429 81.2704 44.8315 81.2704C44.6187 81.2704 44.4421 81.327 44.3017 81.4402C44.1628 81.5534 44.0594 81.7036 43.9915 81.8908C43.9251 82.0765 43.8919 82.2803 43.8919 82.5022C43.8919 82.7256 43.9251 82.9301 43.9915 83.1158C44.0594 83.3014 44.1628 83.4501 44.3017 83.5618C44.4421 83.6735 44.6187 83.7294 44.8315 83.7294ZM48.7052 84.2977C48.3625 84.2977 48.0674 84.2245 47.8198 84.0781C47.5738 83.9302 47.3836 83.7226 47.2492 83.4554C47.1164 83.1867 47.05 82.872 47.05 82.5112C47.05 82.155 47.1164 81.841 47.2492 81.5693C47.3836 81.2975 47.5708 81.0855 47.8108 80.933C48.0523 80.7805 48.3346 80.7043 48.6576 80.7043C48.8539 80.7043 49.0441 80.7368 49.2282 80.8017C49.4124 80.8666 49.5777 80.9685 49.7241 81.1073C49.8705 81.2462 49.986 81.4266 50.0705 81.6485C50.1551 81.8689 50.1973 82.1368 50.1973 82.4523V82.6924H47.4326V82.1852H49.5339C49.5339 82.007 49.4977 81.8493 49.4252 81.7119C49.3528 81.573 49.2509 81.4636 49.1195 81.3836C48.9897 81.3036 48.8373 81.2636 48.6622 81.2636C48.472 81.2636 48.3059 81.3104 48.164 81.404C48.0236 81.4961 47.9149 81.6168 47.8379 81.7663C47.7625 81.9142 47.7247 82.075 47.7247 82.2486V82.6448C47.7247 82.8773 47.7655 83.075 47.847 83.238C47.93 83.4011 48.0455 83.5256 48.1934 83.6117C48.3414 83.6962 48.5142 83.7385 48.712 83.7385C48.8403 83.7385 48.9573 83.7203 49.0629 83.6841C49.1686 83.6464 49.2599 83.5905 49.3369 83.5166C49.4139 83.4426 49.4728 83.3513 49.5135 83.2426L50.1543 83.3581C50.103 83.5467 50.0109 83.712 49.8781 83.8539C49.7467 83.9943 49.5815 84.1038 49.3822 84.1823C49.1844 84.2592 48.9588 84.2977 48.7052 84.2977ZM53.5547 81.5987L52.9411 81.7074C52.9154 81.6289 52.8747 81.5542 52.8188 81.4832C52.7645 81.4123 52.6905 81.3542 52.5969 81.3089C52.5033 81.2636 52.3863 81.2409 52.246 81.2409C52.0542 81.2409 51.8942 81.284 51.7659 81.37C51.6376 81.4545 51.5735 81.564 51.5735 81.6983C51.5735 81.8146 51.6165 81.9082 51.7025 81.9791C51.7886 82.05 51.9274 82.1082 52.1192 82.1535L52.6716 82.2803C52.9917 82.3542 53.2302 82.4682 53.3872 82.6222C53.5441 82.7761 53.6226 82.9761 53.6226 83.2222C53.6226 83.4305 53.5623 83.6162 53.4415 83.7792C53.3222 83.9407 53.1554 84.0675 52.9411 84.1596C52.7282 84.2517 52.4814 84.2977 52.2007 84.2977C51.8112 84.2977 51.4935 84.2147 51.2474 84.0487C51.0013 83.8811 50.8504 83.6434 50.7945 83.3354L51.4489 83.2358C51.4897 83.4064 51.5735 83.5354 51.7003 83.623C51.8271 83.709 51.9924 83.752 52.1961 83.752C52.418 83.752 52.5954 83.706 52.7282 83.6139C52.8611 83.5203 52.9275 83.4064 52.9275 83.272C52.9275 83.1633 52.8867 83.072 52.8052 82.998C52.7252 82.9241 52.6022 82.8682 52.4362 82.8305L51.8474 82.7014C51.5229 82.6274 51.2829 82.5097 51.1274 82.3482C50.9734 82.1867 50.8964 81.9821 50.8964 81.7346C50.8964 81.5293 50.9538 81.3496 51.0685 81.1957C51.1832 81.0417 51.3417 80.9217 51.544 80.8356C51.7463 80.7481 51.978 80.7043 52.2392 80.7043C52.615 80.7043 52.9109 80.7858 53.1268 80.9488C53.3426 81.1104 53.4853 81.327 53.5547 81.5987ZM56.7315 82.1625V84.2275H56.0545V79.5903H56.7225V81.3157H56.7655C56.847 81.1285 56.9715 80.9798 57.1391 80.8696C57.3066 80.7594 57.5255 80.7043 57.7957 80.7043C58.0342 80.7043 58.2425 80.7534 58.4207 80.8515C58.6003 80.9496 58.7392 81.096 58.8373 81.2908C58.9369 81.484 58.9867 81.7255 58.9867 82.0153V84.2275H58.3097V82.0968C58.3097 81.8417 58.2441 81.644 58.1127 81.5036C57.9814 81.3617 57.7987 81.2908 57.5648 81.2908C57.4048 81.2908 57.2614 81.3247 57.1346 81.3926C57.0093 81.4606 56.9104 81.5602 56.8379 81.6915C56.767 81.8214 56.7315 81.9783 56.7315 82.1625ZM61.3892 84.2977C61.0465 84.2977 60.7514 84.2245 60.5038 84.0781C60.2578 83.9302 60.0676 83.7226 59.9332 83.4554C59.8004 83.1867 59.734 82.872 59.734 82.5112C59.734 82.155 59.8004 81.841 59.9332 81.5693C60.0676 81.2975 60.2547 81.0855 60.4948 80.933C60.7363 80.7805 61.0186 80.7043 61.3416 80.7043C61.5378 80.7043 61.728 80.7368 61.9122 80.8017C62.0964 80.8666 62.2617 80.9685 62.4081 81.1073C62.5545 81.2462 62.67 81.4266 62.7545 81.6485C62.8391 81.8689 62.8813 82.1368 62.8813 82.4523V82.6924H60.1166V82.1852H62.2179C62.2179 82.007 62.1817 81.8493 62.1092 81.7119C62.0367 81.573 61.9348 81.4636 61.8035 81.3836C61.6737 81.3036 61.5212 81.2636 61.3461 81.2636C61.1559 81.2636 60.9899 81.3104 60.848 81.404C60.7076 81.4961 60.5989 81.6168 60.5219 81.7663C60.4465 81.9142 60.4087 82.075 60.4087 82.2486V82.6448C60.4087 82.8773 60.4495 83.075 60.531 83.238C60.614 83.4011 60.7295 83.5256 60.8774 83.6117C61.0254 83.6962 61.1982 83.7385 61.3959 83.7385C61.5243 83.7385 61.6412 83.7203 61.7469 83.6841C61.8526 83.6464 61.9439 83.5905 62.0209 83.5166C62.0979 83.4426 62.1567 83.3513 62.1975 83.2426L62.8383 83.3581C62.787 83.5467 62.6949 83.712 62.5621 83.8539C62.4307 83.9943 62.2654 84.1038 62.0662 84.1823C61.8684 84.2592 61.6428 84.2977 61.3892 84.2977ZM63.6325 84.2275V80.7496H64.2869V81.3021H64.3231C64.3865 81.1149 64.4982 80.9677 64.6582 80.8605C64.8197 80.7519 65.0024 80.6975 65.2062 80.6975C65.2484 80.6975 65.2983 80.699 65.3556 80.702C65.4145 80.7051 65.4605 80.7088 65.4937 80.7134V81.3609C65.4666 81.3534 65.4183 81.3451 65.3488 81.336C65.2794 81.3255 65.21 81.3202 65.1405 81.3202C64.9805 81.3202 64.8379 81.3542 64.7126 81.4221C64.5888 81.4885 64.4907 81.5813 64.4182 81.7006C64.3457 81.8183 64.3095 81.9527 64.3095 82.1036V84.2275H63.6325ZM67.4541 84.2977C67.1114 84.2977 66.8163 84.2245 66.5687 84.0781C66.3227 83.9302 66.1325 83.7226 65.9981 83.4554C65.8653 83.1867 65.7989 82.872 65.7989 82.5112C65.7989 82.155 65.8653 81.841 65.9981 81.5693C66.1325 81.2975 66.3196 81.0855 66.5597 80.933C66.8012 80.7805 67.0835 80.7043 67.4065 80.7043C67.6027 80.7043 67.7929 80.7368 67.9771 80.8017C68.1613 80.8666 68.3266 80.9685 68.473 81.1073C68.6194 81.2462 68.7349 81.4266 68.8194 81.6485C68.904 81.8689 68.9462 82.1368 68.9462 82.4523V82.6924H66.1815V82.1852H68.2828C68.2828 82.007 68.2466 81.8493 68.1741 81.7119C68.1016 81.573 67.9997 81.4636 67.8684 81.3836C67.7386 81.3036 67.5861 81.2636 67.411 81.2636C67.2208 81.2636 67.0548 81.3104 66.9129 81.404C66.7725 81.4961 66.6638 81.6168 66.5868 81.7663C66.5114 81.9142 66.4736 82.075 66.4736 82.2486V82.6448C66.4736 82.8773 66.5144 83.075 66.5959 83.238C66.6789 83.4011 66.7944 83.5256 66.9423 83.6117C67.0903 83.6962 67.2631 83.7385 67.4608 83.7385C67.5892 83.7385 67.7061 83.7203 67.8118 83.6841C67.9175 83.6464 68.0088 83.5905 68.0858 83.5166C68.1628 83.4426 68.2216 83.3513 68.2624 83.2426L68.9032 83.3581C68.8519 83.5467 68.7598 83.712 68.627 83.8539C68.4956 83.9943 68.3303 84.1038 68.1311 84.1823C67.9333 84.2592 67.7077 84.2977 67.4541 84.2977Z" fill="#100F1C"/>
<path d="M14.2308 89.4121H15.0256L16.237 91.5201H16.2868L17.4982 89.4121H18.2929L16.6106 92.2288V94.0493H15.9132V92.2288L14.2308 89.4121ZM19.7913 94.1195C19.4653 94.1195 19.1807 94.0448 18.9377 93.8953C18.6947 93.7459 18.506 93.5368 18.3716 93.2681C18.2373 92.9994 18.1701 92.6855 18.1701 92.3262C18.1701 91.9654 18.2373 91.6499 18.3716 91.3797C18.506 91.1095 18.6947 90.8997 18.9377 90.7502C19.1807 90.6008 19.4653 90.5261 19.7913 90.5261C20.1174 90.5261 20.4019 90.6008 20.645 90.7502C20.888 90.8997 21.0767 91.1095 21.211 91.3797C21.3454 91.6499 21.4126 91.9654 21.4126 92.3262C21.4126 92.6855 21.3454 92.9994 21.211 93.2681C21.0767 93.5368 20.888 93.7459 20.645 93.8953C20.4019 94.0448 20.1174 94.1195 19.7913 94.1195ZM19.7936 93.5512C20.0049 93.5512 20.18 93.4953 20.3189 93.3836C20.4578 93.2719 20.5604 93.1232 20.6269 92.9376C20.6948 92.7519 20.7288 92.5473 20.7288 92.3239C20.7288 92.102 20.6948 91.8982 20.6269 91.7126C20.5604 91.5254 20.4578 91.3752 20.3189 91.262C20.18 91.1488 20.0049 91.0922 19.7936 91.0922C19.5808 91.0922 19.4041 91.1488 19.2638 91.262C19.1249 91.3752 19.0215 91.5254 18.9535 91.7126C18.8871 91.8982 18.8539 92.102 18.8539 92.3239C18.8539 92.5473 18.8871 92.7519 18.9535 92.9376C19.0215 93.1232 19.1249 93.2719 19.2638 93.3836C19.4041 93.4953 19.5808 93.5512 19.7936 93.5512ZM24.3714 92.607V90.5714H25.0507V94.0493H24.385V93.447H24.3488C24.2688 93.6327 24.1405 93.7874 23.9639 93.9112C23.7887 94.0335 23.5706 94.0946 23.3095 94.0946C23.0861 94.0946 22.8883 94.0455 22.7162 93.9474C22.5457 93.8478 22.4113 93.7006 22.3132 93.5059C22.2166 93.3112 22.1683 93.0704 22.1683 92.7836V90.5714H22.8453V92.7021C22.8453 92.9391 22.911 93.1278 23.0423 93.2681C23.1736 93.4085 23.3442 93.4787 23.554 93.4787C23.6808 93.4787 23.8069 93.447 23.9322 93.3836C24.059 93.3202 24.1639 93.2244 24.2469 93.0961C24.3314 92.9677 24.3729 92.8047 24.3714 92.607ZM25.9604 94.0493V90.5714H26.6148V91.1239H26.651C26.7144 90.9367 26.8261 90.7895 26.9861 90.6823C27.1476 90.5736 27.3303 90.5193 27.5341 90.5193C27.5763 90.5193 27.6262 90.5208 27.6835 90.5238C27.7424 90.5268 27.7884 90.5306 27.8216 90.5351V91.1827C27.7945 91.1752 27.7462 91.1669 27.6767 91.1578C27.6073 91.1473 27.5378 91.142 27.4684 91.142C27.3084 91.142 27.1657 91.1759 27.0405 91.2439C26.9167 91.3103 26.8186 91.4031 26.7461 91.5224C26.6736 91.6401 26.6374 91.7745 26.6374 91.9254V94.0493H25.9604ZM31.5939 94.1195C31.2513 94.1195 30.9562 94.0463 30.7086 93.8999C30.4626 93.7519 30.2724 93.5444 30.138 93.2772C30.0052 93.0085 29.9387 92.6938 29.9387 92.333C29.9387 91.9767 30.0052 91.6628 30.138 91.391C30.2724 91.1193 30.4595 90.9072 30.6995 90.7548C30.9411 90.6023 31.2234 90.5261 31.5464 90.5261C31.7426 90.5261 31.9328 90.5585 32.117 90.6234C32.3012 90.6884 32.4664 90.7902 32.6129 90.9291C32.7593 91.068 32.8748 91.2484 32.9593 91.4703C33.0438 91.6907 33.0861 91.9586 33.0861 92.2741V92.5141H30.3214V92.0069H32.4227C32.4227 91.8288 32.3864 91.6711 32.314 91.5337C32.2415 91.3948 32.1396 91.2854 32.0083 91.2054C31.8785 91.1254 31.726 91.0854 31.5509 91.0854C31.3607 91.0854 31.1947 91.1322 31.0528 91.2257C30.9124 91.3178 30.8037 91.4386 30.7267 91.588C30.6512 91.736 30.6135 91.8967 30.6135 92.0703V92.4666C30.6135 92.699 30.6543 92.8968 30.7358 93.0598C30.8188 93.2229 30.9343 93.3474 31.0822 93.4334C31.2301 93.518 31.403 93.5602 31.6007 93.5602C31.729 93.5602 31.846 93.5421 31.9517 93.5059C32.0574 93.4681 32.1487 93.4123 32.2257 93.3383C32.3027 93.2644 32.3615 93.173 32.4023 93.0644L33.0431 93.1798C32.9918 93.3685 32.8997 93.5338 32.7668 93.6757C32.6355 93.8161 32.4702 93.9255 32.271 94.004C32.0732 94.081 31.8475 94.1195 31.5939 94.1195ZM33.8373 94.0493V90.5714H34.4871V91.1374H34.5302C34.6026 90.9457 34.7211 90.7963 34.8857 90.6891C35.0502 90.5804 35.2472 90.5261 35.4766 90.5261C35.7091 90.5261 35.9038 90.5804 36.0608 90.6891C36.2193 90.7978 36.3363 90.9472 36.4118 91.1374H36.448C36.531 90.9518 36.6631 90.8038 36.8443 90.6936C37.0254 90.5819 37.2413 90.5261 37.4918 90.5261C37.8073 90.5261 38.0647 90.625 38.264 90.8227C38.4647 91.0205 38.5651 91.3186 38.5651 91.7171V94.0493H37.8881V91.7805C37.8881 91.545 37.8239 91.3744 37.6956 91.2688C37.5673 91.1631 37.4141 91.1103 37.236 91.1103C37.0156 91.1103 36.8443 91.1782 36.722 91.3141C36.5997 91.4484 36.5386 91.6212 36.5386 91.8326V94.0493H35.8638V91.7375C35.8638 91.5488 35.805 91.3971 35.6872 91.2824C35.5695 91.1676 35.4163 91.1103 35.2276 91.1103C35.0992 91.1103 34.9808 91.1442 34.8721 91.2122C34.7649 91.2786 34.6781 91.3714 34.6117 91.4907C34.5468 91.6099 34.5143 91.748 34.5143 91.905V94.0493H33.8373ZM40.4847 94.1263C40.2643 94.1263 40.065 94.0855 39.8869 94.004C39.7088 93.921 39.5676 93.801 39.4635 93.644C39.3608 93.487 39.3095 93.2946 39.3095 93.0666C39.3095 92.8704 39.3472 92.7089 39.4227 92.5821C39.4982 92.4553 39.6001 92.3549 39.7284 92.2809C39.8567 92.2069 40.0001 92.1511 40.1586 92.1133C40.3171 92.0756 40.4786 92.0469 40.6432 92.0273C40.8515 92.0032 41.0206 91.9835 41.1504 91.9684C41.2802 91.9518 41.3745 91.9254 41.4334 91.8892C41.4923 91.853 41.5217 91.7941 41.5217 91.7126V91.6967C41.5217 91.499 41.4659 91.3458 41.3542 91.2371C41.244 91.1284 41.0794 91.074 40.8605 91.074C40.6326 91.074 40.453 91.1246 40.3216 91.2257C40.1918 91.3254 40.102 91.4363 40.0522 91.5586L39.4159 91.4137C39.4914 91.2024 39.6016 91.0318 39.7465 90.902C39.8929 90.7706 40.0612 90.6755 40.2514 90.6167C40.4416 90.5563 40.6417 90.5261 40.8515 90.5261C40.9904 90.5261 41.1375 90.5427 41.293 90.5759C41.45 90.6076 41.5964 90.6665 41.7323 90.7525C41.8697 90.8386 41.9821 90.9616 42.0697 91.1216C42.1572 91.2801 42.201 91.4861 42.201 91.7397V94.0493H41.5398V93.5738H41.5127C41.4689 93.6614 41.4032 93.7474 41.3157 93.8319C41.2281 93.9165 41.1157 93.9867 40.9783 94.0425C40.8409 94.0984 40.6764 94.1263 40.4847 94.1263ZM40.6319 93.5829C40.819 93.5829 40.979 93.5459 41.1119 93.4719C41.2462 93.398 41.3481 93.3013 41.4176 93.1821C41.4885 93.0613 41.524 92.9323 41.524 92.7949V92.3466C41.4998 92.3707 41.453 92.3934 41.3836 92.4145C41.3157 92.4341 41.2379 92.4515 41.1504 92.4666C41.0628 92.4802 40.9775 92.493 40.8945 92.5051C40.8115 92.5156 40.742 92.5247 40.6862 92.5322C40.5549 92.5488 40.4349 92.5768 40.3262 92.616C40.219 92.6553 40.133 92.7119 40.068 92.7858C40.0046 92.8583 39.9729 92.9549 39.9729 93.0757C39.9729 93.2432 40.0348 93.37 40.1586 93.4561C40.2824 93.5406 40.4401 93.5829 40.6319 93.5829ZM43.1028 94.0493V90.5714H43.7798V94.0493H43.1028ZM43.4447 90.0347C43.3269 90.0347 43.2258 89.9955 43.1412 89.917C43.0582 89.837 43.0167 89.7419 43.0167 89.6317C43.0167 89.52 43.0582 89.4249 43.1412 89.3464C43.2258 89.2664 43.3269 89.2264 43.4447 89.2264C43.5624 89.2264 43.6628 89.2664 43.7458 89.3464C43.8303 89.4249 43.8726 89.52 43.8726 89.6317C43.8726 89.7419 43.8303 89.837 43.7458 89.917C43.6628 89.9955 43.5624 90.0347 43.4447 90.0347ZM45.3676 89.4121V94.0493H44.6906V89.4121H45.3676ZM47.9659 95.3535V90.5714H48.6271V91.1352H48.6837C48.7229 91.0627 48.7795 90.9789 48.8535 90.8838C48.9275 90.7887 49.0301 90.7057 49.1614 90.6348C49.2928 90.5623 49.4664 90.5261 49.6822 90.5261C49.963 90.5261 50.2136 90.597 50.434 90.7389C50.6543 90.8808 50.8272 91.0854 50.9525 91.3525C51.0793 91.6197 51.1427 91.9413 51.1427 92.3171C51.1427 92.693 51.08 93.0153 50.9547 93.284C50.8295 93.5512 50.6574 93.7572 50.4385 93.9021C50.2196 94.0455 49.9698 94.1172 49.689 94.1172C49.4777 94.1172 49.3048 94.0818 49.1705 94.0108C49.0376 93.9399 48.9335 93.8569 48.858 93.7618C48.7825 93.6667 48.7244 93.5821 48.6837 93.5082H48.6429V95.3535H47.9659ZM48.6293 92.3103C48.6293 92.5549 48.6648 92.7692 48.7357 92.9534C48.8067 93.1376 48.9093 93.2817 49.0437 93.3859C49.178 93.4885 49.3426 93.5399 49.5373 93.5399C49.7396 93.5399 49.9086 93.4863 50.0445 93.3791C50.1804 93.2704 50.283 93.1232 50.3524 92.9376C50.4234 92.7519 50.4589 92.5428 50.4589 92.3103C50.4589 92.0809 50.4241 91.8748 50.3547 91.6922C50.2868 91.5095 50.1841 91.3654 50.0468 91.2597C49.9109 91.154 49.7411 91.1012 49.5373 91.1012C49.3411 91.1012 49.175 91.1518 49.0392 91.2529C48.9048 91.3541 48.8029 91.4952 48.7335 91.6763C48.664 91.8575 48.6293 92.0688 48.6293 92.3103ZM51.9012 94.0493V90.5714H52.5556V91.1239H52.5918C52.6552 90.9367 52.7669 90.7895 52.9269 90.6823C53.0885 90.5736 53.2711 90.5193 53.4749 90.5193C53.5172 90.5193 53.567 90.5208 53.6243 90.5238C53.6832 90.5268 53.7293 90.5306 53.7625 90.5351V91.1827C53.7353 91.1752 53.687 91.1669 53.6175 91.1578C53.5481 91.1473 53.4787 91.142 53.4092 91.142C53.2492 91.142 53.1066 91.1759 52.9813 91.2439C52.8575 91.3103 52.7594 91.4031 52.6869 91.5224C52.6145 91.6401 52.5782 91.7745 52.5782 91.9254V94.0493H51.9012ZM55.7228 94.1195C55.3801 94.1195 55.085 94.0463 54.8374 93.8999C54.5914 93.7519 54.4012 93.5444 54.2668 93.2772C54.134 93.0085 54.0676 92.6938 54.0676 92.333C54.0676 91.9767 54.134 91.6628 54.2668 91.391C54.4012 91.1193 54.5884 90.9072 54.8284 90.7548C55.0699 90.6023 55.3522 90.5261 55.6752 90.5261C55.8715 90.5261 56.0617 90.5585 56.2458 90.6234C56.43 90.6884 56.5953 90.7902 56.7417 90.9291C56.8881 91.068 57.0036 91.2484 57.0881 91.4703C57.1727 91.6907 57.2149 91.9586 57.2149 92.2741V92.5141H54.4502V92.0069H56.5515C56.5515 91.8288 56.5153 91.6711 56.4428 91.5337C56.3704 91.3948 56.2685 91.2854 56.1371 91.2054C56.0073 91.1254 55.8549 91.0854 55.6797 91.0854C55.4895 91.0854 55.3235 91.1322 55.1816 91.2257C55.0412 91.3178 54.9325 91.4386 54.8555 91.588C54.7801 91.736 54.7423 91.8967 54.7423 92.0703V92.4666C54.7423 92.699 54.7831 92.8968 54.8646 93.0598C54.9476 93.2229 55.0631 93.3474 55.211 93.4334C55.359 93.518 55.5318 93.5602 55.7296 93.5602C55.8579 93.5602 55.9749 93.5421 56.0805 93.5059C56.1862 93.4681 56.2775 93.4123 56.3545 93.3383C56.4315 93.2644 56.4904 93.173 56.5311 93.0644L57.1719 93.1798C57.1206 93.3685 57.0285 93.5338 56.8957 93.6757C56.7643 93.8161 56.599 93.9255 56.3998 94.004C56.202 94.081 55.9764 94.1195 55.7228 94.1195ZM58.6431 91.9843V94.0493H57.9661V89.4121H58.6341V91.1374H58.6771C58.7586 90.9503 58.8831 90.8016 59.0507 90.6914C59.2183 90.5812 59.4371 90.5261 59.7074 90.5261C59.9459 90.5261 60.1542 90.5751 60.3323 90.6733C60.5119 90.7714 60.6508 90.9178 60.7489 91.1125C60.8486 91.3058 60.8984 91.5473 60.8984 91.8371V94.0493H60.2213V91.9186C60.2213 91.6635 60.1557 91.4658 60.0244 91.3254C59.893 91.1835 59.7104 91.1125 59.4764 91.1125C59.3164 91.1125 59.173 91.1465 59.0462 91.2144C58.9209 91.2824 58.822 91.382 58.7496 91.5133C58.6786 91.6431 58.6431 91.8001 58.6431 91.9843ZM63.3008 94.1195C62.9581 94.1195 62.663 94.0463 62.4154 93.8999C62.1694 93.7519 61.9792 93.5444 61.8448 93.2772C61.712 93.0085 61.6456 92.6938 61.6456 92.333C61.6456 91.9767 61.712 91.6628 61.8448 91.391C61.9792 91.1193 62.1664 90.9072 62.4064 90.7548C62.6479 90.6023 62.9302 90.5261 63.2532 90.5261C63.4495 90.5261 63.6397 90.5585 63.8238 90.6234C64.008 90.6884 64.1733 90.7902 64.3197 90.9291C64.4661 91.068 64.5816 91.2484 64.6661 91.4703C64.7507 91.6907 64.7929 91.9586 64.7929 92.2741V92.5141H62.0282V92.0069H64.1295C64.1295 91.8288 64.0933 91.6711 64.0208 91.5337C63.9484 91.3948 63.8465 91.2854 63.7151 91.2054C63.5853 91.1254 63.4329 91.0854 63.2578 91.0854C63.0676 91.0854 62.9015 91.1322 62.7596 91.2257C62.6192 91.3178 62.5105 91.4386 62.4336 91.588C62.3581 91.736 62.3203 91.8967 62.3203 92.0703V92.4666C62.3203 92.699 62.3611 92.8968 62.4426 93.0598C62.5256 93.2229 62.6411 93.3474 62.7891 93.4334C62.937 93.518 63.1098 93.5602 63.3076 93.5602C63.4359 93.5602 63.5529 93.5421 63.6585 93.5059C63.7642 93.4681 63.8555 93.4123 63.9325 93.3383C64.0095 93.2644 64.0684 93.173 64.1091 93.0644L64.7499 93.1798C64.6986 93.3685 64.6065 93.5338 64.4737 93.6757C64.3424 93.8161 64.1771 93.9255 63.9778 94.004C63.7801 94.081 63.5544 94.1195 63.3008 94.1195ZM66.5563 94.1263C66.3359 94.1263 66.1366 94.0855 65.9585 94.004C65.7804 93.921 65.6392 93.801 65.5351 93.644C65.4324 93.487 65.3811 93.2946 65.3811 93.0666C65.3811 92.8704 65.4188 92.7089 65.4943 92.5821C65.5698 92.4553 65.6717 92.3549 65.8 92.2809C65.9283 92.2069 66.0717 92.1511 66.2302 92.1133C66.3887 92.0756 66.5502 92.0469 66.7148 92.0273C66.9231 92.0032 67.0921 91.9835 67.222 91.9684C67.3518 91.9518 67.4461 91.9254 67.505 91.8892C67.5639 91.853 67.5933 91.7941 67.5933 91.7126V91.6967C67.5933 91.499 67.5375 91.3458 67.4257 91.2371C67.3156 91.1284 67.151 91.074 66.9321 91.074C66.7042 91.074 66.5246 91.1246 66.3932 91.2257C66.2634 91.3254 66.1736 91.4363 66.1238 91.5586L65.4875 91.4137C65.563 91.2024 65.6732 91.0318 65.8181 90.902C65.9645 90.7706 66.1328 90.6755 66.323 90.6167C66.5132 90.5563 66.7133 90.5261 66.9231 90.5261C67.062 90.5261 67.2091 90.5427 67.3646 90.5759C67.5216 90.6076 67.668 90.6665 67.8039 90.7525C67.9412 90.8386 68.0537 90.9616 68.1413 91.1216C68.2288 91.2801 68.2726 91.4861 68.2726 91.7397V94.0493H67.6114V93.5738H67.5842C67.5405 93.6614 67.4748 93.7474 67.3873 93.8319C67.2997 93.9165 67.1872 93.9867 67.0499 94.0425C66.9125 94.0984 66.748 94.1263 66.5563 94.1263ZM66.7034 93.5829C66.8906 93.5829 67.0506 93.5459 67.1835 93.4719C67.3178 93.398 67.4197 93.3013 67.4891 93.1821C67.5601 93.0613 67.5956 92.9323 67.5956 92.7949V92.3466C67.5714 92.3707 67.5246 92.3934 67.4552 92.4145C67.3873 92.4341 67.3095 92.4515 67.222 92.4666C67.1344 92.4802 67.0491 92.493 66.9661 92.5051C66.8831 92.5156 66.8136 92.5247 66.7578 92.5322C66.6265 92.5488 66.5064 92.5768 66.3978 92.616C66.2906 92.6553 66.2045 92.7119 66.1396 92.7858C66.0762 92.8583 66.0445 92.9549 66.0445 93.0757C66.0445 93.2432 66.1064 93.37 66.2302 93.4561C66.354 93.5406 66.5117 93.5829 66.7034 93.5829ZM70.4763 94.1172C70.1955 94.1172 69.945 94.0455 69.7246 93.9021C69.5057 93.7572 69.3336 93.5512 69.2083 93.284C69.0845 93.0153 69.0226 92.693 69.0226 92.3171C69.0226 91.9413 69.0853 91.6197 69.2106 91.3525C69.3374 91.0854 69.511 90.8808 69.7314 90.7389C69.9518 90.597 70.2016 90.5261 70.4808 90.5261C70.6967 90.5261 70.8703 90.5623 71.0016 90.6348C71.1345 90.7057 71.2371 90.7887 71.3096 90.8838C71.3835 90.9789 71.4409 91.0627 71.4817 91.1352H71.5224V89.4121H72.1994V94.0493H71.5383V93.5082H71.4817C71.4409 93.5821 71.382 93.6667 71.305 93.7618C71.2296 93.8569 71.1254 93.9399 70.9926 94.0108C70.8597 94.0818 70.6876 94.1172 70.4763 94.1172ZM70.6258 93.5399C70.8205 93.5399 70.985 93.4885 71.1194 93.3859C71.2552 93.2817 71.3579 93.1376 71.4273 92.9534C71.4983 92.7692 71.5337 92.5549 71.5337 92.3103C71.5337 92.0688 71.499 91.8575 71.4296 91.6763C71.3601 91.4952 71.2582 91.3541 71.1239 91.2529C70.9896 91.1518 70.8235 91.1012 70.6258 91.1012C70.422 91.1012 70.2521 91.154 70.1163 91.2597C69.9804 91.3654 69.8778 91.5095 69.8083 91.6922C69.7404 91.8748 69.7065 92.0809 69.7065 92.3103C69.7065 92.5428 69.7412 92.7519 69.8106 92.9376C69.88 93.1232 69.9827 93.2704 70.1186 93.3791C70.2559 93.4863 70.425 93.5399 70.6258 93.5399ZM74.6647 94.1195C74.322 94.1195 74.0269 94.0463 73.7793 93.8999C73.5333 93.7519 73.3431 93.5444 73.2087 93.2772C73.0759 93.0085 73.0095 92.6938 73.0095 92.333C73.0095 91.9767 73.0759 91.6628 73.2087 91.391C73.3431 91.1193 73.5303 90.9072 73.7703 90.7548C74.0118 90.6023 74.2941 90.5261 74.6171 90.5261C74.8134 90.5261 75.0036 90.5585 75.1877 90.6234C75.3719 90.6884 75.5372 90.7902 75.6836 90.9291C75.83 91.068 75.9455 91.2484 76.03 91.4703C76.1146 91.6907 76.1568 91.9586 76.1568 92.2741V92.5141H73.3921V92.0069H75.4934C75.4934 91.8288 75.4572 91.6711 75.3847 91.5337C75.3123 91.3948 75.2104 91.2854 75.079 91.2054C74.9492 91.1254 74.7968 91.0854 74.6217 91.0854C74.4315 91.0854 74.2654 91.1322 74.1235 91.2257C73.9831 91.3178 73.8744 91.4386 73.7975 91.588C73.722 91.736 73.6842 91.8967 73.6842 92.0703V92.4666C73.6842 92.699 73.725 92.8968 73.8065 93.0598C73.8895 93.2229 74.005 93.3474 74.153 93.4334C74.3009 93.518 74.4737 93.5602 74.6715 93.5602C74.7998 93.5602 74.9168 93.5421 75.0224 93.5059C75.1281 93.4681 75.2194 93.4123 75.2964 93.3383C75.3734 93.2644 75.4323 93.173 75.473 93.0644L76.1138 93.1798C76.0625 93.3685 75.9704 93.5338 75.8376 93.6757C75.7063 93.8161 75.541 93.9255 75.3417 94.004C75.144 94.081 74.9183 94.1195 74.6647 94.1195ZM76.908 94.0493V90.5714H77.5624V91.1239H77.5986C77.662 90.9367 77.7737 90.7895 77.9337 90.6823C78.0953 90.5736 78.2779 90.5193 78.4817 90.5193C78.524 90.5193 78.5738 90.5208 78.6311 90.5238C78.69 90.5268 78.7361 90.5306 78.7693 90.5351V91.1827C78.7421 91.1752 78.6938 91.1669 78.6244 91.1578C78.5549 91.1473 78.4855 91.142 78.416 91.142C78.256 91.142 78.1134 91.1759 77.9881 91.2439C77.8643 91.3103 77.7662 91.4031 77.6937 91.5224C77.6213 91.6401 77.585 91.7745 77.585 91.9254V94.0493H76.908ZM81.7966 94.0493L80.7732 90.5714H81.4728L82.1544 93.1255H82.1883L82.8722 90.5714H83.5718L84.2511 93.1142H84.2851L84.9621 90.5714H85.6618L84.6406 94.0493H83.95L83.2435 91.5382H83.1914L82.485 94.0493H81.7966ZM86.3043 94.0493V90.5714H86.9813V94.0493H86.3043ZM86.6462 90.0347C86.5284 90.0347 86.4273 89.9955 86.3428 89.917C86.2597 89.837 86.2182 89.7419 86.2182 89.6317C86.2182 89.52 86.2597 89.4249 86.3428 89.3464C86.4273 89.2664 86.5284 89.2264 86.6462 89.2264C86.7639 89.2264 86.8643 89.2664 86.9473 89.3464C87.0318 89.4249 87.0741 89.52 87.0741 89.6317C87.0741 89.7419 87.0318 89.837 86.9473 89.917C86.8643 89.9955 86.7639 90.0347 86.6462 90.0347ZM88.5691 89.4121V94.0493H87.8921V89.4121H88.5691ZM90.1569 89.4121V94.0493H89.4799V89.4121H90.1569ZM93.7674 94.1263C93.547 94.1263 93.3477 94.0855 93.1696 94.004C92.9915 93.921 92.8503 93.801 92.7462 93.644C92.6435 93.487 92.5922 93.2946 92.5922 93.0666C92.5922 92.8704 92.6299 92.7089 92.7054 92.5821C92.7809 92.4553 92.8828 92.3549 93.0111 92.2809C93.1394 92.2069 93.2828 92.1511 93.4413 92.1133C93.5998 92.0756 93.7613 92.0469 93.9259 92.0273C94.1342 92.0032 94.3032 91.9835 94.4331 91.9684C94.5629 91.9518 94.6572 91.9254 94.7161 91.8892C94.775 91.853 94.8044 91.7941 94.8044 91.7126V91.6967C94.8044 91.499 94.7485 91.3458 94.6368 91.2371C94.5266 91.1284 94.3621 91.074 94.1432 91.074C93.9153 91.074 93.7357 91.1246 93.6043 91.2257C93.4745 91.3254 93.3847 91.4363 93.3349 91.5586L92.6986 91.4137C92.7741 91.2024 92.8843 91.0318 93.0292 90.902C93.1756 90.7706 93.3439 90.6755 93.5341 90.6167C93.7243 90.5563 93.9243 90.5261 94.1342 90.5261C94.273 90.5261 94.4202 90.5427 94.5757 90.5759C94.7327 90.6076 94.8791 90.6665 95.015 90.7525C95.1523 90.8386 95.2648 90.9616 95.3524 91.1216C95.4399 91.2801 95.4837 91.4861 95.4837 91.7397V94.0493H94.8225V93.5738H94.7953C94.7516 93.6614 94.6859 93.7474 94.5983 93.8319C94.5108 93.9165 94.3983 93.9867 94.261 94.0425C94.1236 94.0984 93.9591 94.1263 93.7674 94.1263ZM93.9145 93.5829C94.1017 93.5829 94.2617 93.5459 94.3946 93.4719C94.5289 93.398 94.6308 93.3013 94.7002 93.1821C94.7712 93.0613 94.8067 92.9323 94.8067 92.7949V92.3466C94.7825 92.3707 94.7357 92.3934 94.6663 92.4145C94.5983 92.4341 94.5206 92.4515 94.4331 92.4666C94.3455 92.4802 94.2602 92.493 94.1772 92.5051C94.0942 92.5156 94.0247 92.5247 93.9689 92.5322C93.8375 92.5488 93.7175 92.5768 93.6089 92.616C93.5017 92.6553 93.4156 92.7119 93.3507 92.7858C93.2873 92.8583 93.2556 92.9549 93.2556 93.0757C93.2556 93.2432 93.3175 93.37 93.4413 93.4561C93.5651 93.5406 93.7228 93.5829 93.9145 93.5829ZM96.3854 95.3535V90.5714H97.0466V91.1352H97.1032C97.1425 91.0627 97.1991 90.9789 97.273 90.8838C97.347 90.7887 97.4497 90.7057 97.581 90.6348C97.7123 90.5623 97.8859 90.5261 98.1018 90.5261C98.3825 90.5261 98.6331 90.597 98.8535 90.7389C99.0739 90.8808 99.2467 91.0854 99.372 91.3525C99.4988 91.6197 99.5622 91.9413 99.5622 92.3171C99.5622 92.693 99.4996 93.0153 99.3743 93.284C99.249 93.5512 99.0769 93.7572 98.858 93.9021C98.6392 94.0455 98.3893 94.1172 98.1086 94.1172C97.8972 94.1172 97.7244 94.0818 97.59 94.0108C97.4572 93.9399 97.353 93.8569 97.2776 93.7618C97.2021 93.6667 97.144 93.5821 97.1032 93.5082H97.0625V95.3535H96.3854ZM97.0489 92.3103C97.0489 92.5549 97.0843 92.7692 97.1553 92.9534C97.2262 93.1376 97.3289 93.2817 97.4632 93.3859C97.5976 93.4885 97.7621 93.5399 97.9569 93.5399C98.1591 93.5399 98.3282 93.4863 98.4641 93.3791C98.5999 93.2704 98.7026 93.1232 98.772 92.9376C98.8429 92.7519 98.8784 92.5428 98.8784 92.3103C98.8784 92.0809 98.8437 91.8748 98.7743 91.6922C98.7063 91.5095 98.6037 91.3654 98.4663 91.2597C98.3305 91.154 98.1606 91.1012 97.9569 91.1012C97.7606 91.1012 97.5946 91.1518 97.4587 91.2529C97.3244 91.3541 97.2225 91.4952 97.153 91.6763C97.0836 91.8575 97.0489 92.0688 97.0489 92.3103ZM100.321 95.3535V90.5714H100.982V91.1352H101.039C101.078 91.0627 101.134 90.9789 101.208 90.8838C101.282 90.7887 101.385 90.7057 101.516 90.6348C101.648 90.5623 101.821 90.5261 102.037 90.5261C102.318 90.5261 102.568 90.597 102.789 90.7389C103.009 90.8808 103.182 91.0854 103.307 91.3525C103.434 91.6197 103.498 91.9413 103.498 92.3171C103.498 92.693 103.435 93.0153 103.31 93.284C103.184 93.5512 103.012 93.7572 102.793 93.9021C102.574 94.0455 102.325 94.1172 102.044 94.1172C101.833 94.1172 101.66 94.0818 101.525 94.0108C101.393 93.9399 101.288 93.8569 101.213 93.7618C101.137 93.6667 101.079 93.5821 101.039 93.5082H100.998V95.3535H100.321ZM100.984 92.3103C100.984 92.5549 101.02 92.7692 101.091 92.9534C101.162 93.1376 101.264 93.2817 101.399 93.3859C101.533 93.4885 101.697 93.5399 101.892 93.5399C102.094 93.5399 102.264 93.4863 102.399 93.3791C102.535 93.2704 102.638 93.1232 102.707 92.9376C102.778 92.7519 102.814 92.5428 102.814 92.3103C102.814 92.0809 102.779 91.8748 102.71 91.6922C102.642 91.5095 102.539 91.3654 102.402 91.2597C102.266 91.154 102.096 91.1012 101.892 91.1012C101.696 91.1012 101.53 91.1518 101.394 91.2529C101.26 91.3541 101.158 91.4952 101.088 91.6763C101.019 91.8575 100.984 92.0688 100.984 92.3103ZM105.755 94.1195C105.412 94.1195 105.117 94.0463 104.87 93.8999C104.624 93.7519 104.433 93.5444 104.299 93.2772C104.166 93.0085 104.1 92.6938 104.1 92.333C104.1 91.9767 104.166 91.6628 104.299 91.391C104.433 91.1193 104.621 90.9072 104.861 90.7548C105.102 90.6023 105.384 90.5261 105.708 90.5261C105.904 90.5261 106.094 90.5585 106.278 90.6234C106.462 90.6884 106.628 90.7902 106.774 90.9291C106.92 91.068 107.036 91.2484 107.12 91.4703C107.205 91.6907 107.247 91.9586 107.247 92.2741V92.5141H104.483V92.0069H106.584C106.584 91.8288 106.548 91.6711 106.475 91.5337C106.403 91.3948 106.301 91.2854 106.169 91.2054C106.04 91.1254 105.887 91.0854 105.712 91.0854C105.522 91.0854 105.356 91.1322 105.214 91.2257C105.074 91.3178 104.965 91.4386 104.888 91.588C104.812 91.736 104.775 91.8967 104.775 92.0703V92.4666C104.775 92.699 104.815 92.8968 104.897 93.0598C104.98 93.2229 105.095 93.3474 105.243 93.4334C105.391 93.518 105.564 93.5602 105.762 93.5602C105.89 93.5602 106.007 93.5421 106.113 93.5059C106.218 93.4681 106.31 93.4123 106.387 93.3383C106.464 93.2644 106.523 93.173 106.563 93.0644L107.204 93.1798C107.153 93.3685 107.061 93.5338 106.928 93.6757C106.797 93.8161 106.631 93.9255 106.432 94.004C106.234 94.081 106.009 94.1195 105.755 94.1195ZM109.011 94.1263C108.79 94.1263 108.591 94.0855 108.413 94.004C108.235 93.921 108.094 93.801 107.989 93.644C107.887 93.487 107.835 93.2946 107.835 93.0666C107.835 92.8704 107.873 92.7089 107.949 92.5821C108.024 92.4553 108.126 92.3549 108.254 92.2809C108.383 92.2069 108.526 92.1511 108.684 92.1133C108.843 92.0756 109.005 92.0469 109.169 92.0273C109.377 92.0032 109.546 91.9835 109.676 91.9684C109.806 91.9518 109.9 91.9254 109.959 91.8892C110.018 91.853 110.048 91.7941 110.048 91.7126V91.6967C110.048 91.499 109.992 91.3458 109.88 91.2371C109.77 91.1284 109.605 91.074 109.386 91.074C109.158 91.074 108.979 91.1246 108.848 91.2257C108.718 91.3254 108.628 91.4363 108.578 91.5586L107.942 91.4137C108.017 91.2024 108.127 91.0318 108.272 90.902C108.419 90.7706 108.587 90.6755 108.777 90.6167C108.968 90.5563 109.168 90.5261 109.377 90.5261C109.516 90.5261 109.663 90.5427 109.819 90.5759C109.976 90.6076 110.122 90.6665 110.258 90.7525C110.396 90.8386 110.508 90.9616 110.596 91.1216C110.683 91.2801 110.727 91.4861 110.727 91.7397V94.0493H110.066V93.5738H110.039C109.995 93.6614 109.929 93.7474 109.842 93.8319C109.754 93.9165 109.642 93.9867 109.504 94.0425C109.367 94.0984 109.202 94.1263 109.011 94.1263ZM109.158 93.5829C109.345 93.5829 109.505 93.5459 109.638 93.4719C109.772 93.398 109.874 93.3013 109.943 93.1821C110.014 93.0613 110.05 92.9323 110.05 92.7949V92.3466C110.026 92.3707 109.979 92.3934 109.909 92.4145C109.842 92.4341 109.764 92.4515 109.676 92.4666C109.589 92.4802 109.503 92.493 109.42 92.5051C109.337 92.5156 109.268 92.5247 109.212 92.5322C109.081 92.5488 108.961 92.5768 108.852 92.616C108.745 92.6553 108.659 92.7119 108.594 92.7858C108.531 92.8583 108.499 92.9549 108.499 93.0757C108.499 93.2432 108.561 93.37 108.684 93.4561C108.808 93.5406 108.966 93.5829 109.158 93.5829ZM111.629 94.0493V90.5714H112.283V91.1239H112.319C112.383 90.9367 112.494 90.7895 112.654 90.6823C112.816 90.5736 112.999 90.5193 113.202 90.5193C113.245 90.5193 113.294 90.5208 113.352 90.5238C113.411 90.5268 113.457 90.5306 113.49 90.5351V91.1827C113.463 91.1752 113.414 91.1669 113.345 91.1578C113.276 91.1473 113.206 91.142 113.137 91.142C112.977 91.142 112.834 91.1759 112.709 91.2439C112.585 91.3103 112.487 91.4031 112.414 91.5224C112.342 91.6401 112.306 91.7745 112.306 91.9254V94.0493H111.629ZM116.44 91.9843V94.0493H115.763V89.4121H116.431V91.1374H116.474C116.556 90.9503 116.68 90.8016 116.848 90.6914C117.015 90.5812 117.234 90.5261 117.504 90.5261C117.743 90.5261 117.951 90.5751 118.129 90.6733C118.309 90.7714 118.448 90.9178 118.546 91.1125C118.646 91.3058 118.695 91.5473 118.695 91.8371V94.0493H118.018V91.9186C118.018 91.6635 117.953 91.4658 117.821 91.3254C117.69 91.1835 117.507 91.1125 117.274 91.1125C117.113 91.1125 116.97 91.1465 116.843 91.2144C116.718 91.2824 116.619 91.382 116.547 91.5133C116.476 91.6431 116.44 91.8001 116.44 91.9843ZM121.098 94.1195C120.755 94.1195 120.46 94.0463 120.213 93.8999C119.966 93.7519 119.776 93.5444 119.642 93.2772C119.509 93.0085 119.443 92.6938 119.443 92.333C119.443 91.9767 119.509 91.6628 119.642 91.391C119.776 91.1193 119.963 90.9072 120.203 90.7548C120.445 90.6023 120.727 90.5261 121.05 90.5261C121.247 90.5261 121.437 90.5585 121.621 90.6234C121.805 90.6884 121.97 90.7902 122.117 90.9291C122.263 91.068 122.379 91.2484 122.463 91.4703C122.548 91.6907 122.59 91.9586 122.59 92.2741V92.5141H119.825V92.0069H121.927C121.927 91.8288 121.89 91.6711 121.818 91.5337C121.745 91.3948 121.644 91.2854 121.512 91.2054C121.382 91.1254 121.23 91.0854 121.055 91.0854C120.865 91.0854 120.699 91.1322 120.557 91.2257C120.416 91.3178 120.308 91.4386 120.231 91.588C120.155 91.736 120.117 91.8967 120.117 92.0703V92.4666C120.117 92.699 120.158 92.8968 120.24 93.0598C120.323 93.2229 120.438 93.3474 120.586 93.4334C120.734 93.518 120.907 93.5602 121.105 93.5602C121.233 93.5602 121.35 93.5421 121.456 93.5059C121.561 93.4681 121.653 93.4123 121.73 93.3383C121.807 93.2644 121.865 93.173 121.906 93.0644L122.547 93.1798C122.496 93.3685 122.404 93.5338 122.271 93.6757C122.139 93.8161 121.974 93.9255 121.775 94.004C121.577 94.081 121.351 94.1195 121.098 94.1195ZM123.341 94.0493V90.5714H123.996V91.1239H124.032C124.095 90.9367 124.207 90.7895 124.367 90.6823C124.528 90.5736 124.711 90.5193 124.915 90.5193C124.957 90.5193 125.007 90.5208 125.064 90.5238C125.123 90.5268 125.169 90.5306 125.202 90.5351V91.1827C125.175 91.1752 125.127 91.1669 125.058 91.1578C124.988 91.1473 124.919 91.142 124.849 91.142C124.689 91.142 124.547 91.1759 124.421 91.2439C124.298 91.3103 124.199 91.4031 124.127 91.5224C124.054 91.6401 124.018 91.7745 124.018 91.9254V94.0493H123.341ZM127.163 94.1195C126.82 94.1195 126.525 94.0463 126.277 93.8999C126.031 93.7519 125.841 93.5444 125.707 93.2772C125.574 93.0085 125.508 92.6938 125.508 92.333C125.508 91.9767 125.574 91.6628 125.707 91.391C125.841 91.1193 126.028 90.9072 126.268 90.7548C126.51 90.6023 126.792 90.5261 127.115 90.5261C127.311 90.5261 127.502 90.5585 127.686 90.6234C127.87 90.6884 128.035 90.7902 128.182 90.9291C128.328 91.068 128.444 91.2484 128.528 91.4703C128.613 91.6907 128.655 91.9586 128.655 92.2741V92.5141H125.89V92.0069H127.992C127.992 91.8288 127.955 91.6711 127.883 91.5337C127.81 91.3948 127.708 91.2854 127.577 91.2054C127.447 91.1254 127.295 91.0854 127.12 91.0854C126.93 91.0854 126.764 91.1322 126.622 91.2257C126.481 91.3178 126.373 91.4386 126.296 91.588C126.22 91.736 126.182 91.8967 126.182 92.0703V92.4666C126.182 92.699 126.223 92.8968 126.305 93.0598C126.388 93.2229 126.503 93.3474 126.651 93.4334C126.799 93.518 126.972 93.5602 127.17 93.5602C127.298 93.5602 127.415 93.5421 127.521 93.5059C127.626 93.4681 127.718 93.4123 127.795 93.3383C127.872 93.2644 127.93 93.173 127.971 93.0644L128.612 93.1798C128.561 93.3685 128.469 93.5338 128.336 93.6757C128.204 93.8161 128.039 93.9255 127.84 94.004C127.642 94.081 127.416 94.1195 127.163 94.1195ZM129.852 94.0923C129.728 94.0923 129.622 94.0486 129.533 93.961C129.444 93.8719 129.399 93.7648 129.399 93.6395C129.399 93.5157 129.444 93.41 129.533 93.3225C129.622 93.2334 129.728 93.1889 129.852 93.1889C129.976 93.1889 130.082 93.2334 130.171 93.3225C130.261 93.41 130.305 93.5157 130.305 93.6395C130.305 93.7225 130.284 93.7987 130.242 93.8682C130.201 93.9361 130.147 93.9904 130.079 94.0312C130.011 94.072 129.935 94.0923 129.852 94.0923Z" fill="#887D76"/>
<g clip-path="url(#clip0_89_5991)">
<path d="M20 9.56445C19.7584 9.56445 19.5267 9.66042 19.3559 9.83125C19.1851 10.0021 19.0891 10.2338 19.0891 10.4753V11.0041L22.9335 12.9266C23.0126 12.9661 23.0997 12.9867 23.1881 12.9867C23.2765 12.9867 23.3637 12.9661 23.4427 12.9266L27.2871 11.0046V10.4753C27.2871 10.2338 27.1912 10.0021 27.0203 9.83125C26.8495 9.66042 26.6178 9.56445 26.3762 9.56445H20Z" fill="black"/>
<path d="M27.2871 11.7681L23.7483 13.5375C23.5744 13.6245 23.3826 13.6697 23.1881 13.6697C22.9937 13.6697 22.8019 13.6245 22.6279 13.5375L19.0891 11.7681V14.1186C19.0891 14.3602 19.1851 14.5919 19.3559 14.7627C19.5267 14.9335 19.7584 15.0295 20 15.0295H26.3762C26.6178 15.0295 26.8495 14.9335 27.0203 14.7627C27.1912 14.5919 27.2871 14.3602 27.2871 14.1186V11.7681Z" fill="black"/>
</g>
<path d="M30.9462 9.55183V14.8516H30.1466V9.55183H30.9462ZM32.8223 12.4915V14.8516H32.0486V10.8768H32.7913V11.5237H32.8404C32.9319 11.3132 33.0751 11.1442 33.27 11.0165C33.4667 10.8888 33.7142 10.825 34.0127 10.825C34.2835 10.825 34.5208 10.8819 34.7243 10.9958C34.9279 11.1079 35.0857 11.2753 35.1979 11.4978C35.31 11.7204 35.3661 11.9955 35.3661 12.3233V14.8516H34.5923V12.4165C34.5923 12.1284 34.5173 11.9032 34.3672 11.7411C34.2171 11.5772 34.011 11.4952 33.7487 11.4952C33.5693 11.4952 33.4097 11.5341 33.27 11.6117C33.132 11.6893 33.0224 11.8032 32.9414 11.9533C32.862 12.1016 32.8223 12.2811 32.8223 12.4915ZM36.4659 14.8516V9.55183H37.2396V11.5211H37.2862C37.3311 11.4383 37.3958 11.3426 37.4803 11.2339C37.5648 11.1252 37.6821 11.0303 37.8322 10.9492C37.9823 10.8664 38.1807 10.825 38.4274 10.825C38.7483 10.825 39.0347 10.9061 39.2865 11.0683C39.5384 11.2304 39.7359 11.4642 39.8791 11.7695C40.0241 12.0749 40.0965 12.4424 40.0965 12.8719C40.0965 13.3015 40.0249 13.6698 39.8817 13.9769C39.7385 14.2823 39.5419 14.5177 39.2917 14.6834C39.0416 14.8472 38.7561 14.9292 38.4352 14.9292C38.1936 14.9292 37.9961 14.8887 37.8426 14.8076C37.6908 14.7265 37.5717 14.6316 37.4855 14.5229C37.3992 14.4142 37.3328 14.3176 37.2862 14.2331H37.2215V14.8516H36.4659ZM37.2241 12.8642C37.2241 13.1436 37.2646 13.3886 37.3457 13.5991C37.4268 13.8096 37.5441 13.9743 37.6977 14.0933C37.8512 14.2107 38.0392 14.2693 38.2618 14.2693C38.493 14.2693 38.6862 14.2081 38.8414 14.0856C38.9967 13.9614 39.114 13.7932 39.1934 13.581C39.2745 13.3688 39.315 13.1298 39.315 12.8642C39.315 12.6019 39.2753 12.3665 39.196 12.1577C39.1183 11.949 39.001 11.7842 38.844 11.6634C38.6888 11.5427 38.4947 11.4823 38.2618 11.4823C38.0375 11.4823 37.8477 11.5401 37.6925 11.6557C37.5389 11.7713 37.4225 11.9326 37.3431 12.1396C37.2638 12.3466 37.2241 12.5881 37.2241 12.8642ZM42.6396 14.9318C42.267 14.9318 41.9418 14.8464 41.664 14.6756C41.3863 14.5048 41.1706 14.2659 41.0171 13.9588C40.8636 13.6517 40.7868 13.2929 40.7868 12.8823C40.7868 12.47 40.8636 12.1094 41.0171 11.8006C41.1706 11.4918 41.3863 11.252 41.664 11.0812C41.9418 10.9104 42.267 10.825 42.6396 10.825C43.0123 10.825 43.3375 10.9104 43.6152 11.0812C43.893 11.252 44.1086 11.4918 44.2622 11.8006C44.4157 12.1094 44.4925 12.47 44.4925 12.8823C44.4925 13.2929 44.4157 13.6517 44.2622 13.9588C44.1086 14.2659 43.893 14.5048 43.6152 14.6756C43.3375 14.8464 43.0123 14.9318 42.6396 14.9318ZM42.6422 14.2823C42.8837 14.2823 43.0839 14.2184 43.2426 14.0908C43.4013 13.9631 43.5186 13.7932 43.5945 13.581C43.6721 13.3688 43.711 13.135 43.711 12.8797C43.711 12.6261 43.6721 12.3932 43.5945 12.181C43.5186 11.9671 43.4013 11.7954 43.2426 11.666C43.0839 11.5366 42.8837 11.4719 42.6422 11.4719C42.399 11.4719 42.1971 11.5366 42.0367 11.666C41.878 11.7954 41.7598 11.9671 41.6822 12.181C41.6063 12.3932 41.5683 12.6261 41.5683 12.8797C41.5683 13.135 41.6063 13.3688 41.6822 13.581C41.7598 13.7932 41.878 13.9631 42.0367 14.0908C42.1971 14.2184 42.399 14.2823 42.6422 14.2823ZM45.8103 10.8768L46.6875 12.4242L47.5725 10.8768H48.4187L47.1792 12.8642L48.4291 14.8516H47.5829L46.6875 13.3662L45.7948 14.8516H44.946L46.1829 12.8642L44.9615 10.8768H45.8103ZM51.2038 14.8516V9.55183H53.0929C53.5052 9.55183 53.8468 9.62688 54.1176 9.77697C54.3885 9.92706 54.5912 10.1324 54.7258 10.3929C54.8603 10.6516 54.9276 10.9432 54.9276 11.2675C54.9276 11.5936 54.8595 11.8869 54.7232 12.1474C54.5886 12.4061 54.385 12.6114 54.1125 12.7632C53.8416 12.9133 53.5009 12.9884 53.0903 12.9884H51.7912V12.3104H53.0178C53.2783 12.3104 53.4897 12.2655 53.6518 12.1758C53.814 12.0844 53.933 11.9602 54.0089 11.8032C54.0849 11.6462 54.1228 11.4676 54.1228 11.2675C54.1228 11.0674 54.0849 10.8897 54.0089 10.7344C53.933 10.5792 53.8131 10.4575 53.6492 10.3696C53.4871 10.2816 53.2732 10.2376 53.0075 10.2376H52.0034V14.8516H51.2038ZM55.8029 14.8516V10.8768H56.5508V11.5082H56.5922C56.6646 11.2943 56.7923 11.1261 56.9752 11.0036C57.1598 10.8794 57.3685 10.8172 57.6014 10.8172C57.6497 10.8172 57.7066 10.819 57.7722 10.8224C57.8395 10.8259 57.8921 10.8302 57.93 10.8354V11.5755C57.899 11.5668 57.8438 11.5573 57.7644 11.547C57.6851 11.5349 57.6057 11.5289 57.5264 11.5289C57.3435 11.5289 57.1805 11.5677 57.0373 11.6453C56.8958 11.7212 56.7837 11.8273 56.7009 11.9636C56.6181 12.0982 56.5766 12.2517 56.5766 12.4242V14.8516H55.8029ZM60.1704 14.9318C59.7788 14.9318 59.4415 14.8481 59.1586 14.6808C58.8774 14.5117 58.66 14.2745 58.5065 13.9691C58.3547 13.6621 58.2787 13.3024 58.2787 12.89C58.2787 12.4829 58.3547 12.1241 58.5065 11.8135C58.66 11.503 58.8739 11.2606 59.1482 11.0864C59.4243 10.9121 59.7469 10.825 60.1161 10.825C60.3403 10.825 60.5577 10.8621 60.7682 10.9363C60.9786 11.0105 61.1675 11.1269 61.3349 11.2856C61.5022 11.4443 61.6342 11.6505 61.7308 11.9041C61.8274 12.156 61.8757 12.4622 61.8757 12.8228V13.0971H58.7161V12.5174H61.1175C61.1175 12.3138 61.0761 12.1336 60.9933 11.9766C60.9105 11.8178 60.794 11.6928 60.644 11.6013C60.4956 11.5099 60.3214 11.4642 60.1212 11.4642C59.9039 11.4642 59.7141 11.5177 59.5519 11.6246C59.3915 11.7299 59.2673 11.8679 59.1793 12.0387C59.093 12.2077 59.0499 12.3915 59.0499 12.5899V13.0427C59.0499 13.3084 59.0965 13.5344 59.1896 13.7207C59.2845 13.907 59.4165 14.0494 59.5856 14.1477C59.7546 14.2443 59.9522 14.2926 60.1782 14.2926C60.3248 14.2926 60.4585 14.2719 60.5793 14.2305C60.7 14.1874 60.8044 14.1235 60.8924 14.039C60.9804 13.9545 61.0477 13.8501 61.0942 13.7259L61.8266 13.8579C61.7679 14.0735 61.6627 14.2624 61.5109 14.4246C61.3608 14.585 61.1719 14.7101 60.9441 14.7998C60.7181 14.8878 60.4602 14.9318 60.1704 14.9318ZM66.0207 10.8768L64.5793 14.8516H63.7512L62.3072 10.8768H63.1379L64.1445 13.9355H64.186L65.19 10.8768H66.0207ZM66.7478 14.8516V10.8768H67.5216V14.8516H66.7478ZM67.1386 10.2635C67.004 10.2635 66.8884 10.2186 66.7918 10.1289C66.6969 10.0375 66.6495 9.92878 66.6495 9.80284C66.6495 9.67518 66.6969 9.5665 66.7918 9.47679C66.8884 9.38535 67.004 9.33964 67.1386 9.33964C67.2732 9.33964 67.3879 9.38535 67.4828 9.47679C67.5794 9.5665 67.6277 9.67518 67.6277 9.80284C67.6277 9.92878 67.5794 10.0375 67.4828 10.1289C67.3879 10.2186 67.2732 10.2635 67.1386 10.2635ZM70.2756 14.9318C69.884 14.9318 69.5467 14.8481 69.2638 14.6808C68.9826 14.5117 68.7652 14.2745 68.6117 13.9691C68.4599 13.6621 68.3839 13.3024 68.3839 12.89C68.3839 12.4829 68.4599 12.1241 68.6117 11.8135C68.7652 11.503 68.9791 11.2606 69.2534 11.0864C69.5295 10.9121 69.8521 10.825 70.2213 10.825C70.4455 10.825 70.6629 10.8621 70.8734 10.9363C71.0838 11.0105 71.2727 11.1269 71.4401 11.2856C71.6074 11.4443 71.7394 11.6505 71.836 11.9041C71.9326 12.156 71.9809 12.4622 71.9809 12.8228V13.0971H68.8213V12.5174H71.2227C71.2227 12.3138 71.1813 12.1336 71.0985 11.9766C71.0157 11.8178 70.8992 11.6928 70.7492 11.6013C70.6008 11.5099 70.4266 11.4642 70.2264 11.4642C70.0091 11.4642 69.8193 11.5177 69.6571 11.6246C69.4967 11.7299 69.3725 11.8679 69.2845 12.0387C69.1982 12.2077 69.1551 12.3915 69.1551 12.5899V13.0427C69.1551 13.3084 69.2017 13.5344 69.2948 13.7207C69.3897 13.907 69.5217 14.0494 69.6908 14.1477C69.8598 14.2443 70.0574 14.2926 70.2834 14.2926C70.43 14.2926 70.5637 14.2719 70.6845 14.2305C70.8052 14.1874 70.9096 14.1235 70.9976 14.039C71.0856 13.9545 71.1528 13.8501 71.1994 13.7259L71.9318 13.8579C71.8731 14.0735 71.7679 14.2624 71.6161 14.4246C71.466 14.585 71.2771 14.7101 71.0493 14.7998C70.8233 14.8878 70.5654 14.9318 70.2756 14.9318ZM73.694 14.8516L72.5244 10.8768H73.324L74.1029 13.7958H74.1417L74.9232 10.8768H75.7228L76.4992 13.7828H76.538L77.3117 10.8768H78.1113L76.9443 14.8516H76.155L75.3476 11.9817H75.2881L74.4807 14.8516H73.694Z" fill="#100F1C"/>
<line x1="9.75232" y1="23.6832" x2="194.208" y2="23.6832" stroke="#DAD1C5" stroke-width="0.910891"/>
<rect x="15.901" y="34.6138" width="58.7525" height="5.46535" rx="2.73267" fill="#DAD1C5"/>
<rect x="15.901" y="112.495" width="58.7525" height="5.46535" rx="2.73267" fill="#DAD1C5"/>
<rect x="15.901" y="44.1777" width="124.337" height="5.46535" rx="2.73267" fill="#DAD1C5" fill-opacity="0.5"/>
<rect x="15.901" y="122.06" width="124.337" height="5.46535" rx="2.73267" fill="#DAD1C5" fill-opacity="0.5"/>
<defs>
<clipPath id="clip0_89_5991">
<rect width="9.10891" height="9.10891" fill="white" transform="translate(18.6337 7.74268)"/>
</clipPath>
</defs>
</svg>
