<svg width="16" height="16" viewBox="0 0 16 16" fill="none" xmlns="http://www.w3.org/2000/svg">
<path fill-rule="evenodd" clip-rule="evenodd" d="M8.91401 6.025C9.05463 5.88455 9.24526 5.80566 9.44401 5.80566C9.64276 5.80566 9.83338 5.88455 9.97401 6.025C10.2991 6.35001 10.5569 6.73587 10.7328 7.16053C10.9087 7.58519 10.9993 8.04035 10.9993 8.5C10.9993 8.95966 10.9087 9.41482 10.7328 9.83948C10.5569 10.2641 10.2991 10.65 9.97401 10.975L7.97401 12.975C7.36076 13.5875 6.54208 13.9506 5.67646 13.9941C4.81085 14.0376 3.95988 13.7584 3.2883 13.2106C2.61672 12.6627 2.1723 11.8851 2.04109 11.0284C1.90987 10.1717 2.10119 9.29676 2.57801 8.573C2.68968 8.41183 2.86003 8.3008 3.05257 8.2637C3.24511 8.22659 3.44452 8.26637 3.60809 8.3745C3.77166 8.48263 3.88638 8.65052 3.92767 8.8422C3.96896 9.03388 3.93355 9.23412 3.82901 9.4C3.55629 9.81374 3.44687 10.314 3.52196 10.8038C3.59705 11.2936 3.8513 11.7381 4.23543 12.0511C4.61956 12.3642 5.10623 12.5234 5.60111 12.4981C6.09599 12.4728 6.56385 12.2646 6.91401 11.914L8.91401 9.914C9.28895 9.53895 9.49958 9.03033 9.49958 8.5C9.49958 7.96968 9.28895 7.46106 8.91401 7.086C8.77356 6.94538 8.69467 6.75476 8.69467 6.556C8.69467 6.35725 8.77356 6.16563 8.91401 6.025Z" fill="black"/>
<path fill-rule="evenodd" clip-rule="evenodd" d="M7.08598 9.97499C6.94536 10.1154 6.75474 10.1943 6.55598 10.1943C6.35723 10.1943 6.16661 10.1154 6.02598 9.97499C5.70094 9.64998 5.4431 9.26412 5.26719 8.83946C5.09127 8.4148 5.00073 7.95964 5.00073 7.49999C5.00073 7.04033 5.09127 6.58518 5.26719 6.16051C5.4431 5.73585 5.70094 5.35 6.02598 5.02499L8.02598 3.02499C8.63924 2.41253 9.45792 2.0494 10.3235 2.00588C11.1891 1.96237 12.0401 2.24157 12.7117 2.78944C13.3833 3.33731 13.8277 4.11487 13.9589 4.97158C14.0901 5.8283 13.8988 6.70323 13.422 7.42699C13.3103 7.58816 13.14 7.69919 12.9474 7.73629C12.7549 7.7734 12.5555 7.73362 12.3919 7.62549C12.2283 7.51736 12.1136 7.34947 12.0723 7.15779C12.031 6.96611 12.0664 6.76588 12.171 6.59999C12.4437 6.18626 12.5531 5.68601 12.478 5.19621C12.4029 4.7064 12.1487 4.26191 11.7646 3.94887C11.3804 3.63584 10.8938 3.47655 10.3989 3.50189C9.904 3.52722 9.43615 3.73537 9.08599 4.08599L7.08598 6.08599C6.71104 6.46104 6.50041 6.96966 6.50041 7.49999C6.50041 8.03032 6.71104 8.53893 7.08598 8.91399C7.22644 9.05461 7.30532 9.24524 7.30532 9.44399C7.30532 9.64274 7.22644 9.83336 7.08598 9.97399V9.97499Z" fill="currentColor"/>
</svg>
