<svg width="21" height="21" viewBox="0 0 21 21" fill="none" xmlns="http://www.w3.org/2000/svg">
    <path d="M12.483 2.19255C12.5175 2.03089 12.4976 1.86238 12.4264 1.7132C12.3552 1.56402 12.2368 1.44253 12.0894 1.36761C11.9421 1.29268 11.7741 1.26853 11.6117 1.2989C11.4492 1.32927 11.3013 1.41246 11.191 1.53555L2.69098 11.0355C2.59446 11.1435 2.53124 11.277 2.50895 11.4201C2.48665 11.5631 2.50624 11.7096 2.56534 11.8417C2.62445 11.9739 2.72054 12.0861 2.84203 12.1649C2.96352 12.2436 3.1052 12.2855 3.24998 12.2855H9.82198L8.51698 18.3785C8.48251 18.5402 8.50241 18.7087 8.57358 18.8579C8.64475 19.0071 8.7632 19.1286 8.91054 19.2035C9.05787 19.2784 9.22582 19.3026 9.3883 19.2722C9.55077 19.2418 9.69866 19.1586 9.80898 19.0355L18.309 9.53555C18.4055 9.42763 18.4687 9.29409 18.491 9.15104C18.5133 9.00798 18.4937 8.86154 18.4346 8.72937C18.3755 8.5972 18.2794 8.48497 18.1579 8.40621C18.0364 8.32746 17.8948 8.28555 17.75 8.28555H11.178L12.483 2.19255Z"/>
</svg>
