<svg width="16" height="16" viewBox="0 0 16 16" fill="none" xmlns="http://www.w3.org/2000/svg">
<path fill-rule="evenodd" clip-rule="evenodd" d="M11.013 2.51298C11.343 2.19413 11.785 2.01765 12.2439 2.02155C12.7027 2.02544 13.1417 2.2094 13.4662 2.5338C13.7907 2.8582 13.9749 3.29708 13.979 3.75593C13.983 4.21477 13.8067 4.65686 13.488 4.98698L6.22602 12.25C5.97068 12.5053 5.66759 12.7078 5.33402 12.846L3.28702 13.694C3.14997 13.7508 2.99914 13.7657 2.85363 13.7367C2.70812 13.7078 2.57445 13.6364 2.46955 13.5315C2.36464 13.4265 2.29321 13.2929 2.26428 13.1474C2.23535 13.0019 2.25022 12.851 2.30702 12.714L3.15502 10.667C3.29321 10.3334 3.49573 10.0303 3.75102 9.77498L11.013 2.51298Z" fill="black"/>
</svg>
