<svg width="16" height="16" viewBox="0 0 16 16" fill="none" xmlns="http://www.w3.org/2000/svg">
<path d="M8.75 3.75C8.75 3.55109 8.67098 3.36032 8.53033 3.21967C8.38968 3.07902 8.19891 3 8 3C7.80109 3 7.61032 3.07902 7.46967 3.21967C7.32902 3.36032 7.25 3.55109 7.25 3.75V7.25H3.75C3.55109 7.25 3.36032 7.32902 3.21967 7.46967C3.07902 7.61032 3 7.80109 3 8C3 8.19891 3.07902 8.38968 3.21967 8.53033C3.36032 8.67098 3.55109 8.75 3.75 8.75H7.25V12.25C7.25 12.4489 7.32902 12.6397 7.46967 12.7803C7.61032 12.921 7.80109 13 8 13C8.19891 13 8.38968 12.921 8.53033 12.7803C8.67098 12.6397 8.75 12.4489 8.75 12.25V8.75H12.25C12.4489 8.75 12.6397 8.67098 12.7803 8.53033C12.921 8.38968 13 8.19891 13 8C13 7.80109 12.921 7.61032 12.7803 7.46967C12.6397 7.32902 12.4489 7.25 12.25 7.25H8.75V3.75Z" fill="currentColor"/>
</svg>
