<svg width="21" height="21" viewBox="0 0 21 21" fill="none" xmlns="http://www.w3.org/2000/svg">
    <path d="M1.5 4.14282C1.5 3.87761 1.60536 3.62325 1.79289 3.43572C1.98043 3.24818 2.23478 3.14282 2.5 3.14282H18.5C18.7652 3.14282 19.0196 3.24818 19.2071 3.43572C19.3946 3.62325 19.5 3.87761 19.5 4.14282V12.1428C19.5 12.408 19.3946 12.6624 19.2071 12.8499C19.0196 13.0375 18.7652 13.1428 18.5 13.1428H2.5C2.23478 13.1428 1.98043 13.0375 1.79289 12.8499C1.60536 12.6624 1.5 12.408 1.5 12.1428V4.14282ZM13.5 8.14282C13.5 8.93847 13.1839 9.70153 12.6213 10.2641C12.0587 10.8268 11.2956 11.1428 10.5 11.1428C9.70435 11.1428 8.94129 10.8268 8.37868 10.2641C7.81607 9.70153 7.5 8.93847 7.5 8.14282C7.5 7.34717 7.81607 6.58411 8.37868 6.0215C8.94129 5.45889 9.70435 5.14282 10.5 5.14282C11.2956 5.14282 12.0587 5.45889 12.6213 6.0215C13.1839 6.58411 13.5 7.34717 13.5 8.14282ZM4.5 9.14282C4.76522 9.14282 5.01957 9.03747 5.20711 8.84993C5.39464 8.66239 5.5 8.40804 5.5 8.14282C5.5 7.87761 5.39464 7.62325 5.20711 7.43572C5.01957 7.24818 4.76522 7.14282 4.5 7.14282C4.23478 7.14282 3.98043 7.24818 3.79289 7.43572C3.60536 7.62325 3.5 7.87761 3.5 8.14282C3.5 8.40804 3.60536 8.66239 3.79289 8.84993C3.98043 9.03747 4.23478 9.14282 4.5 9.14282ZM17.5 8.14282C17.5 8.40804 17.3946 8.66239 17.2071 8.84993C17.0196 9.03747 16.7652 9.14282 16.5 9.14282C16.2348 9.14282 15.9804 9.03747 15.7929 8.84993C15.6054 8.66239 15.5 8.40804 15.5 8.14282C15.5 7.87761 15.6054 7.62325 15.7929 7.43572C15.9804 7.24818 16.2348 7.14282 16.5 7.14282C16.7652 7.14282 17.0196 7.24818 17.2071 7.43572C17.3946 7.62325 17.5 7.87761 17.5 8.14282ZM2.25 14.6428C2.05109 14.6428 1.86032 14.7218 1.71967 14.8625C1.57902 15.0031 1.5 15.1939 1.5 15.3928C1.5 15.5917 1.57902 15.7825 1.71967 15.9232C1.86032 16.0638 2.05109 16.1428 2.25 16.1428C6.667 16.1428 10.943 16.7458 14.999 17.8728C16.11 18.1818 17.25 17.3608 17.25 16.1768V15.3928C17.25 15.1939 17.171 15.0031 17.0303 14.8625C16.8897 14.7218 16.6989 14.6428 16.5 14.6428C16.3011 14.6428 16.1103 14.7218 15.9697 14.8625C15.829 15.0031 15.75 15.1939 15.75 15.3928V16.1768C15.7484 16.2183 15.7373 16.2589 15.7176 16.2954C15.6979 16.332 15.6701 16.3635 15.6363 16.3876C15.6025 16.4118 15.5637 16.4279 15.5227 16.4346C15.4817 16.4414 15.4398 16.4388 15.4 16.4268C11.1177 15.2391 6.69392 14.639 2.25 14.6428Z"/>
</svg>
