<?xml version="1.0" encoding="UTF-8"?>
<svg xmlns="http://www.w3.org/2000/svg" xmlns:xlink="http://www.w3.org/1999/xlink" width="24px" height="24px" viewBox="0 0 24 24" version="1.1">
<g id="surface1">
<path style=" stroke:none;fill-rule:nonzero;fill:rgb(0%,0%,0%);fill-opacity:1;" d="M 13.570312 1.375 L 7.527344 1.375 L 7.527344 4.394531 L 13.570312 4.394531 Z M 13.570312 1.375 "/>
<path style=" stroke:none;fill-rule:nonzero;fill:rgb(0%,0%,0%);fill-opacity:1;" d="M 16.585938 12.695312 L 7.527344 12.695312 L 7.527344 16.46875 L 16.585938 16.46875 Z M 16.585938 12.695312 "/>
<path style=" stroke:none;fill-rule:nonzero;fill:rgb(0%,0%,0%);fill-opacity:1;" d="M 3 3.640625 L 3 18.734375 C 3 19.335938 3.238281 19.910156 3.664062 20.335938 C 4.089844 20.761719 4.664062 21 5.265625 21 L 18.851562 21 C 19.453125 21 20.027344 20.761719 20.453125 20.335938 C 20.875 19.910156 21.113281 19.335938 21.117188 18.734375 L 21.117188 7.898438 C 21.117188 7.425781 20.96875 6.964844 20.695312 6.582031 L 17.652344 2.324219 C 17.441406 2.03125 17.167969 1.792969 16.847656 1.625 C 16.523438 1.460938 16.171875 1.375 15.808594 1.375 L 15.078125 1.375 L 15.078125 4.394531 C 15.078125 4.792969 14.917969 5.179688 14.632812 5.460938 C 14.351562 5.742188 13.96875 5.902344 13.566406 5.902344 L 7.527344 5.902344 C 7.128906 5.902344 6.746094 5.742188 6.460938 5.460938 C 6.179688 5.179688 6.019531 4.792969 6.019531 4.394531 L 6.019531 1.375 L 5.265625 1.375 C 4.664062 1.375 4.089844 1.613281 3.664062 2.039062 C 3.238281 2.464844 3 3.039062 3 3.640625 Z M 6.019531 11.941406 C 6.019531 11.84375 6.039062 11.746094 6.078125 11.652344 C 6.113281 11.5625 6.171875 11.476562 6.238281 11.410156 C 6.308594 11.339844 6.394531 11.28125 6.484375 11.246094 C 6.578125 11.207031 6.675781 11.1875 6.773438 11.1875 L 17.339844 11.1875 C 17.441406 11.1875 17.539062 11.207031 17.628906 11.246094 C 17.722656 11.28125 17.804688 11.339844 17.875 11.410156 C 17.945312 11.476562 18 11.5625 18.039062 11.652344 C 18.078125 11.746094 18.097656 11.84375 18.097656 11.941406 L 18.097656 17.226562 C 18.097656 17.324219 18.078125 17.421875 18.039062 17.515625 C 18 17.605469 17.945312 17.691406 17.875 17.757812 C 17.804688 17.828125 17.722656 17.886719 17.628906 17.921875 C 17.539062 17.960938 17.441406 17.980469 17.339844 17.980469 L 6.773438 17.980469 C 6.675781 17.980469 6.578125 17.960938 6.484375 17.921875 C 6.394531 17.886719 6.308594 17.828125 6.238281 17.757812 C 6.171875 17.691406 6.113281 17.605469 6.078125 17.515625 C 6.039062 17.421875 6.019531 17.324219 6.019531 17.226562 Z M 6.019531 11.941406 "/>
</g>
</svg>
