<svg width="21" height="21" viewBox="0 0 21 21" fill="none" xmlns="http://www.w3.org/2000/svg">
    <path d="M8.33995 1.94682C8.38524 1.72021 8.50762 1.51628 8.68628 1.36971C8.86494 1.22313 9.08885 1.14296 9.31995 1.14282H11.6799C11.911 1.14296 12.1349 1.22313 12.3136 1.36971C12.4923 1.51628 12.6147 1.72021 12.6599 1.94682L12.9909 3.59882C13.6894 3.86501 14.3407 4.24145 14.9199 4.71382L16.5179 4.17382C16.7368 4.09984 16.9746 4.10395 17.1908 4.18543C17.407 4.26692 17.5883 4.42077 17.7039 4.62082L18.8839 6.66482C18.9996 6.86491 19.0424 7.09889 19.005 7.32696C18.9676 7.55503 18.8524 7.76311 18.6789 7.91582L17.4119 9.02882C17.5301 9.76679 17.5301 10.5189 17.4119 11.2568L18.6789 12.3698C18.8523 12.5224 18.9676 12.7302 19.0051 12.958C19.0427 13.1859 19.0002 13.4197 18.8849 13.6198L17.7049 15.6648C17.5893 15.8651 17.4078 16.0191 17.1914 16.1006C16.975 16.1821 16.737 16.1861 16.5179 16.1118L14.9199 15.5718C14.3407 16.0442 13.6894 16.4206 12.9909 16.6868L12.6609 18.3388C12.6157 18.5654 12.4933 18.7694 12.3146 18.9159C12.1359 19.0625 11.912 19.1427 11.6809 19.1428H9.31995C9.08885 19.1427 8.86494 19.0625 8.68628 18.9159C8.50762 18.7694 8.38524 18.5654 8.33995 18.3388L8.00895 16.6868C7.31049 16.4206 6.65922 16.0442 6.07995 15.5718L4.48195 16.1118C4.26305 16.1858 4.0253 16.1817 3.80909 16.1002C3.59288 16.0187 3.41156 15.8649 3.29595 15.6648L2.11595 13.6208C2.00029 13.4207 1.95752 13.1868 1.99489 12.9587C2.03226 12.7306 2.14748 12.5225 2.32095 12.3698L3.58795 11.2558C3.46996 10.5182 3.46996 9.76647 3.58795 9.02882L2.32095 7.91582C2.14756 7.76329 2.03231 7.55546 1.99476 7.3276C1.95721 7.09975 1.99967 6.86592 2.11495 6.66582L3.29495 4.62082C3.4106 4.42055 3.59208 4.26656 3.80851 4.18505C4.02494 4.10355 4.26292 4.09958 4.48195 4.17382L6.07995 4.71382C6.65952 4.24135 7.31113 3.8649 8.00995 3.59882L8.33995 1.94682ZM10.4999 13.1428C11.2956 13.1428 12.0587 12.8268 12.6213 12.2641C13.1839 11.7015 13.4999 10.9385 13.4999 10.1428C13.4999 9.34717 13.1839 8.58411 12.6213 8.0215C12.0587 7.45889 11.2956 7.14282 10.4999 7.14282C9.7043 7.14282 8.94124 7.45889 8.37863 8.0215C7.81602 8.58411 7.49995 9.34717 7.49995 10.1428C7.49995 10.9385 7.81602 11.7015 8.37863 12.2641C8.94124 12.8268 9.7043 13.1428 10.4999 13.1428Z" />
</svg>
