<svg width="16" height="16" viewBox="0 0 16 16" fill="none" xmlns="http://www.w3.org/2000/svg">
<path fill-rule="evenodd" clip-rule="evenodd" d="M2 4.75C2 4.55109 2.07902 4.36032 2.21967 4.21967C2.36032 4.07902 2.55109 4 2.75 4H6.25C6.44891 4 6.63968 4.07902 6.78033 4.21967C6.92098 4.36032 7 4.55109 7 4.75C7 4.94891 6.92098 5.13968 6.78033 5.28033C6.63968 5.42098 6.44891 5.5 6.25 5.5H2.75C2.55109 5.5 2.36032 5.42098 2.21967 5.28033C2.07902 5.13968 2 4.94891 2 4.75ZM2 8.25C2 8.05109 2.07902 7.86032 2.21967 7.71967C2.36032 7.57902 2.55109 7.5 2.75 7.5H6.25C6.44891 7.5 6.63968 7.57902 6.78033 7.71967C6.92098 7.86032 7 8.05109 7 8.25C7 8.44891 6.92098 8.63968 6.78033 8.78033C6.63968 8.92098 6.44891 9 6.25 9H2.75C2.55109 9 2.36032 8.92098 2.21967 8.78033C2.07902 8.63968 2 8.44891 2 8.25ZM2 11.75C2 11.5511 2.07902 11.3603 2.21967 11.2197C2.36032 11.079 2.55109 11 2.75 11H6.25C6.44891 11 6.63968 11.079 6.78033 11.2197C6.92098 11.3603 7 11.5511 7 11.75C7 11.9489 6.92098 12.1397 6.78033 12.2803C6.63968 12.421 6.44891 12.5 6.25 12.5H2.75C2.55109 12.5 2.36032 12.421 2.21967 12.2803C2.07902 12.1397 2 11.9489 2 11.75ZM9.22 7.53C9.07955 7.38937 9.00066 7.19875 9.00066 7C9.00066 6.80125 9.07955 6.61063 9.22 6.47L11.47 4.22C11.6106 4.07955 11.8012 4.00066 12 4.00066C12.1988 4.00066 12.3894 4.07955 12.53 4.22L14.78 6.47C14.9125 6.61218 14.9846 6.80022 14.9812 6.99452C14.9777 7.18882 14.899 7.37421 14.7616 7.51162C14.6242 7.64903 14.4388 7.72775 14.2445 7.73118C14.0502 7.7346 13.8622 7.66248 13.72 7.53L12.75 6.56V12.25C12.75 12.4489 12.671 12.6397 12.5303 12.7803C12.3897 12.921 12.1989 13 12 13C11.8011 13 11.6103 12.921 11.4697 12.7803C11.329 12.6397 11.25 12.4489 11.25 12.25V6.56L10.28 7.53C10.1394 7.67045 9.94875 7.74934 9.75 7.74934C9.55125 7.74934 9.36063 7.67045 9.22 7.53Z" fill="currentColor"/>
</svg>
