<svg width="21" height="21" viewBox="0 0 21 21" fill="none" xmlns="http://www.w3.org/2000/svg">
    <path d="M16 2.28564C15.6022 2.28564 15.2206 2.44368 14.9393 2.72498C14.658 3.00629 14.5 3.38782 14.5 3.78564V16.7856C14.5 17.1835 14.658 17.565 14.9393 17.8463C15.2206 18.1276 15.6022 18.2856 16 18.2856H17C17.3978 18.2856 17.7794 18.1276 18.0607 17.8463C18.342 17.565 18.5 17.1835 18.5 16.7856V3.78564C18.5 3.38782 18.342 3.00629 18.0607 2.72498C17.7794 2.44368 17.3978 2.28564 17 2.28564H16ZM10 6.28564C9.60218 6.28564 9.22064 6.44368 8.93934 6.72498C8.65804 7.00629 8.5 7.38782 8.5 7.78564V16.7856C8.5 17.1835 8.65804 17.565 8.93934 17.8463C9.22064 18.1276 9.60218 18.2856 10 18.2856H11C11.3978 18.2856 11.7794 18.1276 12.0607 17.8463C12.342 17.565 12.5 17.1835 12.5 16.7856V7.78564C12.5 7.38782 12.342 7.00629 12.0607 6.72498C11.7794 6.44368 11.3978 6.28564 11 6.28564H10ZM4 10.2856C3.60218 10.2856 3.22064 10.4437 2.93934 10.725C2.65804 11.0063 2.5 11.3878 2.5 11.7856V16.7856C2.5 17.1835 2.65804 17.565 2.93934 17.8463C3.22064 18.1276 3.60218 18.2856 4 18.2856H5C5.39782 18.2856 5.77936 18.1276 6.06066 17.8463C6.34196 17.565 6.5 17.1835 6.5 16.7856V11.7856C6.5 11.3878 6.34196 11.0063 6.06066 10.725C5.77936 10.4437 5.39782 10.2856 5 10.2856H4Z"/>
</svg>
