<svg width="21" height="21" viewBox="0 0 21 21" fill="none" xmlns="http://www.w3.org/2000/svg">
    <path d="M10.5001 9.28564C11.2957 9.28564 12.0588 8.96957 12.6214 8.40697C13.184 7.84436 13.5001 7.08129 13.5001 6.28564C13.5001 5.49 13.184 4.72693 12.6214 4.16432C12.0588 3.60172 11.2957 3.28564 10.5001 3.28564C9.7044 3.28564 8.94134 3.60172 8.37873 4.16432C7.81612 4.72693 7.50005 5.49 7.50005 6.28564C7.50005 7.08129 7.81612 7.84436 8.37873 8.40697C8.94134 8.96957 9.7044 9.28564 10.5001 9.28564ZM6.50005 8.28564C6.50005 8.81608 6.28934 9.32478 5.91426 9.69986C5.53919 10.0749 5.03048 10.2856 4.50005 10.2856C3.96962 10.2856 3.46091 10.0749 3.08584 9.69986C2.71076 9.32478 2.50005 8.81608 2.50005 8.28564C2.50005 7.75521 2.71076 7.2465 3.08584 6.87143C3.46091 6.49636 3.96962 6.28564 4.50005 6.28564C5.03048 6.28564 5.53919 6.49636 5.91426 6.87143C6.28934 7.2465 6.50005 7.75521 6.50005 8.28564ZM1.99005 15.6116C1.81934 15.5146 1.6915 15.3568 1.63205 15.1696C1.45586 14.599 1.45401 13.9887 1.62674 13.417C1.79948 12.8452 2.13894 12.3381 2.60164 11.9604C3.06435 11.5828 3.62925 11.3519 4.22399 11.2972C4.81874 11.2426 5.41627 11.3667 5.94005 11.6536C4.86368 12.7114 4.18998 14.1115 4.03505 15.6126C4.01205 15.8346 4.02105 16.0546 4.06005 16.2666C3.33021 16.2035 2.62335 15.9799 1.99005 15.6116ZM16.9401 16.2656C17.6698 16.2028 18.3767 15.9795 19.0101 15.6116C19.1804 15.5144 19.3079 15.3566 19.3671 15.1696C19.5435 14.5989 19.5456 13.9885 19.373 13.4166C19.2004 12.8447 18.8609 12.3373 18.3982 11.9595C17.9354 11.5817 17.3704 11.3507 16.7755 11.296C16.1806 11.2413 15.5829 11.3655 15.0591 11.6526C16.1364 12.7104 16.8108 14.1109 16.9661 15.6126C16.9883 15.8308 16.9796 16.051 16.9401 16.2666V16.2656ZM18.5001 8.28564C18.5001 8.81608 18.2893 9.32478 17.9143 9.69986C17.5392 10.0749 17.0305 10.2856 16.5001 10.2856C15.9696 10.2856 15.4609 10.0749 15.0858 9.69986C14.7108 9.32478 14.5001 8.81608 14.5001 8.28564C14.5001 7.75521 14.7108 7.2465 15.0858 6.87143C15.4609 6.49636 15.9696 6.28564 16.5001 6.28564C17.0305 6.28564 17.5392 6.49636 17.9143 6.87143C18.2893 7.2465 18.5001 7.75521 18.5001 8.28564ZM5.80405 16.4756C5.70543 16.3873 5.62897 16.277 5.58085 16.1537C5.53273 16.0304 5.5143 15.8974 5.52705 15.7656C5.65425 14.5351 6.23309 13.3954 7.15171 12.5669C8.07032 11.7383 9.26348 11.2797 10.5006 11.2797C11.7376 11.2797 12.9308 11.7383 13.8494 12.5669C14.768 13.3954 15.3469 14.5351 15.4741 15.7656C15.4869 15.8974 15.4685 16.0304 15.4204 16.1537C15.3722 16.2771 15.2957 16.3874 15.1971 16.4756C13.9113 17.6426 12.2364 18.288 10.5001 18.2856C8.764 18.2878 7.08954 17.6424 5.80405 16.4756Z"/>
</svg>
