<svg width="21" height="21" viewBox="0 0 21 21" fill="none" xmlns="http://www.w3.org/2000/svg">
    <path d="M18.5 10.1428C18.5 12.2646 17.6571 14.2994 16.1569 15.7997C14.6566 17.3 12.6217 18.1428 10.5 18.1428C8.37827 18.1428 6.34344 17.3 4.84315 15.7997C3.34285 14.2994 2.5 12.2646 2.5 10.1428C2.5 8.02109 3.34285 5.98626 4.84315 4.48597C6.34344 2.98568 8.37827 2.14282 10.5 2.14282C12.6217 2.14282 14.6566 2.98568 16.1569 4.48597C17.6571 5.98626 18.5 8.02109 18.5 10.1428ZM13 7.64282C13 8.30586 12.7366 8.94175 12.2678 9.41059C11.7989 9.87943 11.163 10.1428 10.5 10.1428C9.83696 10.1428 9.20107 9.87943 8.73223 9.41059C8.26339 8.94175 8 8.30586 8 7.64282C8 6.97978 8.26339 6.3439 8.73223 5.87506C9.20107 5.40621 9.83696 5.14282 10.5 5.14282C11.163 5.14282 11.7989 5.40621 12.2678 5.87506C12.7366 6.3439 13 6.97978 13 7.64282ZM10.5 12.1428C9.57042 12.142 8.6534 12.3575 7.8215 12.7723C6.98961 13.1871 6.26568 13.7899 5.707 14.5328C6.31524 15.1985 7.05567 15.73 7.88097 16.0933C8.70626 16.4566 9.59827 16.6438 10.5 16.6428C11.4017 16.6438 12.2937 16.4566 13.119 16.0933C13.9443 15.73 14.6848 15.1985 15.293 14.5328C14.7343 13.7899 14.0104 13.1871 13.1785 12.7723C12.3466 12.3575 11.4296 12.142 10.5 12.1428Z"/>
</svg>
