<svg width="14" height="13" viewBox="0 0 14 13" fill="none" xmlns="http://www.w3.org/2000/svg">
<path fill-rule="evenodd" clip-rule="evenodd" d="M13.7333 6.39756C13.7333 8.09494 13.0591 9.72281 11.8588 10.923C10.6586 12.1233 9.03072 12.7976 7.33333 12.7976C5.63595 12.7976 4.00808 12.1233 2.80785 10.923C1.60762 9.72281 0.933334 8.09494 0.933334 6.39756C0.933334 4.70017 1.60762 3.07231 2.80785 1.87208C4.00808 0.671842 5.63595 -0.00244141 7.33333 -0.00244141C9.03072 -0.00244141 10.6586 0.671842 11.8588 1.87208C13.0591 3.07231 13.7333 4.70017 13.7333 6.39756ZM9.33333 4.39756C9.33333 4.92799 9.12262 5.4367 8.74755 5.81177C8.37247 6.18684 7.86377 6.39756 7.33333 6.39756C6.8029 6.39756 6.29419 6.18684 5.91912 5.81177C5.54405 5.4367 5.33333 4.92799 5.33333 4.39756C5.33333 3.86713 5.54405 3.35842 5.91912 2.98334C6.29419 2.60827 6.8029 2.39756 7.33333 2.39756C7.86377 2.39756 8.37247 2.60827 8.74755 2.98334C9.12262 3.35842 9.33333 3.86713 9.33333 4.39756ZM7.33333 7.99756C6.58967 7.99687 5.85605 8.16928 5.19054 8.50114C4.52502 8.83299 3.94588 9.31519 3.49893 9.90956C3.98553 10.4421 4.57787 10.8673 5.23811 11.158C5.89834 11.4486 6.61195 11.5983 7.33333 11.5976C8.05471 11.5983 8.76832 11.4486 9.42856 11.158C10.0888 10.8673 10.6811 10.4421 11.1677 9.90956C10.7208 9.31519 10.1416 8.83299 9.47613 8.50114C8.81062 8.16928 8.077 7.99687 7.33333 7.99756Z" fill="black"/>
</svg>
