<svg width="86" height="77" viewBox="0 0 86 77" fill="none" xmlns="http://www.w3.org/2000/svg">
<path d="M62.5424 33.3995L62.5388 33.4016C60.9805 34.3313 59.4206 35.2593 57.8603 36.1875C53.2987 38.9011 48.7342 41.6164 44.2011 44.3808C43.7005 44.686 43.329 44.8016 42.9947 44.8017C42.6599 44.8018 42.2897 44.6862 41.7915 44.3877C30.3812 37.5497 18.9466 30.7521 7.51299 23.955C6.48288 23.3426 5.45278 22.7303 4.42271 22.1179C3.74757 21.7165 3.00439 21.6535 2.40485 22.0019C1.8066 22.3495 1.49094 23.0255 1.49781 23.8087L1.49797 23.848C1.49089 33.1359 1.49152 42.4238 1.49214 51.7115C1.49225 53.3853 1.49236 55.059 1.49243 56.7327C1.49249 58.2139 1.49415 59.6946 1.49581 61.175C1.50046 65.3221 1.5051 69.4667 1.4745 73.6118C1.47044 74.1607 1.54879 74.7048 1.9215 75.0823C2.30012 75.4658 2.84475 75.5405 3.40129 75.5209C5.1644 75.4587 6.9263 75.4396 8.67508 75.524C9.33106 75.5557 9.93514 75.4651 10.3411 75.0301C10.7319 74.6114 10.8063 74.0081 10.8001 73.3962C10.7543 68.8299 10.7665 64.2632 10.7787 59.6927C10.7808 58.8872 10.783 58.0816 10.7848 57.2758C10.785 57.1861 10.7801 57.099 10.7748 57.0217C10.7665 56.9029 10.7911 56.8387 10.8093 56.8077C10.827 56.7774 10.8541 56.7518 10.8997 56.7327C10.9996 56.6911 11.2076 56.682 11.4569 56.8302C12.4767 57.4365 13.4964 58.0426 14.5162 58.6488C23.5329 64.0084 32.5486 69.3674 41.543 74.7615C42.0016 75.0365 42.4532 75.2191 42.942 75.2295C43.4354 75.2401 43.8942 75.0741 44.3651 74.7915C51.592 70.454 58.8424 66.1542 66.0989 61.8631C66.4962 61.6281 66.825 61.344 67.0485 60.9673C67.2736 60.5881 67.3651 60.1604 67.3632 59.6841C67.3583 58.4861 67.3768 57.313 67.3954 56.1339C67.411 55.1459 67.4267 54.1536 67.4287 53.139C67.4301 52.437 67.0542 51.9038 66.4926 51.6702C65.9563 51.4471 65.3152 51.5208 64.7705 51.849L64.721 51.8789C64.6738 51.9073 64.6279 51.935 64.5815 51.9627C63.5983 52.5489 62.6151 53.1351 61.6319 53.7214C55.8092 57.1932 49.9867 60.6649 44.1615 64.132C44.1098 64.1628 44.0605 64.1924 44.0131 64.2208C43.6832 64.4188 43.4501 64.5587 43.1991 64.6226C42.9655 64.6821 42.6946 64.6771 42.2968 64.4381C32.0698 58.2955 21.8106 52.2063 11.5501 46.1223C11.2295 45.9323 11.0411 45.751 10.9279 45.5603C10.817 45.3733 10.7508 45.1305 10.7572 44.7677C10.7858 43.1383 10.7815 41.5026 10.7773 39.8732C10.7749 38.9799 10.7726 38.0885 10.7757 37.2009C10.7765 36.9804 10.8701 36.8735 10.9316 36.8367C10.9801 36.8076 11.0781 36.7781 11.2354 36.8863L11.5357 36.4499L11.2354 36.8863C11.3024 36.9324 11.38 36.985 11.4627 37.0342C21.4938 43.0082 31.5239 48.9833 41.5457 54.972C41.9033 55.1857 42.2995 55.3926 42.7446 55.4536C43.2149 55.518 43.6821 55.4136 44.1729 55.119C51.5079 50.7164 58.865 46.3499 66.2253 41.9863C66.5495 41.7942 66.8385 41.5588 67.0436 41.2409C67.2528 40.9166 67.3492 40.5462 67.3511 40.1281C67.3564 38.9951 67.3721 37.8617 67.3878 36.7255L67.3895 36.6072C67.4057 35.4323 67.4216 34.2544 67.4255 33.0759C67.4271 32.5823 67.3115 32.0289 66.8727 31.7218C66.4074 31.3963 65.8382 31.518 65.3493 31.7736C64.7066 32.1097 64.0767 32.4861 63.4058 32.887C63.1264 33.054 62.8399 33.2252 62.5424 33.3995ZM83.0492 75.5093L83.0602 75.509C83.4413 75.5009 83.7803 75.4216 84.0453 75.2266C84.324 75.0214 84.4496 74.7414 84.4992 74.4814C84.5456 74.2377 84.5298 73.9884 84.5129 73.7987C84.5072 73.734 84.5014 73.6764 84.4962 73.6239C84.4838 73.4993 84.4743 73.4037 84.4743 73.3094C84.4883 53.5651 84.4872 33.8209 84.4861 14.0769C84.486 11.6467 84.4859 9.21642 84.4858 6.78617C84.4858 6.4643 84.4874 6.14 84.489 5.81414C84.4933 4.96262 84.4976 4.10049 84.4729 3.24339C84.463 2.90224 84.4316 2.59079 84.3547 2.33264C84.278 2.07526 84.1326 1.79516 83.8396 1.63519C83.5481 1.47602 83.2339 1.50336 82.9747 1.5754C82.7136 1.64797 82.4297 1.78714 82.1298 1.96175V1.96175C80.8269 2.72018 79.5321 3.49899 78.2411 4.27551C77.5806 4.67278 76.9211 5.06945 76.2621 5.46248C73.8929 6.87536 71.5235 8.28794 69.1541 9.70055C60.6636 14.7624 52.1726 19.8246 43.6905 24.9013C43.3859 25.0837 43.1642 25.1461 42.9757 25.1466C42.7882 25.147 42.5691 25.0863 42.2692 24.9042C39.9886 23.5191 37.6925 22.1561 35.3991 20.7946C34.3938 20.1978 33.389 19.6013 32.3862 19.0034C29.0668 17.0242 25.7476 15.0445 22.4284 13.0647C16.2274 9.36614 10.0262 5.66747 3.82338 1.97194L3.82338 1.97193C3.50754 1.78377 3.21614 1.63059 2.95674 1.54632C2.70728 1.46528 2.37165 1.41008 2.06208 1.58966C1.75514 1.7677 1.63383 2.08434 1.57655 2.33941C1.51664 2.60616 1.49814 2.93608 1.49663 3.30598L1.49663 3.30598C1.49369 4.02441 1.49841 4.73676 1.5031 5.44577C1.51228 6.83265 1.52138 8.2067 1.47294 9.58827C1.4528 10.163 1.5432 10.6681 1.80139 11.115C2.0574 11.5581 2.44749 11.89 2.92837 12.1752C15.7618 19.7861 28.5842 27.4145 41.3773 35.0907C41.9408 35.4288 42.4743 35.619 43.0377 35.6071C43.597 35.5952 44.1135 35.3854 44.6443 35.0664C53.8187 29.5523 63.0169 24.0766 72.2267 18.6196C72.5283 18.4409 72.8259 18.2518 73.1162 18.0673C73.1575 18.0411 73.1986 18.015 73.2396 17.989C73.572 17.778 73.8971 17.5742 74.2287 17.3863C74.5201 17.2213 74.7727 17.2372 74.9258 17.3126C75.0638 17.3807 75.1938 17.531 75.1938 17.8286C75.1952 28.3245 75.1931 38.8203 75.191 49.3162C75.1904 52.0913 75.1899 54.8663 75.1894 57.6414C75.1884 62.849 75.188 68.0566 75.1891 73.2643V73.2901C75.1891 73.6921 75.1892 74.0395 75.221 74.3117C75.2533 74.5882 75.3285 74.9022 75.5749 75.1395C75.817 75.3726 76.1328 75.4425 76.4124 75.4735C76.6925 75.5044 77.0518 75.5055 77.474 75.5067L77.4964 75.5068C79.1709 75.5117 80.8454 75.5106 82.7132 75.5094L83.0492 75.5093Z" fill="#FF4C49" stroke="#FF4C49" stroke-width="1.05955" stroke-linejoin="round"/>
</svg>
