<svg width="9" height="6" viewBox="0 0 9 6" fill="none" xmlns="http://www.w3.org/2000/svg">
<path fill-rule="evenodd" clip-rule="evenodd" d="M0.21995 1.21991C0.360576 1.07946 0.5512 1.00057 0.74995 1.00057C0.948701 1.00057 1.13933 1.07946 1.27995 1.21991L3.99995 3.93991L6.71995 1.21991C6.78861 1.14622 6.87141 1.08712 6.96341 1.04613C7.05541 1.00514 7.15473 0.983095 7.25543 0.981318C7.35613 0.979541 7.45616 0.998066 7.54955 1.03579C7.64294 1.07351 7.72777 1.12965 7.79899 1.20087C7.87021 1.27209 7.92635 1.35692 7.96407 1.45031C8.00179 1.5437 8.02032 1.64373 8.01854 1.74443C8.01677 1.84513 7.99472 1.94445 7.95373 2.03645C7.91274 2.12845 7.85364 2.21125 7.77995 2.27991L4.52995 5.52991C4.38932 5.67036 4.1987 5.74925 3.99995 5.74925C3.8012 5.74925 3.61058 5.67036 3.46995 5.52991L0.21995 2.27991C0.0794997 2.13928 0.000610352 1.94866 0.000610352 1.74991C0.000610352 1.55116 0.0794997 1.36053 0.21995 1.21991Z" fill="black"/>
</svg>
